<svg width="26" height="25" viewBox="0 0 26 25" fill="none" xmlns="http://www.w3.org/2000/svg">
<path d="M16.2324 0.0100098C17.2061 0.0102013 18.1406 0.396717 18.8291 1.08521C19.352 1.60819 19.6993 2.27352 19.8369 2.9895C20.3511 3.07311 20.8486 3.24823 21.3018 3.51294C21.9531 3.89349 22.4918 4.44079 22.8623 5.0979C23.2329 5.75517 23.4227 6.49971 23.4111 7.25415C23.4044 7.69477 23.3256 8.129 23.1865 8.54321C23.7981 8.80909 24.3435 9.21655 24.7734 9.73755C25.4028 10.5002 25.7469 11.4587 25.7471 12.4475C25.7471 13.4364 25.4028 14.3957 24.7734 15.1584C24.3438 15.6791 23.7985 16.0859 23.1875 16.3518C23.3269 16.7662 23.4042 17.2009 23.4111 17.6418C23.4229 18.3963 23.2337 19.1407 22.8633 19.7981C22.4927 20.4555 21.9534 21.0034 21.3018 21.384C20.8486 21.6487 20.3511 21.8229 19.8369 21.9065C19.6995 22.6228 19.3522 23.2885 18.8291 23.8118C18.1406 24.5003 17.2061 24.8868 16.2324 24.887C15.2587 24.887 14.3244 24.5002 13.6357 23.8118C13.5181 23.6941 13.4092 23.5687 13.3096 23.4377C13.2101 23.5685 13.1018 23.6943 12.9844 23.8118C12.2958 24.5002 11.3614 24.8868 10.3877 24.887C9.41392 24.8869 8.47961 24.5003 7.79102 23.8118C7.2677 23.2884 6.91966 22.623 6.78223 21.9065C6.2683 21.8229 5.77135 21.6485 5.31836 21.384C4.66657 21.0034 4.12749 20.4556 3.75684 19.7981C3.38629 19.1406 3.1972 18.3965 3.20898 17.6418C3.2159 17.2007 3.29208 16.7654 3.43164 16.3508C2.82097 16.085 2.27618 15.6788 1.84668 15.1584C1.21714 14.3956 0.873047 13.4366 0.873047 12.4475C0.873195 11.4587 1.21727 10.5002 1.84668 9.73755C2.27651 9.21685 2.82141 8.80904 3.43262 8.54321C3.2935 8.129 3.21576 7.69477 3.20898 7.25415C3.19742 6.49968 3.38723 5.75519 3.75781 5.0979C4.12841 4.44085 4.66698 3.89343 5.31836 3.51294C5.77128 3.24845 6.26837 3.07311 6.78223 2.9895C6.91984 2.27346 7.26801 1.60821 7.79102 1.08521C8.47959 0.396815 9.41402 0.0100617 10.3877 0.0100098C11.3613 0.010132 12.2958 0.396798 12.9844 1.08521C13.1017 1.20253 13.2102 1.3277 13.3096 1.45825C13.409 1.32761 13.5183 1.2026 13.6357 1.08521C14.3243 0.396912 15.2588 0.0100098 16.2324 0.0100098ZM16.2324 1.51001C15.6566 1.51001 15.1036 1.73876 14.6963 2.14575C14.289 2.553 14.0597 3.10596 14.0596 3.68188C14.0596 4.09594 13.7236 4.43164 13.3096 4.43188C12.8956 4.43164 12.5596 4.09595 12.5596 3.68188C12.5595 3.10602 12.331 2.55299 11.9238 2.14575C11.5166 1.73865 10.9635 1.51013 10.3877 1.51001C9.81185 1.51006 9.25884 1.73867 8.85156 2.14575C8.44431 2.553 8.21594 3.10596 8.21582 3.68188C8.21582 3.88057 8.13644 4.07155 7.99609 4.21216C7.85557 4.35267 7.66453 4.43175 7.46582 4.43188C6.97729 4.43184 6.49707 4.56251 6.0752 4.80884C5.65337 5.05526 5.30444 5.40969 5.06445 5.83521C4.82459 6.26071 4.70157 6.74232 4.70898 7.23071C4.7165 7.71935 4.85444 8.19736 5.10742 8.61548C5.23422 8.82512 5.24963 9.08388 5.15039 9.30786C5.05092 9.53186 4.84801 9.69383 4.60742 9.74048C3.97869 9.86201 3.41159 10.1988 3.00391 10.6926C2.59629 11.1865 2.37319 11.8071 2.37305 12.4475C2.37305 13.0881 2.59615 13.7093 3.00391 14.2034C3.41161 14.6973 3.97861 15.034 4.60742 15.1555C4.84809 15.2022 5.05094 15.364 5.15039 15.5881C5.24976 15.8122 5.23329 16.0708 5.10645 16.2805C4.85335 16.6985 4.71666 17.1767 4.70898 17.6653C4.70135 18.154 4.82349 18.636 5.06348 19.0618C5.3035 19.4876 5.65215 19.8426 6.07422 20.0891C6.49627 20.3355 6.97709 20.4652 7.46582 20.4651C7.6645 20.4652 7.85557 20.5443 7.99609 20.6848C8.13655 20.8254 8.21577 21.0164 8.21582 21.2151C8.21586 21.7911 8.44426 22.3439 8.85156 22.7512C9.25886 23.1584 9.81175 23.3869 10.3877 23.387C10.9635 23.3868 11.5166 23.1584 11.9238 22.7512C12.3309 22.3439 12.5595 21.791 12.5596 21.2151C12.5597 20.8011 12.8956 20.4653 13.3096 20.4651C13.7235 20.4653 14.0595 20.8011 14.0596 21.2151C14.0596 21.7911 14.289 22.3439 14.6963 22.7512C15.1036 23.1584 15.6565 23.387 16.2324 23.387C16.8082 23.3868 17.3614 23.1584 17.7686 22.7512C18.1756 22.3439 18.4043 21.7909 18.4043 21.2151C18.4043 21.0163 18.4835 20.8254 18.624 20.6848C18.7646 20.5444 18.9556 20.4651 19.1543 20.4651C19.643 20.4651 20.1239 20.3356 20.5459 20.0891C20.9678 19.8426 21.3167 19.4874 21.5566 19.0618C21.7965 18.6361 21.9188 18.1539 21.9111 17.6653C21.9035 17.1767 21.7667 16.6985 21.5137 16.2805C21.3867 16.0708 21.3695 15.8122 21.4688 15.5881C21.5683 15.3641 21.772 15.202 22.0127 15.1555C22.6414 15.0339 23.2086 14.6972 23.6162 14.2034C24.0238 13.7093 24.2471 13.088 24.2471 12.4475C24.2469 11.8072 24.0238 11.1865 23.6162 10.6926C23.2086 10.1987 22.6414 9.86212 22.0127 9.74048C21.7719 9.69395 21.5693 9.532 21.4697 9.30786C21.3703 9.08377 21.3858 8.82524 21.5127 8.61548C21.7655 8.19744 21.9036 7.71922 21.9111 7.23071C21.9185 6.74236 21.7955 6.26068 21.5557 5.83521C21.3157 5.40964 20.9667 5.05532 20.5449 4.80884C20.1231 4.56243 19.6428 4.43193 19.1543 4.43188C18.9555 4.43189 18.7647 4.35271 18.624 4.21216C18.4835 4.07152 18.4043 3.88074 18.4043 3.68188C18.4042 3.10603 18.1757 2.55299 17.7686 2.14575C17.3614 1.73857 16.8082 1.5102 16.2324 1.51001ZM15.0693 5.85474C15.4833 5.85499 15.8193 6.19068 15.8193 6.60474V8.17505C16.2764 8.20878 16.7088 8.4045 17.0352 8.73071C17.361 9.05678 17.5558 9.48893 17.5898 9.94556H19.2461C19.66 9.9459 19.996 10.2816 19.9961 10.6956C19.996 11.1094 19.6599 11.4452 19.2461 11.4456H17.5977V13.4221H19.2461C19.66 13.4225 19.9961 13.7581 19.9961 14.1721C19.9958 14.5859 19.6599 14.9218 19.2461 14.9221H17.5889C17.5485 15.3675 17.3539 15.7869 17.0352 16.1057C16.7116 16.4293 16.2839 16.6232 15.8311 16.6594V18.2932C15.8309 18.7072 15.495 19.043 15.0811 19.0432C14.667 19.0431 14.3312 18.7072 14.3311 18.2932V16.6682H12.2959V18.2932C12.2958 18.707 11.9596 19.0428 11.5459 19.0432C11.1318 19.0432 10.796 18.7073 10.7959 18.2932V16.6506C10.3762 16.5974 9.98308 16.408 9.68066 16.1057C9.36209 15.7871 9.1675 15.3681 9.12695 14.9231H7.46973C7.05561 14.9231 6.71988 14.5872 6.71973 14.1731C6.71973 13.7589 7.05551 13.4231 7.46973 13.4231H9.11816V11.4456H7.46973C7.0556 11.4456 6.71986 11.1097 6.71973 10.6956C6.71982 10.2814 7.05557 9.94556 7.46973 9.94556H9.12598C9.15999 9.48877 9.35456 9.05682 9.68066 8.73071C9.98308 8.42852 10.3762 8.23899 10.7959 8.18579V6.60474C10.7959 6.19052 11.1317 5.85474 11.5459 5.85474C11.9597 5.85519 12.2959 6.1908 12.2959 6.60474V8.16919H14.3193V6.60474C14.3193 6.19061 14.6552 5.85489 15.0693 5.85474ZM11.0371 9.66919C10.9263 9.66919 10.8197 9.71303 10.7412 9.79126C10.6627 9.86981 10.6182 9.97705 10.6182 10.0881V14.7493C10.6182 14.8603 10.6627 14.9667 10.7412 15.0452C10.8197 15.1235 10.9262 15.1682 11.0371 15.1682H15.6787C15.7896 15.1681 15.8962 15.1236 15.9746 15.0452C16.053 14.9667 16.0976 14.8602 16.0977 14.7493V10.0881C16.0977 9.97722 16.0529 9.86978 15.9746 9.79126C15.8962 9.71305 15.7894 9.66934 15.6787 9.66919H11.0371Z" fill="#2B4DFF"/>
</svg>
