<?xml version="1.0" encoding="UTF-8"?>
<svg version="1.1" xmlns="http://www.w3.org/2000/svg" width="3000" height="653">
<path d="M0 0 C18.71537155 14.50182795 29.37208114 37.09657636 41.0756073 57.18171692 C44.8211107 63.60957345 48.60794836 70.0100877 52.453125 76.37890625 C64.72518858 96.7439321 76.56035401 117.37130295 88.265625 138.06640625 C88.60482971 138.6651355 88.94403442 139.26386475 89.29351807 139.8807373 C129.51538918 210.90765292 129.51538918 210.90765292 124.078125 235.06640625 C120.44669256 248.16968552 112.84327527 260.26460898 101.06494141 267.5118103 C88.78462288 274.33166581 76.44131362 273.39854003 62.80575562 273.00208664 C56.37942525 272.8301327 49.95147492 272.77651195 43.5234375 272.69921875 C35.37753942 272.59459964 27.23549237 272.45308883 19.09277344 272.19921875 C12.47682479 271.99339386 5.86544705 271.90493929 -0.75405884 271.88267899 C-3.26164814 271.85435882 -5.76913391 271.78658312 -8.27450562 271.67741013 C-19.78277339 271.07445888 -19.78277339 271.07445888 -30.734375 274.06640625 C-36.4523328 279.4155974 -39.62370284 286.41816266 -42.63253307 293.53259945 C-44.00132173 296.68027965 -45.65094722 299.44778879 -47.50390625 302.33203125 C-48.01091064 303.16436279 -48.51791504 303.99669434 -49.0402832 304.85424805 C-49.5374585 305.66676025 -50.03463379 306.47927246 -50.546875 307.31640625 C-51.11688232 308.25073486 -51.68688965 309.18506348 -52.27416992 310.14770508 C-57.34755284 318.45503488 -62.45695642 326.74017489 -67.56396484 335.02685547 C-74.62688985 346.49712692 -81.61219142 358.01399771 -88.59326172 369.53417969 C-90.72318752 373.04858758 -92.85539045 376.5616097 -94.98828125 380.07421875 C-95.51439247 380.94074821 -95.51439247 380.94074821 -96.0511322 381.82478333 C-97.8139054 384.72793469 -99.57728105 387.63071801 -101.34155273 390.53295898 C-104.61302826 395.91595227 -107.87933695 401.30185265 -111.12609863 406.69979858 C-112.6314697 409.20180271 -114.13996979 411.70191362 -115.64868164 414.2019043 C-116.69003455 415.93031127 -117.72695314 417.66138755 -118.76367188 419.39257812 C-131.73494786 440.87424528 -131.73494786 440.87424528 -139.984375 448.87890625 C-140.80107666 449.68134766 -140.80107666 449.68134766 -141.63427734 450.5 C-147.10813585 455.70212895 -153.04690228 459.53784024 -159.734375 463.06640625 C-160.63671875 463.5459375 -161.5390625 464.02546875 -162.46875 464.51953125 C-183.51058988 474.8536893 -206.94588979 475.30289382 -229.02905273 468.15454102 C-249.67640407 461.04079026 -266.69104015 445.44443019 -276.73242188 426.1875 C-285.98448217 406.6012671 -288.36456936 382.51838539 -282.10546875 361.68359375 C-279.51082925 354.83847643 -276.23148398 348.48730586 -272.734375 342.06640625 C-271.73719077 340.19849841 -270.74116989 338.32996922 -269.74609375 336.4609375 C-264.12388524 325.94933154 -258.34146703 315.53804244 -252.39331055 305.20776367 C-248.2908914 298.07413859 -244.28385382 290.89010391 -240.296875 283.69140625 C-235.10022248 274.31077883 -229.86250749 264.95535 -224.57617188 255.625 C-218.84798807 245.51150331 -213.17394886 235.36789934 -207.50048828 225.22363281 C-204.58039363 220.00346914 -201.65723934 214.78501946 -198.734375 209.56640625 C-197.56769346 207.48308124 -196.4010268 205.39974791 -195.234375 203.31640625 C-188.234375 190.81640625 -181.234375 178.31640625 -174.234375 165.81640625 C-173.65679443 164.78499512 -173.07921387 163.75358398 -172.48413086 162.69091797 C-171.31833748 160.60917893 -170.15248468 158.52747316 -168.98657227 156.44580078 C-166.0560544 151.21334702 -163.12659584 145.98030539 -160.19921875 140.74609375 C-154.58765085 130.71496019 -148.96280731 120.69194579 -143.296875 110.69140625 C-138.56613602 102.34015214 -133.88804174 93.96083652 -129.234375 85.56640625 C-124.06294256 76.23801395 -118.85418842 66.93237949 -113.59130859 57.65527344 C-110.72676491 52.60289156 -107.88050579 47.54118198 -105.05859375 42.46484375 C-104.44121338 41.3557666 -103.82383301 40.24668945 -103.18774414 39.10400391 C-102.01096771 36.98803764 -100.83676768 34.87063541 -99.66577148 32.75146484 C-88.97460411 13.54328158 -78.1294012 -0.66412789 -56.60546875 -8 C-37.19829943 -13.46569258 -16.74911551 -11.84401739 0 0 Z M-56.2902832 57.00878906 C-59.2817697 61.27121479 -61.67801321 65.90434798 -64.14797974 70.48150635 C-65.55210431 73.08351646 -66.97066925 75.67756443 -68.3881073 78.27233887 C-69.11529105 79.60402922 -69.84169792 80.93614409 -70.56733704 82.26867676 C-73.92776812 88.43743453 -77.35406119 94.56827108 -80.796875 100.69140625 C-85.608313 109.26383051 -90.39991772 117.84693811 -95.171875 126.44140625 C-95.79384766 127.56160156 -96.41582031 128.68179688 -97.05664062 129.8359375 C-98.94954794 133.24591117 -100.84204271 136.65611344 -102.734375 140.06640625 C-110.62002775 154.27764443 -118.51910787 168.48084949 -126.46728516 182.65722656 C-130.71832528 190.24300065 -134.95026255 197.83921853 -139.171875 205.44140625 C-140.10362549 207.11928223 -140.10362549 207.11928223 -141.05419922 208.83105469 C-144.22425325 214.54125292 -147.39208512 220.25267883 -150.55859375 225.96484375 C-156.39023843 236.4797477 -162.23842288 246.98355928 -168.171875 257.44140625 C-173.04501985 266.03329273 -177.84453209 274.66416903 -182.609375 283.31640625 C-183.1131366 284.23111694 -183.1131366 284.23111694 -183.6270752 285.16430664 C-184.98591728 287.63181924 -186.34469991 290.09936458 -187.70339966 292.56695557 C-195.31514178 306.38683995 -202.95385713 320.19242612 -210.74584961 333.91162109 C-213.42055794 338.62321959 -216.07885003 343.34397655 -218.734375 348.06640625 C-219.32089844 349.10555176 -219.90742188 350.14469727 -220.51171875 351.21533203 C-222.30744601 354.40854058 -224.08540503 357.61106892 -225.859375 360.81640625 C-226.40416504 361.78022217 -226.94895508 362.74403809 -227.51025391 363.73706055 C-232.83505745 373.43803444 -236.33314929 382.98151097 -233.734375 394.06640625 C-230.53147925 403.10598393 -225.26257079 409.41234283 -216.796875 413.87890625 C-205.55573764 419.03321358 -195.63943329 419.33969252 -183.84765625 415.390625 C-170.99009817 409.92172639 -163.68870842 397.86117056 -156.859375 386.31640625 C-156.12104498 385.08217557 -155.38185051 383.84846164 -154.6418457 382.61523438 C-153.10543788 380.05337961 -151.57274929 377.48935412 -150.04248047 374.92382812 C-146.72843715 369.37556102 -143.36296324 363.85863504 -140.00115967 358.3392334 C-134.88315339 349.93242402 -129.78915696 341.51139924 -124.734375 333.06640625 C-118.23202284 322.20296667 -111.65409718 311.38555201 -105.07739258 300.56704712 C-102.09713875 295.66437896 -99.12000019 290.759826 -96.14428711 285.85440063 C-94.33390735 282.87024992 -92.52250799 279.88672961 -90.70849609 276.90478516 C-87.62368798 271.83304084 -84.54468442 266.75846695 -81.50390625 261.66015625 C-71.55823585 245.03734563 -61.62024967 230.80430599 -42.23706055 225.02334595 C-37.10744208 223.76844891 -32.07853138 223.75902664 -26.8203125 223.74755859 C-25.7560051 223.73751297 -24.69169769 223.72746735 -23.59513855 223.71711731 C-20.0998892 223.68638607 -16.6047161 223.66927802 -13.109375 223.65234375 C-10.67699533 223.63362403 -8.24462209 223.61405002 -5.81225586 223.59365845 C0.57285764 223.54241633 6.95799217 223.50274813 13.34320068 223.46551514 C19.8655718 223.42542587 26.387856 223.37435598 32.91015625 223.32421875 C45.69525029 223.22755321 58.48039426 223.14274522 71.265625 223.06640625 C69.82367894 219.38368334 68.20281919 215.97556196 66.28125 212.515625 C65.683125 211.43732422 65.085 210.35902344 64.46875 209.24804688 C63.81793212 208.08320827 63.16688439 206.91849806 62.515625 205.75390625 C62.01675781 204.85828979 62.01675781 204.85828979 61.5078125 203.94458008 C56.30463877 194.60443639 50.96229891 185.35253268 45.54248047 176.13623047 C40.46432958 167.47383821 35.58614351 158.70701193 30.72827148 149.91967773 C25.53645403 140.53288795 20.2411392 131.20992703 14.89794922 121.90869141 C12.06664841 116.97868781 9.24071996 112.04561148 6.41741943 107.11102295 C5.73469435 105.91776577 5.05179326 104.72460928 4.36871338 103.53155518 C-1.14696098 93.89520598 -6.59113068 84.22118181 -11.95458984 74.49902344 C-19.71982049 59.63003781 -19.71982049 59.63003781 -31.984375 48.75390625 C-42.26252708 46.18436823 -49.64519306 48.79578456 -56.2902832 57.00878906 Z " fill="#0A5797" transform="translate(519.734375,95.93359375)"/>
<path d="M0 0 C1.18984497 -0.00350464 2.37968994 -0.00700928 3.60559082 -0.01062012 C6.85221277 -0.01788697 10.09867016 -0.01621905 13.34528947 -0.00986195 C16.76768707 -0.00476148 20.19007446 -0.00950574 23.61247253 -0.01263428 C29.36976054 -0.01626762 35.12699716 -0.0114971 40.88427734 -0.00195312 C47.49038161 0.00887327 54.09636183 0.00544592 60.70246297 -0.00560594 C66.41074026 -0.01476546 72.11898077 -0.01592064 77.82726306 -0.0107286 C81.21981652 -0.00764859 84.61231233 -0.00708641 88.00486183 -0.01380157 C124.37636032 -0.06314868 159.36032492 2.61980899 187.04370117 29.00878906 C200.97688852 43.30920771 206.85114895 61.63256009 207.29370117 81.25878906 C206.90802836 98.37930822 202.77435135 114.70058162 191.91870117 128.25878906 C191.3231543 129.01804687 190.72760742 129.77730469 190.11401367 130.55957031 C183.13683559 138.94086929 174.38723668 144.99849156 164.91870117 150.25878906 C165.85069336 150.68289063 166.78268555 151.10699219 167.74291992 151.54394531 C188.01683896 160.83481946 210.19535507 171.89771402 218.64233398 194.16650391 C226.31246208 216.19606666 226.98075372 240.81838558 217.35620117 262.38769531 C206.27234144 284.5252956 187.56693757 297.81390773 164.73120117 306.00878906 C147.92011359 311.29686762 130.58079344 313.39889443 113.02050781 313.43579102 C111.63640681 313.44206882 110.25230744 313.44871674 108.86820984 313.45570374 C104.35510393 313.4765766 99.8419983 313.48708502 95.32885742 313.49707031 C93.76735353 313.50112308 92.2058498 313.50524015 90.64434624 313.50942039 C83.31021517 313.52842911 75.97609394 313.5426734 68.64194304 313.55103236 C60.20372962 313.56081198 51.765778 313.58716842 43.32765681 313.62753326 C36.78384662 313.65775327 30.24011132 313.67250648 23.69623274 313.67581338 C19.79694812 313.67815552 15.8979446 313.68700774 11.99873543 313.71227455 C8.33040157 313.73566656 4.66253184 313.73974442 0.99414253 313.72951317 C-0.97913485 313.7287872 -2.95238928 313.74779549 -4.92556763 313.76757812 C-14.20684786 313.71367197 -21.91560912 312.39238596 -28.95629883 306.00878906 C-36.65074783 297.53400679 -37.23128751 288.62713562 -37.22174072 277.62005615 C-37.22471184 276.54801099 -37.22768297 275.47596583 -37.23074412 274.37143445 C-37.23941633 270.77886505 -37.24093812 267.18632903 -37.24243164 263.59375 C-37.24706082 261.01798939 -37.25208562 258.44222946 -37.25747681 255.86647034 C-37.27103596 248.86844522 -37.27708093 241.87042586 -37.28148746 234.87238979 C-37.28425369 230.49993964 -37.28849171 226.12749169 -37.29299164 221.75504303 C-37.3051806 209.64046238 -37.31548101 197.52588349 -37.31886673 185.41129684 C-37.3190863 184.63654143 -37.31930586 183.86178602 -37.31953208 183.06355317 C-37.31975036 182.28698504 -37.31996864 181.51041691 -37.32019353 180.71031642 C-37.32063699 179.13679298 -37.32108355 177.56326953 -37.3215332 175.98974609 C-37.32175463 175.20923052 -37.32197606 174.42871495 -37.3222042 173.62454739 C-37.3261515 160.97989884 -37.34360512 148.33530795 -37.36689273 135.69068167 C-37.39062835 122.69755855 -37.40306957 109.70446435 -37.40423465 96.71131921 C-37.40515011 89.42058943 -37.41086994 82.1299348 -37.42905426 74.83922577 C-37.44610096 67.98066903 -37.44769137 61.12225696 -37.43891525 54.26368523 C-37.43814479 51.74906215 -37.44248871 49.23443142 -37.4523735 46.71982765 C-37.46509472 43.28153461 -37.45921474 39.84374635 -37.4487915 36.40545654 C-37.45684791 35.41535827 -37.46490431 34.42526 -37.47320485 33.40515876 C-37.40252202 23.40482095 -35.26633242 14.54113688 -28.08129883 7.25878906 C-19.63110755 0.38316759 -10.49005 -0.03825204 0 0 Z M17.91870117 50.25878906 C17.91870117 77.31878906 17.91870117 104.37878906 17.91870117 132.25878906 C31.13932617 132.30003906 44.35995117 132.34128906 57.98120117 132.38378906 C64.19782593 132.41110107 64.19782593 132.41110107 70.54003906 132.43896484 C74.31859424 132.44566169 74.31859424 132.44566169 78.09715271 132.44967651 C79.75483785 132.45270864 81.41251914 132.4596595 83.07017517 132.46994019 C103.7659215 132.59165898 126.19751202 131.63061845 141.91870117 116.25878906 C149.95397154 106.52980974 152.03122963 95.66657168 150.91870117 83.25878906 C149.38564855 74.32875756 145.22162377 66.57299067 138.04370117 60.94628906 C126.15709637 52.8121663 113.13477826 50.08241028 98.86230469 50.14526367 C97.98346115 50.14511765 97.10461761 50.14497162 96.19914246 50.14482117 C93.3152717 50.14551379 90.4314668 50.15327558 87.54760742 50.16113281 C85.53979019 50.1629993 83.53197251 50.16442212 81.52415466 50.16542053 C76.25524627 50.16922751 70.98636571 50.17904219 65.71746826 50.19012451 C59.38726629 50.20218249 53.05705497 50.20674954 46.72684479 50.21257782 C37.12411093 50.22225497 27.52143806 50.24142426 17.91870117 50.25878906 Z M17.91870117 179.25878906 C17.91870117 207.30878906 17.91870117 235.35878906 17.91870117 264.25878906 C34.76830394 264.31706969 34.76830394 264.31706969 51.61791992 264.35644531 C58.50157804 264.36834846 65.38518237 264.38234959 72.26879883 264.40966797 C77.82554204 264.43157965 83.3822275 264.4433959 88.93901062 264.44854355 C91.04702156 264.45220669 93.15502975 264.45935868 95.26301575 264.47024918 C116.96486327 264.57779277 140.82663331 264.60736894 158.08276367 249.34472656 C166.96804811 239.85448659 168.39023197 229.2738448 168.20385742 216.76660156 C167.97993564 211.33171606 166.6196556 206.976081 163.91870117 202.25878906 C163.34120117 201.20691406 162.76370117 200.15503906 162.16870117 199.07128906 C151.99067048 186.3487507 136.5324005 181.57549265 120.79530334 179.71607971 C115.8215647 179.18660154 110.89873049 179.12493748 105.90087891 179.14526367 C104.94371475 179.14511765 103.9865506 179.14497162 103.00038147 179.14482117 C99.8676621 179.14551235 96.73500378 179.15326722 93.60229492 179.16113281 C91.41797417 179.16299982 89.23365299 179.16442239 87.04933167 179.16542053 C81.32342353 179.16922346 75.5975411 179.17903459 69.87164307 179.19012451 C62.98906739 179.20219355 56.10648309 179.20675147 49.22389984 179.21257782 C38.78881579 179.22224765 28.35378804 179.24141977 17.91870117 179.25878906 Z " fill="#0A5797" transform="translate(1399.081298828125,174.7412109375)"/>
<path d="M0 0 C7.41868355 4.33052341 12.3683456 9.59538578 16.2890625 17.2265625 C16.80099655 18.20599571 16.80099655 18.20599571 17.32327271 19.20521545 C20.77537535 25.90122698 23.85099833 32.75545915 26.86117554 39.65890503 C28.21331999 42.75940649 29.57881295 45.85397819 30.94346619 48.94898987 C31.66693644 50.58986909 32.38980064 52.23101565 33.11207581 53.87242126 C37.2322211 63.2286381 41.43393085 72.54787974 45.63671875 81.8671875 C46.78144078 84.40745727 47.92592776 86.94783285 49.07038879 89.48822021 C49.81298229 91.13656813 50.55564697 92.78488399 51.29838562 94.4331665 C56.18340146 105.27548685 61.04377538 116.12883324 65.90478516 126.98193359 C68.58496567 132.96509976 71.26722553 138.94733373 73.94921875 144.9296875 C75.03256142 147.34634998 76.11589477 149.76301664 77.19921875 152.1796875 C78.00359375 153.9740625 78.00359375 153.9740625 78.82421875 155.8046875 C94.26171875 190.2421875 94.26171875 190.2421875 109.69921875 224.6796875 C110.5046814 226.47623779 110.5046814 226.47623779 111.32641602 228.30908203 C112.40293051 230.71087381 113.47894472 233.11288988 114.55444336 235.51513672 C117.06610639 241.12361589 119.58233667 246.72980251 122.11721802 252.32781982 C123.30006408 254.94085732 124.47996882 257.55521828 125.65966797 260.16967773 C126.4825056 261.99005863 127.30953584 263.80854261 128.13671875 265.62695312 C138.48895482 288.5836293 138.48895482 288.5836293 134.41796875 301.00390625 C131.58875815 308.08834086 127.20025102 312.01180087 120.44921875 315.4296875 C113.00984937 317.90947729 102.95700849 317.68856287 95.82421875 314.3671875 C89.06722004 310.74475318 84.90834495 304.20852356 81.88671875 297.3671875 C81.56646729 296.66601807 81.24621582 295.96484863 80.91625977 295.24243164 C76.03471846 284.45585441 71.39385861 273.55672977 66.71624756 262.6804657 C65.18157325 259.11614037 63.63112964 255.55949646 62.05859375 252.01171875 C61.72545166 251.25963135 61.39230957 250.50754395 61.04907227 249.73266602 C60.20977018 247.84406788 59.36677896 245.95711034 58.5234375 244.0703125 C57.44921875 241.4296875 57.44921875 241.4296875 57.44921875 239.4296875 C7.61921875 239.4296875 -42.21078125 239.4296875 -93.55078125 239.4296875 C-94.54078125 242.3996875 -94.54078125 242.3996875 -95.55078125 245.4296875 C-96.11355749 246.82489249 -96.69651092 248.21219913 -97.30322266 249.58886719 C-97.6376236 250.35116638 -97.97202454 251.11346558 -98.31655884 251.89886475 C-98.67486786 252.708255 -99.03317688 253.51764526 -99.40234375 254.3515625 C-99.78006927 255.21042053 -100.1577948 256.06927856 -100.54696655 256.9541626 C-101.75407612 259.69711115 -102.96489822 262.43840299 -104.17578125 265.1796875 C-104.96638369 266.9751557 -105.75675031 268.77072776 -106.546875 270.56640625 C-108.11025062 274.11812217 -109.67796931 277.66787488 -111.2487793 281.21630859 C-112.77804858 284.67238055 -114.29409755 288.13380507 -115.80004883 291.60009766 C-116.33684769 292.82783905 -116.33684769 292.82783905 -116.88449097 294.0803833 C-117.5543401 295.61248609 -118.2201821 297.14634998 -118.88113403 298.68231201 C-121.97700527 305.73409341 -125.63560272 311.1139915 -132.48828125 314.9296875 C-139.87019505 317.77083646 -150.78187208 318.13717901 -158.11328125 314.9296875 C-164.17657634 311.12000651 -168.97969665 305.33851552 -171.11328125 298.484375 C-173.79810639 285.87528551 -166.69448816 274.2247926 -161.61328125 263.0546875 C-161.03863901 261.78339446 -160.46442983 260.5119056 -159.890625 259.24023438 C-158.70234539 256.60764315 -157.5122382 253.97589007 -156.32080078 251.34472656 C-153.54669263 245.21420345 -150.80038356 239.07123267 -148.05078125 232.9296875 C-146.96757425 230.5129642 -145.88424061 228.09629767 -144.80078125 225.6796875 C-144.26453125 224.4834375 -143.72828125 223.2871875 -143.17578125 222.0546875 C-119.88411458 170.09635417 -96.59244792 118.13802083 -73.30078125 66.1796875 C-72.495802 64.38301636 -72.495802 64.38301636 -71.67456055 62.55004883 C-70.5972047 60.14798751 -69.51795807 57.74677329 -68.43676758 55.34643555 C-65.91750401 49.74743791 -63.41695088 44.14355386 -60.9859314 38.50576782 C-59.85170015 35.87871442 -58.70628578 33.25660322 -57.56005859 30.63476562 C-56.76745187 28.80936833 -55.99083112 26.97705527 -55.21484375 25.14453125 C-49.64645806 12.43756235 -42.8052721 3.6359143 -29.7890625 -1.703125 C-20.57905885 -4.1694951 -8.72949301 -3.87680394 0 0 Z M-18.55078125 66.4296875 C-26.36681266 83.32058229 -33.75338983 100.38542183 -41.11784363 117.47619629 C-45.75926847 128.24182018 -50.4372063 138.99158122 -55.11328125 149.7421875 C-55.95427161 151.67642912 -56.79525485 153.61067384 -57.63623047 155.54492188 C-58.2416568 156.93685257 -58.2416568 156.93685257 -58.85931396 158.35690308 C-59.64635425 160.16657331 -60.43302569 161.97640401 -61.21929932 163.78640747 C-63.03069361 167.95286723 -64.85091298 172.11490726 -66.69482422 176.26708984 C-67.02481918 177.01258591 -67.35481415 177.75808197 -67.69480896 178.52616882 C-68.30759633 179.90876383 -68.92334818 181.29005027 -69.5426178 182.66975403 C-71.05948148 185.92440732 -71.05948148 185.92440732 -71.55078125 189.4296875 C-36.24078125 189.4296875 -0.93078125 189.4296875 35.44921875 189.4296875 C34.27058826 185.89379602 33.17659668 182.62795947 31.70361328 179.25585938 C31.36714279 178.4820845 31.0306723 177.70830963 30.68400574 176.91108704 C30.32035416 176.08191269 29.95670258 175.25273834 29.58203125 174.3984375 C29.19521683 173.51073166 28.8084024 172.62302582 28.40986633 171.7084198 C27.13369418 168.78113227 25.85395111 165.85542014 24.57421875 162.9296875 C23.67820215 160.8761734 22.7824544 158.82254197 21.88696289 156.76879883 C20.01857662 152.48426396 18.14901968 148.20024252 16.27880859 143.91650391 C13.53338373 137.62560742 10.79649392 131.33102769 8.0625 125.03515625 C7.62897217 124.03687805 7.19544434 123.03859985 6.7487793 122.0100708 C5.88632507 120.02407129 5.02387789 118.03806872 4.16143799 116.05206299 C-3.03137748 99.49153957 -10.24560792 82.94102778 -17.55078125 66.4296875 C-17.88078125 66.4296875 -18.21078125 66.4296875 -18.55078125 66.4296875 Z " fill="#0A5797" transform="translate(1040.55078125,173.5703125)"/>
<path d="M0 0 C5.88619648 4.6736841 10.06543574 10.77600618 11.26821899 18.29669189 C11.40940866 21.16206205 11.40000921 23.98382888 11.32421875 26.8515625 C11.31714401 27.88062714 11.31006927 28.90969177 11.30278015 29.96994019 C11.27504391 33.22031875 11.21234442 36.46890213 11.1484375 39.71875 C11.12332781 41.93747492 11.10051935 44.15622715 11.08007812 46.375 C11.0252861 51.78185079 10.94187214 57.1876721 10.8359375 62.59375 C11.41507904 62.58264694 11.99422058 62.57154388 12.59091187 62.56010437 C18.65859438 62.44885696 24.72598381 62.37381379 30.79443359 62.3190918 C33.05431907 62.29406091 35.31412452 62.26002562 37.57373047 62.21655273 C40.83581369 62.15539767 44.09681995 62.12742498 47.359375 62.10546875 C48.85686783 62.06675911 48.85686783 62.06675911 50.38461304 62.02726746 C58.24163197 62.02417735 64.92423889 63.94892669 70.78329468 69.4082489 C76.40869539 75.51501019 77.30631333 81.20634094 77.140625 89.37109375 C76.41292164 97.06795622 72.66135251 101.25194393 66.93359375 106.1484375 C63.00997955 108.85185883 59.50926177 109.84529173 54.77026367 109.82080078 C53.78962448 109.82064972 52.80898529 109.82049866 51.79862976 109.82034302 C50.752621 109.81002045 49.70661224 109.79969788 48.62890625 109.7890625 C47.00810905 109.78481766 47.00810905 109.78481766 45.35456848 109.78048706 C41.91074449 109.76931132 38.46718261 109.74421118 35.0234375 109.71875 C32.68555064 109.70871685 30.34765969 109.69959158 28.00976562 109.69140625 C22.28506715 109.6693805 16.56052105 109.63592868 10.8359375 109.59375 C10.89664859 124.90228799 10.97427196 140.21067688 11.07165241 155.5190239 C11.11648691 162.62806458 11.15592947 169.73705655 11.18237305 176.84619141 C11.20545375 183.04747627 11.23896259 189.24860535 11.28463906 195.4497664 C11.30843676 198.72876953 11.32569663 202.00758898 11.33355141 205.2866745 C11.34323882 208.96055209 11.37135472 212.63387716 11.40356445 216.30761719 C11.40212936 217.37721176 11.40069427 218.44680634 11.3992157 219.54881287 C11.51115114 228.63513872 12.40705538 238.85824494 18.3125 246.1953125 C23.84420643 251.27313533 30.49114018 252.77378131 37.78125 252.515625 C38.94140625 252.48984375 40.1015625 252.4640625 41.296875 252.4375 C43.71661502 252.37558768 46.13600658 252.29776904 48.5546875 252.203125 C56.36746224 252.06515105 62.40006914 252.9174436 68.8359375 257.59375 C74.95657547 264.15342108 76.20831522 269.39225559 76.109375 278.296875 C75.59493121 284.49959724 73.19551548 288.55986196 68.7734375 292.84375 C53.06809446 305.07006135 27.01479368 304.0706185 8.34863281 302.36669922 C-7.73031715 300.30687892 -20.87024217 293.42196427 -31.31640625 281.0859375 C-43.3308131 264.8804585 -44.33765093 244.8205457 -44.27758789 225.38964844 C-44.27773392 224.12968552 -44.27787994 222.8697226 -44.2780304 221.57157898 C-44.27831425 218.1570945 -44.2724848 214.74264602 -44.26545644 211.32816982 C-44.25915367 207.74476243 -44.25861367 204.16135398 -44.25743103 200.57794189 C-44.25433795 193.81034232 -44.24615216 187.04275914 -44.23608154 180.27516675 C-44.22485716 172.56282467 -44.2193941 164.85048176 -44.21438611 157.13813353 C-44.20396759 141.28999623 -44.18640781 125.44187524 -44.1640625 109.59375 C-45.19394287 109.61187744 -46.22382324 109.63000488 -47.28491211 109.64868164 C-48.64957238 109.6633428 -50.01423746 109.67756098 -51.37890625 109.69140625 C-52.39470764 109.71104431 -52.39470764 109.71104431 -53.43103027 109.7310791 C-60.05445808 109.78145504 -63.98247536 108.41047623 -68.8671875 104.0859375 C-73.814991 98.92196782 -75.78670769 93.11572822 -76.5390625 86.09375 C-75.78310823 79.03817682 -73.7887055 72.29453859 -68.1640625 67.59375 C-62.52147469 63.53881047 -57.75698544 62.32237045 -50.81640625 62.4609375 C-48.94263306 62.48969971 -48.94263306 62.48969971 -47.03100586 62.51904297 C-46.08491455 62.54369629 -45.13882324 62.56834961 -44.1640625 62.59375 C-44.17453613 61.36857666 -44.18500977 60.14340332 -44.19580078 58.88110352 C-44.23221227 54.3020321 -44.25503947 49.72297328 -44.27392578 45.14379883 C-44.2839354 43.16819094 -44.29754719 41.19259769 -44.31494141 39.21704102 C-44.33941259 36.36470918 -44.35059626 33.51257453 -44.359375 30.66015625 C-44.36969757 29.78790909 -44.38002014 28.91566193 -44.39065552 28.01698303 C-44.39242254 18.18896436 -42.87506726 10.94849622 -36.1640625 3.59375 C-26.48184657 -6.08846593 -11.50519169 -7.47629785 0 0 Z " fill="#0A5797" transform="translate(1860.1640625,189.40625)"/>
<path d="M0 0 C0.07028445 18.40307116 0.12308295 36.80610716 0.15543652 55.20928383 C0.17086249 63.75545379 0.19186968 72.30154004 0.22631836 80.84765625 C0.25635219 88.30212094 0.27560598 95.75652496 0.28226548 103.21104848 C0.28615422 107.15302954 0.29520263 111.09483713 0.31719017 115.03676224 C0.33777715 118.75826715 0.34378974 122.47952959 0.33932304 126.20108604 C0.34052289 128.19513951 0.35654741 130.18916746 0.3732605 132.18315125 C0.33488695 143.55816616 -1.15572383 154.93811606 -6.5 165.125 C-6.84184326 165.78822266 -7.18368652 166.45144531 -7.53588867 167.13476562 C-15.62911128 182.05400855 -29.08851528 192.45577161 -45 198 C-45.66257812 198.23460937 -46.32515625 198.46921875 -47.0078125 198.7109375 C-62.93082468 203.46716192 -80.99728523 201.1712915 -95.62109375 193.65234375 C-109.92155461 185.48998024 -117.78053772 173.27421114 -126.25 159.5 C-127.56731192 157.37475423 -128.88502473 155.24975691 -130.203125 153.125 C-130.84701172 152.08472656 -131.49089844 151.04445313 -132.15429688 149.97265625 C-134.74528602 145.79965575 -137.37005331 141.64851581 -140 137.5 C-147.70012068 125.33336761 -155.31258597 113.11190841 -162.93652344 100.89746094 C-164.85311814 97.82722552 -166.77015674 94.757268 -168.6875 91.6875 C-169.3072168 90.69516357 -169.92693359 89.70282715 -170.56542969 88.68041992 C-174.5436717 82.31533779 -178.54641462 75.96625401 -182.5625 69.625 C-194 51.53394529 -194 51.53394529 -194 49 C-143.36608982 42.9884538 -143.36608982 42.9884538 -131.33251953 51.88867188 C-124.10073583 58.68199232 -119.91905665 68.11210883 -115.85566711 77.01115417 C-111.47550801 86.56016658 -105.60950949 94.93432743 -99.59249878 103.51220703 C-97.32961295 106.75435634 -95.11897906 110.02993176 -92.91270447 113.3107605 C-91.34791803 115.63654331 -89.77375827 117.95573376 -88.19775391 120.27392578 C-85.93845772 123.60180681 -83.70663234 126.94660677 -81.48583984 130.30029297 C-80.32790362 132.03229619 -79.16986619 133.76423176 -78.01171875 135.49609375 C-77.48302689 136.30409927 -76.95433502 137.1121048 -76.40962219 137.94459534 C-73.24613002 142.64824487 -70.59328394 146.25009726 -64.75390625 147.46875 C-60.76603438 147.52561805 -57.8348878 147.36772917 -54.5625 144.9375 C-48.80384446 138.33611438 -49.69580875 130.2351206 -49.68115234 121.90454102 C-49.67110672 120.59654037 -49.6610611 119.28853973 -49.65071106 117.94090271 C-49.62351476 114.37119545 -49.60829261 110.80152742 -49.59528303 107.23174405 C-49.57960687 103.49477744 -49.55283105 99.75789042 -49.5272522 96.02098083 C-49.48054357 88.95221693 -49.44376127 81.88343791 -49.41057932 74.81459898 C-49.37230186 66.76375457 -49.3229065 58.71299025 -49.27259517 50.66221344 C-49.16939312 34.10819989 -49.08009475 17.55414183 -49 1 C-46.4191141 1.50031804 -43.90698267 2.02675461 -41.37890625 2.75390625 C-25.17776492 7.40527415 -14.86291718 0 0 0 Z " fill="#49B04F" transform="translate(751,368)"/>
<path d="M0 0 C0.6740387 0.00182281 1.34807739 0.00364563 2.0425415 0.00552368 C38.7566949 0.17190857 75.05321679 12.77407439 101.5625 38.8125 C104.74333504 42.07352416 105.75355909 43.41365118 106.0625 48.125 C105.99258805 52.94892428 104.37755956 55.56685665 101.1875 59.125 C97.43306493 61.00221754 93.92094247 60.93345967 89.8125 60.3125 C86.62747795 58.75387219 84.33524905 56.79861702 81.75 54.39453125 C55.35893911 29.86994342 23.72941343 21.97063294 -11.75878906 23.11279297 C-24.38650782 23.84830094 -36.71588782 26.99384344 -48.1875 32.3125 C-49.26257812 32.80363281 -50.33765625 33.29476562 -51.4453125 33.80078125 C-67.3088617 41.65755089 -78.12878644 53.71248731 -84.2421875 70.33203125 C-87.86073246 81.74091475 -87.0150867 93.37943601 -82.1875 104.3125 C-80.14955988 107.6317193 -77.82791349 110.45769396 -75.1875 113.3125 C-74.68734375 113.90289062 -74.1871875 114.49328125 -73.671875 115.1015625 C-58.80798665 131.54192385 -33.89855737 139.68539161 -13.6875 147.3125 C9.62588498 156.11034323 32.6790774 165.7671884 50.8125 183.3125 C51.74642578 184.11880859 51.74642578 184.11880859 52.69921875 184.94140625 C62.69070307 193.90006298 69.15618553 208.38514454 69.95532227 221.69042969 C70.87531303 247.48781769 64.89560756 267.21495404 47.47265625 286.96484375 C25.83772994 309.7218408 -7.2203519 321.38990362 -38.1875 322.3125 C-39.43015625 322.35246094 -40.6728125 322.39242188 -41.953125 322.43359375 C-82.35199982 323.28135838 -121.83855827 312.5897294 -151.8046875 284.6015625 C-152.59101563 283.84617187 -153.37734375 283.09078125 -154.1875 282.3125 C-155.52167969 281.05566406 -155.52167969 281.05566406 -156.8828125 279.7734375 C-168.19609294 268.85595696 -168.19609294 268.85595696 -168.75 260.75 C-168.58133761 257.56717742 -168.03495304 255.42398447 -166.1875 252.8125 C-162.48588629 249.72782191 -159.95230835 248.93508944 -155.1875 249.3125 C-148.45763447 251.41558298 -143.48261385 257.34564551 -139.265625 262.796875 C-135.52537018 267.32455189 -130.80682495 270.72244745 -126.1875 274.3125 C-125.40246094 274.92480469 -124.61742188 275.53710938 -123.80859375 276.16796875 C-95.78112239 296.89217346 -58.31844742 302.74047195 -24.3515625 298 C-2.46514372 294.58754677 20.12630757 284.79055873 33.5625 266.5 C42.03289837 253.61793582 46.55247526 238.97141094 44.1875 223.5625 C40.84302211 208.27682288 31.53687275 198.82536898 18.90429688 190.62744141 C3.4897975 180.93760788 -13.35379794 174.38859599 -30.14160156 167.51708984 C-52.18859891 158.48839115 -74.10938197 149.24006124 -92.1875 133.3125 C-93.13496094 132.48878906 -93.13496094 132.48878906 -94.1015625 131.6484375 C-106.35133363 120.26208636 -111.06837777 105.23158279 -112.375 88.98046875 C-113.00202379 67.85760471 -104.74362003 48.9143071 -90.51464844 33.66235352 C-76.01910701 18.6238435 -58.57729723 9.94022833 -38.625 4.5625 C-37.89466553 4.36382324 -37.16433105 4.16514648 -36.41186523 3.96044922 C-24.39039267 0.88626088 -12.37632726 -0.05347317 0 0 Z " fill="#49B04F" transform="translate(2268.1875,170.6875)"/>
<path d="M0 0 C1.2065625 0.32871094 2.413125 0.65742188 3.65625 0.99609375 C28.01925601 8.2697598 47.55350174 24.46058644 59.87231445 46.64624023 C74.44751184 74.3893067 74.65332778 107.90679047 65.6796875 137.43359375 C58.7109178 159.1012379 46.86082797 177.78301572 31 194 C30.26265625 194.78761719 29.5253125 195.57523438 28.765625 196.38671875 C6.11442923 220.07127199 -27.2978085 234.81718337 -60 236 C-90.05734063 236.46224284 -116.04925 227.95298864 -138 207 C-138.61359375 206.46117187 -139.2271875 205.92234375 -139.859375 205.3671875 C-157.08731017 189.64076962 -164.80803482 163.47488581 -166.12109375 140.91992188 C-167.85773796 102.60955065 -152.51172836 67.28999091 -127.0625 39.25 C-121.81260882 33.5960772 -116.17241936 28.64077889 -110 24 C-109.22527344 23.40960938 -108.45054687 22.81921875 -107.65234375 22.2109375 C-77.60511689 0.2398434 -36.50923321 -10.9439085 0 0 Z M-100 45 C-100.54366211 45.4959668 -101.08732422 45.99193359 -101.64746094 46.50292969 C-124.40245913 67.48118513 -139.88453376 96.43242707 -141.3203125 127.71484375 C-141.92401716 149.63950174 -137.81547133 168.84474894 -125 187 C-124.55140625 187.63550781 -124.1028125 188.27101563 -123.640625 188.92578125 C-112.4342161 203.26339264 -94.13100312 210.59111351 -76.74609375 213.5546875 C-49.16952978 216.83281919 -23.15078741 209.42293829 -1.15820312 192.59033203 C2.69027229 189.53056425 6.36559529 186.31008814 10 183 C10.66257812 182.40832031 11.32515625 181.81664062 12.0078125 181.20703125 C33.02414928 161.41257452 46.09358902 131.29179031 47.12109375 102.62109375 C47.52396366 79.51531963 42.08696223 56.78800962 25.8918457 39.6105957 C10.49351026 24.17445554 -10.60816435 18.11021915 -32 17.625 C-57.31272948 18.22293849 -81.33544905 27.80758265 -100 45 Z " fill="#49B04F" transform="translate(2561,258)"/>
<path d="M0 0 C6.99522371 5.8770281 11.05842908 12.23159708 11.91175914 21.45482504 C11.98749412 23.55367352 12.00292395 25.6439069 11.99398804 27.74409485 C11.99851915 28.53946173 12.00305026 29.33482862 12.00771868 30.15429753 C12.02029981 32.79864481 12.01874641 35.44278446 12.01708984 38.0871582 C12.023079 39.99165103 12.02988544 41.89614143 12.03744507 43.80062866 C12.05507224 48.95983294 12.05979905 54.11897082 12.06107664 59.2782023 C12.06250059 62.50524535 12.0667748 65.73227165 12.07207108 68.95931053 C12.09056008 80.2280115 12.09874305 91.49666523 12.09716797 102.76538086 C12.09596669 113.25251826 12.11706927 123.73944982 12.1486553 134.22653514 C12.17484565 143.24506256 12.18553411 152.26352285 12.18425715 161.28208798 C12.18374836 166.66193619 12.18938602 172.04160135 12.21061325 177.42141151 C12.23004224 182.483391 12.23008822 187.54501366 12.21557999 192.60700607 C12.21349662 194.4584512 12.21816448 196.30991894 12.2303009 198.16132545 C12.36726261 220.5129042 12.36726261 220.5129042 4.5390625 229.390625 C-2.9645431 235.94839796 -10.60355695 237.35051806 -20.38671875 236.8984375 C-28.32223275 235.98924293 -33.91133013 232.64344328 -39.01953125 226.58984375 C-42.62207219 220.45093442 -43.71668695 214.9287211 -43.65438843 207.95214844 C-43.6590684 207.13424709 -43.66374837 206.31634575 -43.66857016 205.47365952 C-43.68046598 202.75310444 -43.6710843 200.03305816 -43.66162109 197.3125 C-43.6656892 195.35387886 -43.67103242 193.39526002 -43.67755127 191.43664551 C-43.69120216 186.1309087 -43.68593537 180.82534733 -43.67641401 175.51960754 C-43.66880591 169.96065812 -43.67586623 164.40172347 -43.68057251 158.84277344 C-43.6860267 149.50843618 -43.67884725 140.17417018 -43.66455078 130.83984375 C-43.64822495 120.05615909 -43.65351369 109.27264461 -43.67003 98.48896408 C-43.68365442 89.22164836 -43.68555983 79.95438381 -43.67771399 70.68706131 C-43.67304275 65.15588848 -43.67239756 59.62479559 -43.68232346 54.09362793 C-43.69100472 48.89298049 -43.68494989 43.69255195 -43.66764069 38.4919281 C-43.66368206 36.58601749 -43.66479918 34.68008838 -43.67142868 32.77418518 C-43.67965898 30.16724395 -43.6693049 27.56099877 -43.65438843 24.95410156 C-43.66108059 24.20467159 -43.66777276 23.45524162 -43.67466772 22.68310165 C-43.58433301 14.51161569 -40.80409515 8.20427139 -35.23828125 2.21484375 C-25.71976952 -6.31964689 -10.57440746 -7.19495766 0 0 Z " fill="#0A5797" transform="translate(1275.2734375,253.546875)"/>
<path d="M0 0 C7.04795224 7.27142389 8.75344289 14.83979629 8.74200439 24.63397217 C8.74497552 25.43227046 8.74794664 26.23056876 8.7510078 27.05305791 C8.75967191 29.72516125 8.76120111 32.39721967 8.76269531 35.06933594 C8.7673251 36.98648168 8.77234997 38.90362651 8.77774048 40.82077026 C8.79085084 46.02752365 8.79730676 51.23426415 8.80175114 56.44103146 C8.80468401 59.6953416 8.80878922 62.94964823 8.81325531 66.2039566 C8.82692653 76.3898545 8.83659508 86.57574437 8.8404572 96.7616508 C8.84493744 108.51256668 8.86248539 120.2633662 8.8914578 132.0142467 C8.91308576 141.10231347 8.92316208 150.19034753 8.92449832 159.27843976 C8.92554553 164.70407158 8.93143551 170.12959398 8.94931793 175.55519867 C8.96581786 180.66057674 8.96794473 185.76576334 8.95917892 190.8711586 C8.95840959 192.74117928 8.96273759 194.61121035 8.97263718 196.48120499 C9.08012253 218.05621323 9.08012253 218.05621323 2.1953125 227.08203125 C-4.42820452 233.60814361 -12.38069203 234.93786992 -21.27075195 234.97363281 C-26.95427182 234.87851114 -30.8414534 233.98870711 -35.3984375 230.65234375 C-36.2853125 230.09546875 -37.1721875 229.53859375 -38.0859375 228.96484375 C-44.00841627 223.04236498 -46.49575858 216.23864953 -46.5415051 207.99570066 C-46.54063862 207.24308334 -46.53977213 206.49046602 -46.53887939 205.71504211 C-46.54185052 204.90943114 -46.54482164 204.10382017 -46.5478828 203.27379674 C-46.55656295 200.57094839 -46.55807747 197.86814438 -46.55957031 195.1652832 C-46.56419901 193.22858078 -46.56922375 191.29187928 -46.57461548 189.35517883 C-46.58773753 184.09051684 -46.59418421 178.82586759 -46.59862614 173.5611918 C-46.60155753 170.2712075 -46.60566249 166.98122667 -46.61013031 163.69124413 C-46.6238055 153.39535199 -46.63347172 143.09946782 -46.6373322 132.80356723 C-46.6418114 120.92303069 -46.65935285 109.0426093 -46.6883328 97.16210777 C-46.70996057 87.97639745 -46.72003709 78.79071949 -46.72137332 69.60498399 C-46.72242067 64.12009295 -46.72831361 58.63531014 -46.74619293 53.15044594 C-46.76269221 47.98844823 -46.76482004 42.82663988 -46.75605392 37.66462517 C-46.75528451 35.77364214 -46.75961357 33.88264886 -46.76951218 31.99169159 C-46.78226749 29.40242529 -46.7763356 26.81382608 -46.76593018 24.2245636 C-46.77398658 23.48309989 -46.78204298 22.74163618 -46.79034352 21.97770387 C-46.71102931 13.49046173 -44.18651989 6.5591722 -38.36328125 0.37890625 C-27.69211147 -8.99814553 -11.08472097 -8.64187962 0 0 Z " fill="#0A5797" transform="translate(1727.3984375,255.34765625)"/>
<path d="M0 0 C4.6 2.2 4.6 2.2 6 5 C7.09625317 14.37754252 4.48713354 23.06007826 1.99609375 31.98828125 C1.56512018 33.57316208 1.13543315 35.15839323 0.70692444 36.74394226 C-0.21592549 40.14849689 -1.14727273 43.55056495 -2.08544922 46.95092773 C-3.59167926 52.41080059 -5.07862793 57.87581153 -6.5625 63.34179688 C-8.12225352 69.08392142 -9.68324965 74.82569253 -11.25076294 80.56570435 C-14.80721833 93.58995976 -18.32594506 106.62378651 -21.80859375 119.66796875 C-22.16161906 120.9901645 -22.16161906 120.9901645 -22.5217762 122.33907127 C-23.70770914 126.78179097 -24.89285216 131.22472092 -26.0776062 135.66775513 C-28.46392122 144.61563872 -30.85725227 153.56164742 -33.25 162.5078125 C-33.48694014 163.3938447 -33.72388027 164.2798769 -33.96800041 165.19275856 C-37.57738285 178.68986453 -41.19275481 192.18535714 -44.8125 205.6796875 C-45.05034336 206.56645172 -45.28818672 207.45321594 -45.53323746 208.36685181 C-48.10369986 217.95010989 -50.67640188 227.53275993 -53.25341797 237.11425781 C-54.14573459 240.43288178 -55.03780789 243.75157106 -55.9296875 247.0703125 C-56.14621853 247.87596649 -56.36274956 248.68162048 -56.58584213 249.51168823 C-59.4301591 260.09901356 -62.24419682 270.69383062 -65.02669525 281.29756546 C-66.23470237 285.89660672 -67.44978519 290.49378724 -68.66333008 295.09136963 C-69.59558679 298.63809877 -70.51578717 302.1878066 -71.43554688 305.73779297 C-71.99025709 307.84098613 -72.54555584 309.9440242 -73.1015625 312.046875 C-73.33908234 312.98014618 -73.57660217 313.91341736 -73.82131958 314.87496948 C-75.33312319 320.52627164 -76.97661139 325.62448037 -81.75 329.375 C-86.52433336 330.70120371 -90.50875118 330.69803136 -94.9375 328.625 C-97.15301449 326.87944313 -97.863408 325.98764192 -98.24734497 323.21154785 C-98.5586374 314.47852678 -96.04232322 306.4203835 -93.7421875 298.09375 C-93.28617069 296.40667215 -92.83129537 294.7192854 -92.37747192 293.03161621 C-91.40232815 289.41472502 -90.41938697 285.80008061 -89.43017578 282.18701172 C-87.84868737 276.41053926 -86.28446871 270.62947476 -84.72265625 264.84765625 C-82.55409179 256.82511952 -80.37841135 248.80454651 -78.19824219 240.78515625 C-75.23831748 229.89374992 -72.30400691 218.99560184 -69.3828125 208.09375 C-69.15900784 207.25858479 -68.93520317 206.42341957 -68.70461655 205.56294632 C-67.80612872 202.20971702 -66.90781944 198.85643999 -66.00983238 195.50307655 C-64.43939944 189.63871567 -62.86664057 183.77498255 -61.29248047 177.91162109 C-55.25898746 155.43736815 -49.24182817 132.95877953 -43.23332691 110.47783279 C-41.51893249 104.06416391 -39.80234672 97.65108432 -38.0847168 91.23828125 C-37.14360538 87.72398833 -36.20262196 84.20966117 -35.26171875 80.6953125 C-35.03380835 79.84414101 -34.80589794 78.99296951 -34.57108116 78.11600494 C-31.90114504 68.14221488 -29.24587532 58.16479353 -26.61868286 48.17965698 C-25.31746929 43.23416503 -24.00717532 38.29108407 -22.6965332 33.3480835 C-22.11592914 31.14917187 -21.53930396 28.94920504 -20.96704102 26.74810791 C-20.20274667 23.80852758 -19.42526683 20.87274847 -18.64453125 17.9375 C-18.43206253 17.10443329 -18.21959381 16.27136658 -18.00068665 15.41305542 C-16.45528822 9.68160847 -14.42954063 4.96989781 -9.6875 1.125 C-6.20647239 -0.33217435 -3.74471902 -0.40121989 0 0 Z " fill="#49B04F" transform="translate(2760,160)"/>
<path d="M0 0 C9.62061965 10.50842851 12.97078365 21.90463364 12.37890625 35.87890625 C11.50211934 47.82134862 5.83755835 57.70416247 -2.8125 65.8125 C-13.16388809 74.28545087 -24.82907092 77.07930789 -38 76 C-50.31143703 73.87332802 -61.23063942 67.67991136 -68.79296875 57.61328125 C-76.25449188 45.87750289 -77.87678875 33.19839923 -75.37890625 19.625 C-71.79475331 7.39109129 -63.95488789 -1.68044562 -53 -8 C-34.58073178 -16.52789807 -15.07368538 -13.58915576 0 0 Z " fill="#49B04F" transform="translate(758,265)"/>
<path d="M0 0 C6.87191818 7.0682587 8.53088674 14.00521155 8.57250977 23.6262207 C8.4264015 31.07774241 6.58361937 36.47474141 1.54296875 42.078125 C-6.45311781 49.514666 -15.683688 50.57826663 -26.2421875 50.45703125 C-35.44238176 49.92354077 -42.25736471 46.76500181 -48.8125 40.25 C-54.76019166 32.37998811 -54.33023629 23.67877438 -53.8125 14.25 C-52.71006755 7.24955393 -48.33841544 2.4597768 -42.8125 -1.75 C-29.14203967 -9.16195271 -13.07948674 -8.13834731 0 0 Z " fill="#0A5797" transform="translate(1281.8125,168.75)"/>
<path d="M0 0 C6.6803687 7.14644094 8.42221787 14.04472509 8.27905273 23.60961914 C7.87489618 31.58171827 5.31865119 37.63255125 -0.4375 43.25 C-9.33635928 49.97188512 -19.45925717 51.02293915 -30.3125 49.875 C-38.45518727 47.99049193 -45.42281762 44.54567762 -50.625 37.9375 C-55.18906827 29.65456128 -55.71871762 20.38701447 -53.73046875 11.1796875 C-51.1161154 4.32745543 -45.60450567 -0.83645823 -39.1953125 -4.25390625 C-26.11463786 -9.5218044 -11.68637979 -7.49692289 0 0 Z " fill="#0A5797" transform="translate(1731.3125,169.125)"/>
</svg>
