<svg width="17" height="16" viewBox="0 0 17 16" fill="none" xmlns="http://www.w3.org/2000/svg">
<path d="M8.08887 0.678711C8.29229 0.678754 8.49196 0.734445 8.66699 0.837891C8.84173 0.941269 8.98623 1.08896 9.08594 1.26562L16.0283 13.5742C16.128 13.751 16.1807 13.9514 16.1807 14.1543C16.1806 14.3571 16.1279 14.5567 16.0283 14.7334C15.9285 14.9103 15.7843 15.0587 15.6094 15.1621C15.4345 15.2654 15.2354 15.3202 15.0322 15.3203L1.14941 15.3213C0.946014 15.3213 0.746314 15.2665 0.571289 15.1631C0.396355 15.0597 0.252125 14.9112 0.152344 14.7344C0.0526504 14.5576 3.81872e-05 14.3572 0 14.1543C5.84149e-05 13.9515 0.0527783 13.7519 0.152344 13.5752L7.0918 1.26562C7.19151 1.08889 7.33595 0.941299 7.51074 0.837891C7.68577 0.734462 7.88545 0.678741 8.08887 0.678711ZM2.0918 13.6006H14.0869L8.08887 2.9668L2.0918 13.6006ZM8.95996 6.41895L8.8877 10.0391L8.87988 10.4316H8.14648C8.63635 10.4607 9.02246 10.8563 9.02246 11.3564V11.3574C9.02194 11.4801 8.99721 11.6023 8.9502 11.7158C8.90316 11.8292 8.8342 11.9326 8.74707 12.0195C8.65987 12.1065 8.55595 12.1754 8.44141 12.2217C8.33131 12.2661 8.21347 12.2878 8.09473 12.2871L8.0957 12.2881C8.09318 12.2881 8.09041 12.2871 8.08789 12.2871C8.08542 12.2871 8.08256 12.2881 8.08008 12.2881V12.2871C7.96226 12.2871 7.84544 12.2651 7.73633 12.2207C7.62234 12.1742 7.51834 12.1055 7.43164 12.0186C7.34503 11.9316 7.27618 11.828 7.22949 11.7148C7.18287 11.6016 7.15956 11.4797 7.15918 11.3574V11.3564C7.15918 10.8579 7.54296 10.4609 8.03125 10.4316H7.30176L7.29395 10.0391L7.2207 6.41895L7.21191 6.01074H8.96777L8.95996 6.41895ZM8.29102 11.8506C8.22664 11.8765 8.15804 11.8892 8.08887 11.8877C8.0544 11.8883 8.02007 11.8852 7.98633 11.8789L7.98535 11.8799C8.01934 11.8863 8.05414 11.8893 8.08887 11.8887C8.15809 11.8902 8.22758 11.8776 8.29199 11.8516L8.29102 11.8506ZM8.18652 1.08594C8.28361 1.09903 8.37752 1.13123 8.46289 1.18164C8.49134 1.19846 8.51903 1.21696 8.54492 1.2373C8.51921 1.21699 8.49216 1.19839 8.46387 1.18164C8.37839 1.13112 8.28375 1.09805 8.18652 1.08496V1.08594Z" fill="#960707"/>
</svg>
