<svg width="25" height="25" viewBox="0 0 25 25" fill="none" xmlns="http://www.w3.org/2000/svg">
<path d="M5.18209 2.12545H22.8965V21.6113H11.3821L10.4964 23.3828H24.668V0.354004H3.41065V13.6398L5.18209 11.8684V2.12545Z" fill="#2B4DFF"/>
<path d="M21.1328 7.4399H6.96304V5.66846H21.1328V7.4399ZM21.1328 12.7542V10.9828H10.5042L11.3899 12.7542H21.1328ZM21.1328 18.0686V16.2971H16.7042V18.0686H21.1328ZM7.51573 24.3182L7.57596 24.4174C7.60921 24.4569 7.6507 24.4887 7.69752 24.5105C7.74434 24.5322 7.79535 24.5435 7.84699 24.5435C7.89862 24.5435 7.94964 24.5322 7.99645 24.5105C8.04327 24.4887 8.08476 24.4569 8.11802 24.4174L8.17825 24.3182L8.30048 24.0082L7.84699 24.1871L7.39527 24.01L7.51573 24.3182ZM8.17647 10.0475C8.15066 9.98082 8.1053 9.92354 8.04633 9.88314C7.98737 9.84275 7.91757 9.82114 7.8461 9.82114C7.77463 9.82114 7.70483 9.84275 7.64587 9.88314C7.58691 9.92354 7.54154 9.98082 7.51573 10.0475L6.43869 12.7808C6.17146 13.4583 5.76781 14.0737 5.25282 14.5887C4.73782 15.1037 4.12247 15.5073 3.44495 15.7745L1.01984 16.7311L0.842697 17.1828L1.01984 17.6346L3.44495 18.5911L3.69827 18.6974C4.95134 19.2685 5.93382 20.3037 6.43869 21.5849L7.39527 24.01L7.84699 24.1871L8.30048 24.01L9.25528 21.5849C9.76015 20.3037 10.7426 19.2685 11.9957 18.6974L12.249 18.5911L14.9824 17.5141C15.049 17.4883 15.1063 17.4429 15.1467 17.384C15.1871 17.325 15.2087 17.2552 15.2087 17.1837C15.2087 17.1123 15.1871 17.0425 15.1467 16.9835C15.1063 16.9245 15.049 16.8792 14.9824 16.8534L14.6741 16.7294L12.249 15.7745C10.9678 15.2697 9.93265 14.2872 9.36157 13.0341L9.25528 12.7808L8.17647 10.0475ZM7.84699 13.9659C8.53655 15.3627 9.66716 16.4933 11.0639 17.1828C9.66745 17.872 8.53687 19.0019 7.84699 20.398C7.15756 19.0022 6.02764 17.8723 4.63182 17.1828C6.02792 16.493 7.15788 15.3624 7.84699 13.9659ZM0.711613 16.8534C0.644966 16.8792 0.587685 16.9245 0.547291 16.9835C0.506899 17.0425 0.485283 17.1123 0.485283 17.1837C0.485283 17.2552 0.506899 17.325 0.547291 17.384C0.587685 17.4429 0.644966 17.4883 0.711613 17.5141L1.02162 17.6346L0.842697 17.1828L1.01984 16.7311L0.711613 16.8534Z" fill="#2B4DFF"/>
</svg>
