<svg width="25" height="25" viewBox="0 0 25 25" fill="none" xmlns="http://www.w3.org/2000/svg">
<path d="M4.69674 1.77144H22.4112V21.2573H10.8968L10.0111 23.0288H24.1826V0H2.92529V13.2858L4.69674 11.5144V1.77144Z" fill="#2B4DFF"/>
<path d="M20.6475 7.0859H6.47768V5.31445H20.6475V7.0859ZM20.6475 12.4002V10.6288H10.0188L10.9045 12.4002H20.6475ZM20.6475 17.7146V15.9431H16.2189V17.7146H20.6475ZM7.03037 23.9642L7.0906 24.0634C7.12386 24.1029 7.16535 24.1347 7.21217 24.1565C7.25898 24.1782 7.31 24.1895 7.36164 24.1895C7.41327 24.1895 7.46429 24.1782 7.5111 24.1565C7.55792 24.1347 7.59941 24.1029 7.63267 24.0634L7.69289 23.9642L7.81512 23.6542L7.36164 23.8331L6.90992 23.656L7.03037 23.9642ZM7.69112 9.69346C7.66531 9.62682 7.61994 9.56953 7.56098 9.52914C7.50202 9.48875 7.43222 9.46713 7.36075 9.46713C7.28928 9.46713 7.21948 9.48875 7.16052 9.52914C7.10155 9.56953 7.05619 9.62682 7.03037 9.69346L5.95334 12.4268C5.6861 13.1043 5.28246 13.7197 4.76747 14.2347C4.25247 14.7497 3.63712 15.1533 2.9596 15.4205L0.534491 16.3771L0.357346 16.8288L0.534491 17.2806L2.9596 18.2371L3.21291 18.3434C4.46599 18.9145 5.44847 19.9497 5.95334 21.2309L6.90992 23.656L7.36164 23.8331L7.81512 23.656L8.76993 21.2309C9.2748 19.9497 10.2573 18.9145 11.5104 18.3434L11.7637 18.2371L14.497 17.1601C14.5637 17.1343 14.6209 17.0889 14.6613 17.03C14.7017 16.971 14.7233 16.9012 14.7233 16.8297C14.7233 16.7583 14.7017 16.6885 14.6613 16.6295C14.6209 16.5705 14.5637 16.5252 14.497 16.4993L14.1888 16.3753L11.7637 15.4205C10.4825 14.9157 9.44729 13.9332 8.87622 12.6801L8.76993 12.4268L7.69112 9.69346ZM7.36164 13.6119C8.0512 15.0087 9.18181 16.1393 10.5786 16.8288C9.18209 17.5179 8.05151 18.6479 7.36164 20.044C6.67221 18.6482 5.54229 17.5183 4.14647 16.8288C5.54257 16.139 6.67252 15.0084 7.36164 13.6119ZM0.226261 16.4993C0.159615 16.5252 0.102333 16.5705 0.0619392 16.6295C0.0215473 16.6885 -6.86646e-05 16.7583 -6.86646e-05 16.8297C-6.86646e-05 16.9012 0.0215473 16.971 0.0619392 17.03C0.102333 17.0889 0.159615 17.1343 0.226261 17.1601L0.536264 17.2806L0.357346 16.8288L0.534491 16.3771L0.226261 16.4993Z" fill="#2B4DFF"/>
</svg>
