<svg width="37" height="38" viewBox="0 0 37 38" fill="none" xmlns="http://www.w3.org/2000/svg">
<path d="M19.2168 7.48145C20.7003 7.59227 22.1446 8.00932 23.459 8.70605C24.7732 9.40274 25.9292 10.3639 26.8535 11.5293C27.7778 12.6949 28.4511 14.04 28.8301 15.4785C29.2059 16.9051 29.2827 18.3936 29.0596 19.8516L29.0605 19.8525C28.4858 24.6384 25.2447 26.6934 24.1768 27.7881C23.5858 28.3949 23.5139 28.5982 23.4844 28.749C23.4634 28.8562 23.4555 29.0059 23.4678 29.291C23.4738 29.4316 23.4833 29.5881 23.4951 29.7793C23.5067 29.9671 23.5195 30.1817 23.5303 30.4229H23.5293C23.549 30.7838 23.4963 31.1454 23.373 31.4854C23.248 31.83 23.0533 32.1454 22.8018 32.4121C22.6338 32.5901 22.441 32.7415 22.2324 32.8672V34.9385C22.2324 35.4928 22.0805 36.0415 21.7832 36.4785C21.4893 36.9101 20.9779 37.3232 20.2861 37.3232H16.5068C15.8163 37.3232 15.3059 36.9097 15.0127 36.4795C14.7154 36.043 14.5626 35.4943 14.5625 34.9385V32.8643C14.355 32.7388 14.1634 32.5882 13.9961 32.4111C13.7449 32.1452 13.5495 31.8308 13.4238 31.4873C13.3045 31.1611 13.2526 30.8145 13.2646 30.4678H13.2627C13.2627 30.2327 13.2661 30.0201 13.2686 29.832C13.2711 29.6414 13.2731 29.4802 13.2725 29.334C13.2713 29.0377 13.2575 28.8563 13.2295 28.7158C13.1878 28.5071 13.1002 28.2849 12.6191 27.7891C12.2804 27.4516 11.903 27.1496 11.333 26.623C10.8038 26.1342 10.2117 25.5385 9.66113 24.7949C8.61356 23.3798 7.75717 21.4816 7.6543 18.8242L7.64355 18.2832C7.63517 16.7977 7.93484 15.3263 8.52246 13.9619C9.11085 12.5958 9.97548 11.3659 11.0625 10.3506C12.1497 9.33526 13.4366 8.55529 14.8398 8.06152C16.243 7.5679 17.7335 7.37065 19.2168 7.48145ZM16.5625 33.2549V34.9385C16.5626 35.1161 16.6075 35.2487 16.6484 35.3232H20.1465C20.1874 35.2487 20.2324 35.1161 20.2324 34.9385V33.2549H16.5625ZM5.7793 27.333C6.16861 26.9413 6.80261 26.9398 7.19434 27.3291C7.58557 27.7185 7.5874 28.3516 7.19824 28.7432L4.81934 31.1367C4.43005 31.5281 3.79691 31.5296 3.40527 31.1406C3.0138 30.7514 3.01229 30.1182 3.40137 29.7266L5.7793 27.333ZM29.6318 27.3311C30.0222 26.9406 30.6553 26.9408 31.0459 27.3311L33.4414 29.7246C33.8317 30.115 33.8316 30.7481 33.4414 31.1387C33.0511 31.5288 32.4179 31.5287 32.0273 31.1387L29.6318 28.7451C29.2417 28.3548 29.2418 27.7216 29.6318 27.3311ZM19.0674 9.47559C17.8595 9.38542 16.6455 9.54622 15.5029 9.94824C14.3603 10.3503 13.313 10.9848 12.4277 11.8115C11.5424 12.6383 10.8376 13.6404 10.3584 14.7529C9.87938 15.8653 9.63611 17.0653 9.64355 18.2764V18.2832C9.64361 20.7723 10.3903 22.4181 11.2686 23.6045C11.7158 24.2086 12.2089 24.7095 12.6904 25.1543C13.126 25.5567 13.6835 26.0253 14.042 26.3838C14.0455 26.3873 14.0493 26.391 14.0527 26.3945C14.6672 27.0276 15.0435 27.5834 15.1914 28.3242C15.2581 28.6585 15.2711 28.9958 15.2725 29.3262C15.2731 29.4932 15.27 29.6731 15.2676 29.8584C15.2651 30.0466 15.2627 30.2474 15.2627 30.4678C15.2627 30.4861 15.2627 30.5051 15.2617 30.5234C15.2566 30.6173 15.2705 30.7115 15.3027 30.7998C15.3351 30.8882 15.3846 30.9696 15.4492 31.0381C15.4944 31.0859 15.5479 31.1242 15.6045 31.1572C15.7448 31.1631 15.8775 31.197 15.9971 31.2549H20.7979C20.9189 31.1963 21.0532 31.1615 21.1953 31.1562C21.2506 31.1237 21.3035 31.0869 21.3477 31.04C21.4118 30.9719 21.4612 30.8907 21.4932 30.8027C21.525 30.7148 21.5388 30.6207 21.5332 30.5273C21.5329 30.5224 21.5324 30.5167 21.5322 30.5117C21.5223 30.2889 21.5105 30.0885 21.499 29.9023C21.4877 29.7197 21.4758 29.5407 21.4688 29.377C21.4549 29.0535 21.4539 28.7122 21.5215 28.3662C21.6693 27.6101 22.1037 27.0522 22.7451 26.3936V26.3926C24.1412 24.9612 26.6043 23.536 27.0752 19.6143L27.0801 19.5791C27.2674 18.3825 27.2049 17.1595 26.8965 15.9883C26.5879 14.817 26.0397 13.7216 25.2871 12.7725C24.5344 11.8233 23.5928 11.04 22.5225 10.4727C21.4522 9.9053 20.2754 9.56583 19.0674 9.47559ZM4.89844 17.6553C5.45047 17.6554 5.89817 18.1033 5.89844 18.6553C5.89824 19.2073 5.45051 19.6552 4.89844 19.6553H1.52344C0.971275 19.6553 0.523635 19.2074 0.523438 18.6553C0.523701 18.1032 0.971315 17.6553 1.52344 17.6553H4.89844ZM35.2734 17.6553C35.8255 17.6553 36.2732 18.1032 36.2734 18.6553C36.2732 19.2074 35.8256 19.6552 35.2734 19.6553H31.8965C31.3444 19.6552 30.8967 19.2073 30.8965 18.6553C30.8967 18.1033 31.3445 17.6554 31.8965 17.6553H35.2734ZM16.9609 11.749C17.5132 11.7488 17.9607 12.1967 17.9609 12.749C17.9609 13.3011 17.514 13.7487 16.9619 13.749C16.1399 13.7494 15.3516 14.0768 14.7705 14.6582C14.1896 15.2395 13.8633 16.0278 13.8633 16.8496C13.8631 17.4016 13.4153 17.8495 12.8633 17.8496C12.3111 17.8496 11.8635 17.4017 11.8633 16.8496C11.8633 15.4974 12.4006 14.2005 13.3564 13.2441C14.3124 12.2878 15.6087 11.7496 16.9609 11.749ZM30.1865 4.48438C30.5771 4.09404 31.2101 4.09391 31.6006 4.48438C31.9908 4.87486 31.9908 5.50799 31.6006 5.89844L29.2051 8.29395C28.8146 8.6842 28.1815 8.68414 27.791 8.29395C27.4006 7.90348 27.4007 7.27042 27.791 6.87988L30.1865 4.48438ZM5.24707 4.47949C5.63911 4.09069 6.27219 4.0934 6.66113 4.48535L9.04004 6.88281C9.42865 7.27487 9.42607 7.90799 9.03418 8.29688C8.64218 8.68538 8.009 8.6827 7.62012 8.29102L5.24121 5.89453C4.85225 5.50256 4.85522 4.86852 5.24707 4.47949ZM18.3975 0.115234C18.9497 0.11524 19.3975 0.562953 19.3975 1.11523V3.8457C19.3972 4.39779 18.9496 4.8457 18.3975 4.8457C17.8453 4.8457 17.3977 4.39779 17.3975 3.8457V1.11523C17.3975 0.562953 17.8452 0.11524 18.3975 0.115234Z" fill="#079669"/>
</svg>
