<svg width="24" height="23" viewBox="0 0 24 23" fill="none" xmlns="http://www.w3.org/2000/svg">
<path d="M18.2398 9.4811C18.2396 11.0509 17.798 12.5891 16.9653 13.9199C16.1326 15.2507 14.9424 16.3205 13.5307 17.0071C12.1189 17.6937 10.5426 17.9695 8.98158 17.8029C7.42059 17.6362 5.93794 17.0339 4.70295 16.0648M1.53439 10.2365C1.37944 8.53237 1.75061 6.82167 2.59788 5.33497C3.44516 3.84827 4.72781 2.65703 6.27298 1.92178C7.81816 1.18653 9.55158 0.942612 11.2397 1.2229C12.9277 1.50319 14.4893 2.29421 15.714 3.48936M15.7888 15.3989L22.2672 21.8903M22.2672 6.2562V1.80396H17.8279" stroke="#2B4DFF" stroke-width="2" stroke-linecap="round" stroke-linejoin="round"/>
<path d="M1.48633 15.6566L9.16993 7.97577C9.33429 7.81251 9.55655 7.72088 9.78822 7.72088C10.0199 7.72088 10.2422 7.81251 10.4065 7.97577L12.6654 10.2356C12.8294 10.3995 13.0518 10.4916 13.2837 10.4916C13.5156 10.4916 13.738 10.3995 13.902 10.2356L22.2653 1.80396" stroke="#2B4DFF" stroke-width="2" stroke-linecap="round" stroke-linejoin="round"/>
</svg>
