<svg width="33" height="33" viewBox="0 0 33 33" fill="none" xmlns="http://www.w3.org/2000/svg">
<path fill-rule="evenodd" clip-rule="evenodd" d="M16.0864 0.169783C15.6284 0.31846 15.3644 0.582776 15.2365 1.01435C15.1643 1.25596 15.1519 1.81763 15.1519 4.74988C15.1519 8.63409 15.1478 8.58453 15.5439 8.981C16.074 9.50963 17.3117 9.50963 17.8418 8.981C18.2379 8.58453 18.2338 8.63409 18.2338 4.74988C18.2338 0.99164 18.2276 0.925561 17.9223 0.562127C17.6665 0.258576 17.3921 0.157393 16.7754 0.140873C16.5453 0.127827 16.3145 0.137511 16.0864 0.169783ZM5.86934 4.25016C5.54342 4.39884 5.06279 4.86965 4.8957 5.20417C4.80974 5.37117 4.76284 5.55556 4.75855 5.74337C4.75426 5.93119 4.7927 6.11753 4.87095 6.28828C5.02359 6.629 9.81754 11.4445 10.195 11.6365C10.7314 11.9119 11.2766 11.7783 11.8308 11.2359C12.3754 10.7032 12.5198 10.125 12.2434 9.58604C12.0515 9.20815 7.2411 4.40916 6.90074 4.25635C6.73804 4.18608 6.56287 4.14932 6.38567 4.14826C6.20847 4.14719 6.03288 4.18185 5.86934 4.25016ZM26.7036 4.2832C26.4499 4.4009 26.0167 4.8077 23.9498 6.88299C22.0499 8.78896 21.4703 9.40432 21.3775 9.60669C21.3007 9.77458 21.2612 9.95711 21.2615 10.1417C21.2619 10.3264 21.3021 10.5087 21.3795 10.6763C21.5239 10.9861 21.9984 11.4734 22.3181 11.6407C22.642 11.81 23.1226 11.8079 23.4588 11.6365C23.8033 11.459 28.5684 6.68889 28.7458 6.34404C28.83 6.16641 28.8742 5.97244 28.8753 5.77583C28.8763 5.57922 28.8342 5.38477 28.752 5.20624C28.5237 4.82408 28.2012 4.50698 27.8154 4.28526C27.6447 4.19313 27.4538 4.14472 27.2598 4.14436C27.0658 4.144 26.8747 4.1917 26.7036 4.2832ZM1.63235 14.6287C1.02452 14.82 0.721286 15.3067 0.722661 16.0886C0.724724 16.8878 1.02177 17.3668 1.63029 17.5486C1.8737 17.6208 2.41622 17.6332 5.36396 17.6332C8.43546 17.6332 8.84596 17.6229 9.09762 17.5403C9.28264 17.4798 9.45079 17.3764 9.58842 17.2387C9.72606 17.1009 9.82929 16.9326 9.88974 16.7473C10.0671 16.2001 9.97843 15.4237 9.69583 15.0396C9.58319 14.9157 9.44987 14.8122 9.30184 14.734L9.01923 14.5771L5.44441 14.5647C2.5668 14.5564 1.82213 14.5688 1.63235 14.6287ZM24.418 14.5998C24.1392 14.677 23.8872 14.83 23.6899 15.0417C23.4072 15.4237 23.3185 16.2001 23.4959 16.7473C23.6156 17.119 23.9168 17.4205 24.2881 17.5403C24.5397 17.6229 24.9502 17.6332 28.0217 17.6332C30.9695 17.6332 31.512 17.6208 31.7554 17.5486C32.3639 17.3668 32.661 16.8878 32.663 16.0886C32.663 15.2936 32.3598 14.8166 31.7306 14.6266C31.5182 14.5626 30.8519 14.5502 28.03 14.5543C26.1363 14.5585 24.5108 14.5791 24.418 14.5998ZM10.2012 20.8029C9.94749 20.9206 9.51431 21.3274 7.44738 23.4027C5.54754 25.3087 4.9679 25.9241 4.87507 26.1264C4.79835 26.2943 4.75881 26.4768 4.75917 26.6615C4.75952 26.8461 4.79977 27.0285 4.87714 27.1961C5.02153 27.5058 5.49598 27.9932 5.81571 28.1604C6.13957 28.3298 6.6202 28.3277 6.95644 28.1563C7.30092 27.9787 12.066 23.2086 12.2434 22.8638C12.3276 22.6862 12.3718 22.4922 12.3729 22.2956C12.3739 22.099 12.3319 21.9045 12.2496 21.726C12.0213 21.3438 11.6988 21.0267 11.3131 20.805C11.1423 20.7129 10.9514 20.6645 10.7574 20.6641C10.5634 20.6637 10.3723 20.7114 10.2012 20.8029ZM22.3717 20.7699C22.0458 20.9186 21.5652 21.3894 21.3981 21.7239C21.3121 21.8909 21.2652 22.0753 21.2609 22.2631C21.2566 22.4509 21.2951 22.6373 21.3733 22.808C21.526 23.1487 26.3199 27.9643 26.6974 28.1563C27.2337 28.4316 27.779 28.2981 28.3332 27.7557C28.8778 27.2229 29.0222 26.6447 28.7458 26.1058C28.5539 25.7279 23.7435 20.9289 23.4031 20.7761C23.2404 20.7058 23.0653 20.6691 22.8881 20.668C22.7109 20.6669 22.5353 20.7016 22.3717 20.7699ZM16.1668 22.8576C15.8882 22.9364 15.6364 23.0899 15.4387 23.3016C15.154 23.6856 15.1519 23.7125 15.1519 27.4253C15.1519 30.3823 15.1643 30.9254 15.2365 31.1691C15.4153 31.7748 15.9007 32.077 16.6928 32.0756C17.485 32.0784 17.9704 31.7762 18.1492 31.1691C18.2771 30.7313 18.275 24.0924 18.1451 23.7104C18.1048 23.5565 18.0316 23.4132 17.9304 23.2905C17.8292 23.1679 17.7026 23.0687 17.5592 23.0001C17.3323 22.8762 17.2003 22.8452 16.8104 22.8307C16.5955 22.8172 16.3798 22.8262 16.1668 22.8576Z" fill="#2B4DFF"/>
</svg>
