<svg width="14" height="24" viewBox="0 0 14 24" fill="none" xmlns="http://www.w3.org/2000/svg">
<path d="M11.8696 0H2.13043C0.961739 0 0 1.08343 0 2.4V21.6C0 22.9166 0.961739 24 2.13043 24H11.8696C13.0383 24 14 22.9166 14 21.6V2.4C14 1.08343 13.0383 0 11.8696 0ZM12.1739 21.6C12.1739 21.792 12.04 21.9429 11.8696 21.9429H2.13043C1.96 21.9429 1.82609 21.792 1.82609 21.6V2.4C1.82609 2.208 1.96 2.05714 2.13043 2.05714H11.8696C12.04 2.05714 12.1739 2.208 12.1739 2.4V21.6ZM8.21739 17.4857C8.21739 18.24 7.66957 18.8571 7 18.8571C6.33043 18.8571 5.78261 18.24 5.78261 17.4857C5.78261 16.7314 6.33043 16.1143 7 16.1143C7.66957 16.1143 8.21739 16.7314 8.21739 17.4857Z" fill="#FF553A"/>
</svg>
