<svg width="35" height="35" viewBox="0 0 35 35" fill="none" xmlns="http://www.w3.org/2000/svg">
<path d="M17.7221 34.6218C20.037 34.6218 22.2248 34.1768 24.2856 33.287C26.3464 32.3972 28.1458 31.1833 29.6837 29.6453C31.2217 28.1074 32.4356 26.308 33.3254 24.2472C34.2152 22.1864 34.6602 19.9985 34.6602 17.6837C34.6602 15.3406 34.2011 13.1386 33.2831 11.0778C32.365 9.01703 31.1229 7.22442 29.5567 5.69999C27.9905 4.17557 26.1629 2.96901 24.0739 2.08033C21.9848 1.19164 19.7547 0.746735 17.3833 0.745605C15.1249 0.745605 12.9935 1.13405 10.9892 1.91094C8.98486 2.68784 7.22725 3.76058 5.71638 5.12918C4.2055 6.49778 3.00572 8.12101 2.11703 9.99887C1.22835 11.8767 0.784008 13.902 0.784008 16.0746C0.784008 19.321 1.77206 21.8126 3.74817 23.5493C5.72428 25.2861 8.12384 26.1538 10.9469 26.1527H14.0804C14.3345 26.1527 14.5106 26.2233 14.6089 26.3644C14.7071 26.5056 14.7568 26.6609 14.7579 26.8302C14.7579 27.169 14.5462 27.6563 14.1227 28.292C13.6993 28.9277 13.4876 29.6544 13.4876 30.4719C13.4876 31.8834 13.8754 32.9279 14.6512 33.6055C15.427 34.283 16.4506 34.6218 17.7221 34.6218ZM27.038 19.3775C26.304 19.3775 25.6971 19.1375 25.2172 18.6576C24.7373 18.1777 24.4973 17.5708 24.4973 16.8368C24.4973 16.1028 24.7373 15.4958 25.2172 15.0159C25.6971 14.536 26.304 14.2961 27.038 14.2961C27.772 14.2961 28.379 14.536 28.8589 15.0159C29.3388 15.4958 29.5787 16.1028 29.5787 16.8368C29.5787 17.5708 29.3388 18.1777 28.8589 18.6576C28.379 19.1375 27.772 19.3775 27.038 19.3775ZM21.9566 12.6023C21.2226 12.6023 20.6157 12.3623 20.1358 11.8824C19.6558 11.4025 19.4159 10.7955 19.4159 10.0615C19.4159 9.32756 19.6558 8.72062 20.1358 8.2407C20.6157 7.76079 21.2226 7.52083 21.9566 7.52083C22.6906 7.52083 23.2975 7.76079 23.7774 8.2407C24.2574 8.72062 24.4973 9.32756 24.4973 10.0615C24.4973 10.7955 24.2574 11.4025 23.7774 11.8824C23.2975 12.3623 22.6906 12.6023 21.9566 12.6023ZM13.4876 12.6023C12.7536 12.6023 12.1466 12.3623 11.6667 11.8824C11.1868 11.4025 10.9469 10.7955 10.9469 10.0615C10.9469 9.32756 11.1868 8.72062 11.6667 8.2407C12.1466 7.76079 12.7536 7.52083 13.4876 7.52083C14.2215 7.52083 14.8285 7.76079 15.3084 8.2407C15.7883 8.72062 16.0283 9.32756 16.0283 10.0615C16.0283 10.7955 15.7883 11.4025 15.3084 11.8824C14.8285 12.3623 14.2215 12.6023 13.4876 12.6023ZM8.40614 19.3775C7.67216 19.3775 7.06521 19.1375 6.5853 18.6576C6.10539 18.1777 5.86543 17.5708 5.86543 16.8368C5.86543 16.1028 6.10539 15.4958 6.5853 15.0159C7.06521 14.536 7.67216 14.2961 8.40614 14.2961C9.14013 14.2961 9.74707 14.536 10.227 15.0159C10.7069 15.4958 10.9469 16.1028 10.9469 16.8368C10.9469 17.5708 10.7069 18.1777 10.227 18.6576C9.74707 19.1375 9.14013 19.3775 8.40614 19.3775ZM17.7221 31.2341C17.468 31.2341 17.2631 31.1636 17.1072 31.0224C16.9514 30.8813 16.8741 30.6978 16.8752 30.4719C16.8752 30.0767 17.0869 29.6109 17.5104 29.0745C17.9338 28.5382 18.1455 27.7336 18.1455 26.6609C18.1455 25.4752 17.7362 24.5295 16.9175 23.8237C16.0989 23.118 15.0967 22.7651 13.911 22.7651H10.9469C9.08367 22.7651 7.48866 22.222 6.16185 21.1357C4.83503 20.0494 4.17162 18.3623 4.17162 16.0746C4.17162 12.6587 5.47699 9.81425 8.08771 7.54116C10.6984 5.26807 13.797 4.13209 17.3833 4.13322C21.2226 4.13322 24.4973 5.44592 27.2074 8.07132C29.9175 10.6967 31.2725 13.9008 31.2725 17.6837C31.2725 21.4383 29.9525 24.6356 27.3124 27.2757C24.6723 29.9158 21.4756 31.2353 17.7221 31.2341Z" fill="#8B17FF"/>
</svg>
