<svg width="30" height="42" viewBox="0 0 30 42" fill="none" xmlns="http://www.w3.org/2000/svg">
<path d="M16.8857 0.365234C17.3291 0.226291 17.7934 0.250809 18.2695 0.426758C18.7511 0.604764 19.1103 0.905454 19.3311 1.33008C19.5457 1.74301 19.623 2.19332 19.5664 2.6748V2.67578L17.7627 17.5049H26.875C27.2722 17.5049 27.6245 17.5975 27.9219 17.792C28.219 17.9864 28.4475 18.2734 28.6123 18.6396L28.6699 18.7773C28.7928 19.0977 28.8371 19.4157 28.7959 19.7285C28.7488 20.0859 28.5919 20.4216 28.3369 20.7344L28.3359 20.7354L12.0146 40.6035L12.0137 40.6045C11.7097 40.9712 11.3368 41.2117 10.8975 41.3164H10.8965C10.4562 41.4189 10.0209 41.3723 9.59766 41.1797V41.1787C9.17651 40.9887 8.8495 40.6983 8.62402 40.3086V40.3076C8.39827 39.914 8.31834 39.4716 8.37695 38.9893V38.9854L10.2275 25.8604H2.68652C2.30204 25.8604 1.95883 25.7743 1.66504 25.5947C1.37115 25.415 1.13902 25.1491 0.96582 24.8076C0.79268 24.4663 0.71437 24.1214 0.741211 23.7773C0.768112 23.4336 0.899363 23.1047 1.12305 22.792L15.7871 1.20117L15.7891 1.19824C16.0775 0.786416 16.443 0.503981 16.8857 0.365234ZM4.78418 22.8008H13.6875L13.6543 23.0352L11.8018 36.0811L24.5459 20.5635H14.3252L14.3535 20.333L16.1367 6.14844L4.78418 22.8008Z" fill="#FB923C" stroke="#FB923C" stroke-width="0.410918"/>
</svg>
