<svg width="22" height="29" viewBox="0 0 22 29" fill="none" xmlns="http://www.w3.org/2000/svg">
<path d="M11.002 0.239746C11.3942 0.239746 11.7754 0.385485 12.0605 0.651855C12.3464 0.919112 12.5126 1.28785 12.5127 1.67822V3.00928H18.4092C18.8015 3.00928 19.1826 3.15498 19.4678 3.42139C19.7537 3.68871 19.9209 4.05727 19.9209 4.44775C19.9208 4.83823 19.7538 5.20682 19.4678 5.47412C19.1827 5.7405 18.8015 5.88623 18.4092 5.88623H12.5127V12.7017H14.7061C16.4733 12.7018 18.1732 13.3576 19.4307 14.5327C20.6889 15.7088 21.4022 17.3102 21.4023 18.9858C21.4023 20.6616 20.6891 22.2638 19.4307 23.4399C18.1733 24.6149 16.4733 25.2709 14.7061 25.271H12.5127V26.6021C12.5125 26.9924 12.3465 27.3612 12.0605 27.6284C11.7754 27.8947 11.3942 28.0405 11.002 28.0405C10.6097 28.0405 10.2285 27.8947 9.94336 27.6284C9.65745 27.3612 9.49139 26.9924 9.49121 26.6021V25.271H2.11328C1.72105 25.271 1.3398 25.1252 1.05469 24.8589C0.768709 24.5916 0.601653 24.223 0.601562 23.8325C0.601562 23.442 0.768706 23.0735 1.05469 22.8062C1.33982 22.5397 1.72096 22.394 2.11328 22.394H9.49121V15.5786H7.29785C5.53062 15.5785 3.83066 14.9226 2.57324 13.7476C1.31495 12.5715 0.601759 10.97 0.601562 9.29443C0.601563 7.61864 1.31485 6.0165 2.57324 4.84033C3.83067 3.66529 5.53058 3.00938 7.29785 3.00928H9.49121V1.67822C9.49132 1.28785 9.65747 0.919112 9.94336 0.651855C10.2285 0.385485 10.6097 0.239746 11.002 0.239746ZM10.5264 27.5386C10.5394 27.5443 10.5521 27.5509 10.5654 27.5562C10.5522 27.5509 10.5394 27.5444 10.5264 27.5386ZM10.4102 27.479C10.4221 27.486 10.4341 27.4929 10.4463 27.4995C10.4341 27.4929 10.4221 27.486 10.4102 27.479ZM11.7881 27.3354C11.7369 27.3832 11.6803 27.4252 11.6211 27.4624C11.6501 27.4442 11.6789 27.4256 11.7061 27.4048L11.7881 27.3364C11.8132 27.313 11.8364 27.2879 11.8584 27.2622L11.7881 27.3354ZM10.2646 27.3774C10.2481 27.3637 10.2315 27.3501 10.2158 27.3354C10.1907 27.312 10.1668 27.2877 10.1445 27.2622L10.2158 27.3364C10.2314 27.351 10.2483 27.3639 10.2646 27.3774ZM12.5127 22.394H14.7061C15.6887 22.3939 16.6263 22.0284 17.3135 21.3862C17.9996 20.7448 18.3798 19.8804 18.3799 18.9858C18.3798 18.0914 17.9995 17.2278 17.3135 16.5864C16.6263 15.9442 15.6887 15.5787 14.7061 15.5786H12.5127V22.394ZM18.7744 19.1743C18.7711 19.2374 18.7665 19.3002 18.7598 19.3628C18.7665 19.3006 18.7711 19.238 18.7744 19.1753V19.1743ZM18.7793 18.9858L18.7744 18.7974C18.7734 18.7787 18.7698 18.7603 18.7686 18.7417C18.7742 18.8228 18.7793 18.9041 18.7793 18.9858ZM18.7568 18.6187C18.7516 18.5687 18.7465 18.5189 18.7393 18.4692C18.7465 18.5188 18.7516 18.5687 18.7568 18.6187ZM18.6357 17.9888C18.6319 17.9754 18.6281 17.962 18.624 17.9487C18.628 17.962 18.6319 17.9754 18.6357 17.9888ZM4.83496 14.7065C4.87234 14.7213 4.90959 14.7364 4.94727 14.7505C4.9096 14.7364 4.87233 14.7213 4.83496 14.7065ZM4.60742 14.6138C4.62732 14.6226 4.64797 14.6296 4.66797 14.6382C4.63967 14.6261 4.61112 14.6146 4.58301 14.6021L4.60742 14.6138ZM7.29785 5.88623C6.31517 5.88633 5.37761 6.2518 4.69043 6.89404C4.00428 7.53549 3.62402 8.39987 3.62402 9.29443C3.62422 10.1888 4.00441 11.0526 4.69043 11.6938C5.3776 12.336 6.31523 12.7016 7.29785 12.7017H9.49121V5.88623H7.29785ZM3.26562 9.84033C3.26543 9.83906 3.26582 9.8377 3.26562 9.83643L3.24414 9.67041C3.25018 9.72724 3.25704 9.78395 3.26562 9.84033ZM3.34668 8.36572C3.33052 8.4258 3.31673 8.48649 3.30371 8.54736C3.32977 8.42534 3.36185 8.3047 3.40039 8.18604L3.34668 8.36572ZM18.4092 5.48584L18.5049 5.48193C18.5062 5.48183 18.5075 5.48107 18.5088 5.48096C18.4758 5.48373 18.4425 5.48584 18.4092 5.48584ZM19.0283 5.30908C19.0573 5.29089 19.0861 5.27227 19.1133 5.25146L19.1152 5.24951C19.0872 5.2707 19.0581 5.29041 19.0283 5.30908ZM19.1953 3.71338L19.124 3.65283C19.1231 3.65211 19.122 3.6516 19.1211 3.65088C19.1465 3.67072 19.1717 3.69132 19.1953 3.71338ZM10.2998 27.4058C10.319 27.4204 10.3392 27.4334 10.3594 27.4468C10.3393 27.4334 10.319 27.4204 10.2998 27.4058ZM3.26562 9.84033C3.27445 9.89827 3.28508 9.95587 3.29688 10.0132C3.28509 9.95587 3.2744 9.89828 3.26562 9.84033Z" fill="#FB923C"/>
</svg>
