<svg width="31" height="41" viewBox="0 0 31 41" fill="none" xmlns="http://www.w3.org/2000/svg">
<path d="M25.7588 0.139648C26.958 0.139658 28.1081 0.615923 28.9561 1.46387C29.8039 2.3118 30.2803 3.46202 30.2803 4.66113V35.8096C30.2802 37.0086 29.8039 38.159 28.9561 39.0068C28.1081 39.8547 26.9579 40.331 25.7588 40.3311H4.6582C3.45911 40.331 2.30887 39.8547 1.46094 39.0068C0.613069 38.159 0.136813 37.0086 0.136719 35.8096V4.66113C0.136719 3.46203 0.613089 2.3118 1.46094 1.46387C2.30888 0.615924 3.45903 0.139659 4.6582 0.139648H25.7588ZM4.6582 3.15332C4.25864 3.15333 3.87538 3.31229 3.59277 3.59473C3.31012 3.87738 3.15137 4.2614 3.15137 4.66113V35.8096C3.15146 36.2092 3.31021 36.5924 3.59277 36.875C3.8754 37.1575 4.25856 37.3164 4.6582 37.3164H25.7588C26.1584 37.3164 26.5416 37.1575 26.8242 36.875C27.1068 36.5924 27.2655 36.2092 27.2656 35.8096V4.66113C27.2656 4.2614 27.1069 3.87738 26.8242 3.59473C26.5416 3.31229 26.1584 3.15333 25.7588 3.15332H4.6582ZM15.21 30.7852C15.7429 30.7852 16.254 30.9972 16.6309 31.374C17.0077 31.7509 17.2197 32.262 17.2197 32.7949C17.2197 33.3278 17.0077 33.839 16.6309 34.2158C16.254 34.5926 15.7429 34.8047 15.21 34.8047H15.1895C14.6566 34.8046 14.1453 34.5926 13.7686 34.2158C13.3918 33.839 13.1807 33.3278 13.1807 32.7949C13.1807 32.2621 13.3919 31.7509 13.7686 31.374C14.1453 30.9973 14.6566 30.7853 15.1895 30.7852H15.21Z" fill="#69BD46"/>
</svg>
