<svg width="24" height="24" viewBox="0 0 24 24" fill="none" xmlns="http://www.w3.org/2000/svg">
<path d="M12.373 23.9485C13.9447 23.9485 15.4301 23.6464 16.8293 23.0423C18.2285 22.4382 19.4501 21.614 20.4943 20.5698C21.5385 19.5256 22.3627 18.3039 22.9668 16.9047C23.571 15.5056 23.873 14.0202 23.873 12.4485C23.873 10.8577 23.5614 9.36265 22.9381 7.96349C22.3148 6.56432 21.4715 5.34724 20.4081 4.31224C19.3447 3.27724 18.1039 2.45805 16.6855 1.85469C15.2672 1.25132 13.753 0.949253 12.143 0.948486C10.6097 0.948486 9.16263 1.21222 7.8018 1.73969C6.44096 2.26715 5.24765 2.99549 4.22185 3.92469C3.19605 4.85389 2.38146 5.95597 1.7781 7.23094C1.17473 8.5059 0.873047 9.88092 0.873047 11.356C0.873047 13.5602 1.54388 15.2518 2.88555 16.4309C4.22721 17.6101 5.85638 18.1993 7.77305 18.1985H9.90055C10.073 18.1985 10.1926 18.2464 10.2593 18.3422C10.326 18.4381 10.3598 18.5435 10.3605 18.6585C10.3605 18.8885 10.2168 19.2193 9.9293 19.6509C9.6418 20.0826 9.49805 20.5759 9.49805 21.131C9.49805 22.0893 9.7614 22.7985 10.2881 23.2585C10.8148 23.7185 11.5098 23.9485 12.373 23.9485ZM18.698 13.5985C18.1997 13.5985 17.7876 13.4356 17.4618 13.1097C17.136 12.7839 16.973 12.3718 16.973 11.8735C16.973 11.3752 17.136 10.9631 17.4618 10.6372C17.7876 10.3114 18.1997 10.1485 18.698 10.1485C19.1964 10.1485 19.6085 10.3114 19.9343 10.6372C20.2601 10.9631 20.423 11.3752 20.423 11.8735C20.423 12.3718 20.2601 12.7839 19.9343 13.1097C19.6085 13.4356 19.1964 13.5985 18.698 13.5985ZM15.248 8.99849C14.7497 8.99849 14.3376 8.83557 14.0118 8.50974C13.686 8.1839 13.523 7.77182 13.523 7.27349C13.523 6.77515 13.686 6.36307 14.0118 6.03724C14.3376 5.7114 14.7497 5.54849 15.248 5.54849C15.7464 5.54849 16.1585 5.7114 16.4843 6.03724C16.8101 6.36307 16.973 6.77515 16.973 7.27349C16.973 7.77182 16.8101 8.1839 16.4843 8.50974C16.1585 8.83557 15.7464 8.99849 15.248 8.99849ZM9.49805 8.99849C8.99971 8.99849 8.58763 8.83557 8.2618 8.50974C7.93596 8.1839 7.77305 7.77182 7.77305 7.27349C7.77305 6.77515 7.93596 6.36307 8.2618 6.03724C8.58763 5.7114 8.99971 5.54849 9.49805 5.54849C9.99638 5.54849 10.4085 5.7114 10.7343 6.03724C11.0601 6.36307 11.223 6.77515 11.223 7.27349C11.223 7.77182 11.0601 8.1839 10.7343 8.50974C10.4085 8.83557 9.99638 8.99849 9.49805 8.99849ZM6.04805 13.5985C5.54971 13.5985 5.13763 13.4356 4.8118 13.1097C4.48596 12.7839 4.32305 12.3718 4.32305 11.8735C4.32305 11.3752 4.48596 10.9631 4.8118 10.6372C5.13763 10.3114 5.54971 10.1485 6.04805 10.1485C6.54638 10.1485 6.95847 10.3114 7.2843 10.6372C7.61013 10.9631 7.77305 11.3752 7.77305 11.8735C7.77305 12.3718 7.61013 12.7839 7.2843 13.1097C6.95847 13.4356 6.54638 13.5985 6.04805 13.5985ZM12.373 21.6485C12.2005 21.6485 12.0614 21.6006 11.9556 21.5047C11.8498 21.4089 11.7973 21.2843 11.798 21.131C11.798 20.8627 11.9418 20.5464 12.2293 20.1822C12.5168 19.8181 12.6605 19.2718 12.6605 18.5435C12.6605 17.7385 12.3826 17.0964 11.8268 16.6172C11.271 16.1381 10.5905 15.8985 9.78555 15.8985H7.77305C6.50805 15.8985 5.42513 15.5297 4.5243 14.7922C3.62346 14.0547 3.17305 12.9093 3.17305 11.356C3.17305 9.03682 4.05931 7.10559 5.83185 5.56229C7.60438 4.01899 9.70811 3.24772 12.143 3.24849C14.7497 3.24849 16.973 4.13974 18.813 5.92224C20.653 7.70474 21.573 9.88015 21.573 12.4485C21.573 14.9977 20.6768 17.1685 18.8843 18.9609C17.0919 20.7534 14.9214 21.6493 12.373 21.6485Z" fill="#2B4DFF"/>
</svg>
