<svg width="23" height="23" viewBox="0 0 23 23" fill="none" xmlns="http://www.w3.org/2000/svg">
<path d="M22.043 16.0442V17.5549H18.6641L22.5928 21.4778L22.6963 21.5823L22.5938 21.6877L21.7588 22.553L21.6523 22.6624L21.5449 22.5549L17.6162 18.6311V21.9758H16.1035V16.0442H22.043ZM11.3984 0.298096C12.9267 0.298101 14.3661 0.588323 15.7148 1.16919C17.0608 1.74885 18.2331 2.53647 19.2295 3.53149C20.2257 4.52642 21.0145 5.69595 21.5957 7.03833C22.1782 8.3837 22.4685 9.82112 22.4678 11.3489C22.4678 11.6794 22.4535 12.0106 22.4248 12.3411C22.3961 12.6717 22.352 13.0028 22.293 13.3333L22.2715 13.4563H20.71L20.748 13.2756C20.8165 12.9544 20.8683 12.6328 20.9033 12.3118L20.9424 11.8303C20.9509 11.6699 20.9551 11.5092 20.9551 11.3489C20.9551 10.8796 20.9218 10.4102 20.8564 9.94067C20.7963 9.50823 20.7013 9.08072 20.5732 8.65747H15.9707C16.0461 9.07087 16.1019 9.48799 16.1348 9.90942L16.1787 10.6292C16.1885 10.8692 16.1934 11.1091 16.1934 11.3489C16.1934 11.6779 16.1838 12.0072 16.165 12.3362C16.1463 12.6652 16.1184 12.9945 16.0801 13.3235L16.0645 13.4563H14.5498L14.5693 13.2893C14.607 12.9661 14.6349 12.6427 14.6533 12.3196C14.6718 11.9962 14.6807 11.6722 14.6807 11.3489C14.6807 10.8766 14.6617 10.4042 14.624 9.93188C14.5898 9.50228 14.5323 9.07766 14.4541 8.65747H8.34961C8.27146 9.07829 8.21397 9.5036 8.17969 9.93384C8.142 10.4079 8.12305 10.8825 8.12305 11.3557C8.12306 11.8287 8.14203 12.3 8.17969 12.7698C8.21394 13.1963 8.27147 13.6198 8.34961 14.0403H13.2314V15.552H8.71484C8.99925 16.5122 9.35727 17.4359 9.79102 18.3225C10.2424 19.2428 10.803 20.1001 11.4707 20.8958C11.769 20.8934 12.0678 20.8784 12.3662 20.8459L13.3438 20.7336L13.5117 20.7131V22.2161L13.3809 22.2327C13.0535 22.2731 12.7258 22.3113 12.3984 22.3469H12.3975C12.0658 22.3822 11.7341 22.3996 11.4023 22.3997C9.87264 22.3997 8.43306 22.1105 7.08594 21.5305C5.74168 20.9517 4.57054 20.1639 3.57422 19.1682C2.57792 18.1725 1.78947 17.0032 1.20898 15.6624C0.627191 14.3185 0.335938 12.8815 0.335938 11.3528C0.33594 9.82414 0.627228 8.3869 1.20898 7.04224C1.78864 5.69895 2.5756 4.52827 3.57031 3.53247C4.56506 2.5367 5.73616 1.74882 7.08203 1.16919C8.43081 0.588338 9.87019 0.298096 11.3984 0.298096ZM2.85254 15.552C3.51609 16.8994 4.4453 18.0305 5.6416 18.9456C6.80116 19.8323 8.09268 20.4158 9.51758 20.6985C8.99311 19.9542 8.54109 19.1705 8.16113 18.3479L8.00293 17.9954C7.65868 17.2055 7.375 16.3909 7.15039 15.552H2.85254ZM2.23242 8.65747C2.10431 9.08143 2.00844 9.50947 1.94824 9.94263V9.9436C1.88212 10.4147 1.84961 10.8857 1.84961 11.3557C1.84963 11.8257 1.88197 12.2941 1.94727 12.761C2.00742 13.191 2.10244 13.6173 2.23047 14.0403H6.83301C6.75767 13.6272 6.70184 13.21 6.66895 12.7883L6.625 12.0657C6.61522 11.8249 6.61035 11.584 6.61035 11.343C6.61035 10.8619 6.62966 10.3824 6.66797 9.90454C6.70158 9.48603 6.75716 9.07036 6.83203 8.65747H2.23242ZM13.2783 1.99048C13.8042 2.73968 14.2484 3.53162 14.6104 4.36646C15.003 5.27207 15.349 6.19895 15.6494 7.14673H19.9531C19.2896 5.78261 18.3635 4.6396 17.1738 3.71704C16.0182 2.82093 14.7203 2.2459 13.2783 1.99048ZM11.3984 1.89185C10.7757 2.66263 10.2386 3.49141 9.78711 4.37817C9.33629 5.26359 8.97868 6.18654 8.71191 7.14673H14.0918C13.8249 6.18719 13.4657 5.27253 13.0107 4.40356C12.5534 3.53013 12.0154 2.69343 11.3984 1.89185ZM9.49805 1.99927C8.06744 2.26963 6.77798 2.84576 5.62891 3.72974C4.44052 4.64443 3.51568 5.78329 2.85156 7.14673H7.13477C7.37082 6.16814 7.69306 5.22801 8.10156 4.32739C8.47452 3.50665 8.9397 2.73032 9.49805 1.99927Z" fill="#2B4DFF" stroke="#2B4DFF" stroke-width="0.3"/>
</svg>
