<svg width="21" height="22" viewBox="0 0 21 22" fill="none" xmlns="http://www.w3.org/2000/svg">
<path d="M0.701754 10.8024C0.701272 12.5436 1.15624 14.2438 2.02135 15.7423L0.619019 20.8624L5.85883 19.4885C7.3081 20.2775 8.93189 20.6909 10.582 20.691H10.5863C16.0336 20.691 20.4678 16.2584 20.4702 10.8102C20.4712 8.17008 19.444 5.68753 17.5777 3.8198C15.7118 1.95223 13.2301 0.923171 10.5859 0.921967C5.13799 0.921967 0.704084 5.35434 0.701834 10.8024" fill="url(#paint0_linear_206_1068)"/>
<path d="M0.351574 10.7991C0.351011 12.603 0.822283 14.364 1.71824 15.9162L0.265625 21.2199L5.69332 19.7967C7.18882 20.6121 8.87261 21.042 10.586 21.0427H10.5904C16.2331 21.0427 20.8266 16.4506 20.829 10.8073C20.83 8.07238 19.7658 5.50059 17.8329 3.56594C15.8997 1.63154 13.3292 0.565456 10.5904 0.564331C4.94669 0.564331 0.353823 5.15575 0.351574 10.7991ZM3.58396 15.6489L3.3813 15.3272C2.52937 13.9726 2.0797 12.4072 2.08035 10.7998C2.08211 6.10914 5.89952 2.29294 10.5936 2.29294C12.8668 2.29391 15.0032 3.18006 16.61 4.78786C18.2168 6.39582 19.1009 8.53329 19.1003 10.8067C19.0982 15.4973 15.2808 19.314 10.5904 19.314H10.587C9.05977 19.3132 7.56194 18.903 6.25568 18.128L5.94482 17.9436L2.72392 18.7881L3.58396 15.6489Z" fill="url(#paint1_linear_206_1068)"/>
<path d="M8.03305 6.5204C7.84139 6.09444 7.63969 6.08584 7.45743 6.07837C7.30819 6.07194 7.13758 6.07243 6.96712 6.07243C6.79651 6.07243 6.51931 6.13661 6.285 6.39244C6.05045 6.64852 5.38953 7.26735 5.38953 8.52598C5.38953 9.7846 6.30628 11.0011 6.43408 11.1719C6.56204 11.3424 8.2039 14.008 10.8042 15.0334C12.9653 15.8856 13.4051 15.7161 13.8741 15.6734C14.3432 15.6308 15.3878 15.0547 15.6009 14.4573C15.8141 13.86 15.8141 13.348 15.7502 13.241C15.6862 13.1344 15.5156 13.0704 15.2598 12.9425C15.004 12.8147 13.7461 12.1957 13.5117 12.1103C13.2771 12.025 13.1066 11.9824 12.936 12.2386C12.7654 12.4943 12.2755 13.0704 12.1261 13.241C11.977 13.412 11.8276 13.4333 11.5719 13.3054C11.3159 13.177 10.492 12.9072 9.5145 12.0357C8.75397 11.3576 8.24053 10.5202 8.09128 10.2641C7.94204 10.0083 8.0753 9.86967 8.20358 9.74219C8.31853 9.62757 8.4595 9.44346 8.58754 9.29413C8.71509 9.14473 8.75767 9.03813 8.84297 8.86752C8.92836 8.69675 8.88563 8.54734 8.82177 8.41939C8.75767 8.29143 8.26053 7.02622 8.03305 6.5204Z" fill="white"/>
<defs>
<linearGradient id="paint0_linear_206_1068" x1="993.177" y1="1994.97" x2="993.177" y2="0.921967" gradientUnits="userSpaceOnUse">
<stop stop-color="#1FAF38"/>
<stop offset="1" stop-color="#60D669"/>
</linearGradient>
<linearGradient id="paint1_linear_206_1068" x1="1028.44" y1="2066.12" x2="1028.44" y2="0.564331" gradientUnits="userSpaceOnUse">
<stop stop-color="#F9F9F9"/>
<stop offset="1" stop-color="white"/>
</linearGradient>
</defs>
</svg>
