<svg width="21" height="21" viewBox="0 0 21 21" fill="none" xmlns="http://www.w3.org/2000/svg">
<mask id="mask0_206_1062" style="mask-type:luminance" maskUnits="userSpaceOnUse" x="0" y="0" width="21" height="21">
<path d="M0.382935 0.209106H20.8291V20.6553H0.382935V0.209106Z" fill="white"/>
</mask>
<g mask="url(#mask0_206_1062)">
<path fill-rule="evenodd" clip-rule="evenodd" d="M20.8291 10.4322C20.8291 16.0779 16.2517 20.6553 10.606 20.6553C4.96032 20.6553 0.382935 16.0779 0.382935 10.4322C0.382935 4.78649 4.96032 0.209106 10.606 0.209106C16.2517 0.209106 20.8291 4.78649 20.8291 10.4322ZM5.49447 14.0103H13.1618V8.38756C13.1618 8.18619 13.1221 7.98678 13.045 7.80073C12.968 7.61469 12.855 7.44564 12.7126 7.30324C12.5702 7.16085 12.4012 7.04789 12.2151 6.97083C12.0291 6.89377 11.8297 6.8541 11.6283 6.8541H3.96101V12.4768C3.96101 12.8835 4.12257 13.2735 4.41015 13.5611C4.55255 13.7035 4.72159 13.8165 4.90764 13.8935C5.09369 13.9706 5.29309 14.0103 5.49447 14.0103ZM14.1841 11.9656L17.251 14.0103V6.8541L14.1841 8.89872V11.9656Z" fill="#2B4DFF"/>
</g>
</svg>
