<svg width="40" height="35" viewBox="0 0 40 35" fill="none" xmlns="http://www.w3.org/2000/svg">
<path d="M13.9949 33.059H20.0237M20.0237 33.059H26.0524M20.0237 33.059V27.2187M20.0237 27.2187H34.0907C35.1566 27.2187 36.1789 26.8085 36.9326 26.0783C37.6864 25.3481 38.1098 24.3578 38.1098 23.3252V5.80419C38.1098 4.77156 37.6864 3.78122 36.9326 3.05104C36.1789 2.32086 35.1566 1.91064 34.0907 1.91064H5.95664C4.8907 1.91064 3.86842 2.32086 3.11468 3.05104C2.36094 3.78122 1.9375 4.77156 1.9375 5.80419V23.3252C1.9375 24.3578 2.36094 25.3481 3.11468 26.0783C3.86842 26.8085 4.8907 27.2187 5.95664 27.2187H20.0237Z" stroke="#FF9D00" stroke-width="3.51675" stroke-linecap="round" stroke-linejoin="round"/>
</svg>
