<svg width="24" height="20" viewBox="0 0 24 20" fill="none" xmlns="http://www.w3.org/2000/svg">
<path d="M23.832 4.44444V2.22222C23.832 1.61111 23.6066 1.08815 23.1558 0.653333C22.705 0.218519 22.1638 0.000740741 21.532 0H3.13203C2.49953 0 1.95788 0.217778 1.50708 0.653333C1.05628 1.08889 0.831268 1.61185 0.832035 2.22222V4.44444H3.13203V2.22222H21.532V4.44444H23.832ZM16.932 20V17.7778H21.532C22.1645 17.7778 22.7058 17.5604 23.1558 17.1256C23.6059 16.6907 23.8313 16.1674 23.832 15.5556V13.3333H21.532V15.5556H3.13203V13.3333H0.832035V15.5556C0.832035 16.1667 1.05705 16.69 1.50708 17.1256C1.95712 17.5611 2.49877 17.7785 3.13203 17.7778H7.73203V20H16.932ZM20.612 8.88889L17.622 6L19.232 4.44444L23.832 8.88889L19.232 13.3333L17.622 11.7778L20.612 8.88889ZM4.05203 8.88889L7.04203 11.7778L5.43203 13.3333L0.832035 8.88889L5.43203 4.44444L7.04203 6L4.05203 8.88889Z" fill="#2B4DFF"/>
</svg>
