<svg width="24" height="22" viewBox="0 0 24 22" fill="none" xmlns="http://www.w3.org/2000/svg">
<path d="M22.6 22C19.8222 22 17.0778 21.4451 14.3667 20.3353C11.6556 19.2256 9.18889 17.6517 6.96667 15.6139C4.74445 13.576 3.028 11.3149 1.81733 8.83056C0.606667 6.34619 0.000888889 3.83044 0 1.28333C0 0.916667 0.133333 0.611111 0.4 0.366667C0.666667 0.122222 1 0 1.4 0H6.8C7.11111 0 7.38889 0.0969629 7.63333 0.290889C7.87778 0.484815 8.02222 0.713778 8.06667 0.977778L8.93333 5.25556C8.97778 5.58148 8.96667 5.85648 8.9 6.08056C8.83333 6.30463 8.71111 6.49815 8.53333 6.66111L5.3 9.65555C5.74444 10.4093 6.272 11.1373 6.88267 11.8397C7.49333 12.542 8.16578 13.2196 8.9 13.8722C9.58889 14.5037 10.3111 15.0896 11.0667 15.6298C11.8222 16.17 12.6222 16.6638 13.4667 17.1111L16.6 14.2389C16.8 14.0556 17.0613 13.9183 17.384 13.827C17.7067 13.7357 18.0231 13.7101 18.3333 13.75L22.9333 14.6056C23.2444 14.687 23.5 14.8349 23.7 15.0492C23.9 15.2635 24 15.5027 24 15.7667V20.7167C24 21.0833 23.8667 21.3889 23.6 21.6333C23.3333 21.8778 23 22 22.6 22ZM4.03333 7.33333L6.23333 5.31667L5.66667 2.44444H2.7C2.81111 3.27963 2.96667 4.10463 3.16667 4.91944C3.36667 5.73426 3.65556 6.53889 4.03333 7.33333ZM15.9667 18.2722C16.8333 18.6185 17.7169 18.8935 18.6173 19.0972C19.5178 19.3009 20.4231 19.4333 21.3333 19.4944V16.8056L18.2 16.225L15.9667 18.2722Z" fill="#2B4DFF"/>
</svg>
