<svg width="24" height="22" viewBox="0 0 24 22" fill="none" xmlns="http://www.w3.org/2000/svg">
<path d="M10.0459 17.7275C11.0249 17.7275 11.8193 18.521 11.8193 19.5C11.8193 20.479 11.0249 21.2725 10.0459 21.2725C9.06697 21.2723 8.27344 20.479 8.27344 19.5C8.27346 18.5211 9.06698 17.7277 10.0459 17.7275ZM18.3193 17.7275C19.2984 17.7275 20.0928 18.521 20.0928 19.5C20.0928 20.479 19.2984 21.2725 18.3193 21.2725C17.3404 21.2723 16.5469 20.479 16.5469 19.5C16.5469 18.5211 17.3404 17.7277 18.3193 17.7275ZM2.75684 0C3.22367 -0.00160407 3.68083 0.135687 4.06934 0.394531C4.45785 0.653402 4.76018 1.02263 4.93848 1.4541L6.30273 4.72754H22.4541C22.6451 4.7276 22.8338 4.77362 23.0029 4.8623C23.172 4.95095 23.3171 5.07938 23.4258 5.23633C23.5347 5.39326 23.6043 5.57508 23.6279 5.76465C23.6515 5.95406 23.6285 6.14644 23.5615 6.3252L20.0166 15.7793C19.8429 16.239 19.402 16.5459 18.9092 16.5459H9.4541C9.221 16.5458 8.99282 16.4759 8.79883 16.3467C8.60493 16.2174 8.45302 16.0335 8.36328 15.8184L2.75684 2.36328H0V0H2.75684ZM10.2432 14.1816H18.0898L20.749 7.09082H7.28809L10.2432 14.1816Z" fill="#FB923C"/>
</svg>
