<svg width="31" height="30" viewBox="0 0 31 30" fill="none" xmlns="http://www.w3.org/2000/svg">
<path d="M12.8105 5.65918C13.5007 5.65939 14.0605 6.21901 14.0605 6.90918C14.0605 7.5994 13.5007 8.15896 12.8105 8.15918H3.72363C3.57328 8.1592 3.42864 8.21896 3.32227 8.3252C3.21589 8.43157 3.1563 8.57613 3.15625 8.72656V26.9014C3.15629 27.0518 3.21588 27.1964 3.32227 27.3027C3.42865 27.409 3.57325 27.4687 3.72363 27.4688H21.8984C22.0487 27.4686 22.1935 27.409 22.2998 27.3027C22.406 27.1964 22.4658 27.0517 22.4658 26.9014V17.8135C22.4661 17.1234 23.0257 16.5635 23.7158 16.5635C24.4058 16.5637 24.9655 17.1235 24.9658 17.8135V26.9014C24.9658 27.7147 24.6424 28.4951 24.0674 29.0703C23.4923 29.6454 22.7118 29.9686 21.8984 29.9688H3.72363C2.9102 29.9687 2.12991 29.6454 1.55469 29.0703C0.979464 28.4951 0.65629 27.7149 0.65625 26.9014V8.72656C0.656301 7.91309 0.979473 7.13283 1.55469 6.55762C2.12991 5.98254 2.91024 5.6592 3.72363 5.65918H12.8105ZM24.7783 0.207031C25.5915 0.20712 26.3711 0.530529 26.9463 1.10547H26.9473L28.2324 2.39062L28.3369 2.50098C28.8464 3.06366 29.1308 3.79691 29.1309 4.55957C29.1308 4.93745 29.0572 5.30702 28.9248 5.65332L29.5166 6.24512L29.7188 6.46777C29.9099 6.70061 30.0659 6.9609 30.1816 7.24023C30.3358 7.61238 30.416 8.01125 30.416 8.41406C30.416 8.81698 30.3359 9.21663 30.1816 9.58887C30.0274 9.96091 29.8015 10.2993 29.5166 10.584L25.5049 14.5947C25.0167 15.0824 24.2253 15.0825 23.7373 14.5947C23.2493 14.1066 23.2493 13.3143 23.7373 12.8262L27.749 8.81641V8.81543C27.8016 8.76287 27.8436 8.70047 27.8721 8.63184C27.9006 8.56303 27.916 8.48855 27.916 8.41406C27.916 8.33967 27.9005 8.26598 27.8721 8.19727C27.8578 8.16282 27.8409 8.12948 27.8203 8.09863L27.749 8.0127L27.3477 7.61133L23.7334 11.2266L16.0225 18.9365C15.8624 19.0965 15.6619 19.2107 15.4424 19.2656L10.3027 20.5508C9.87688 20.6572 9.42567 20.533 9.11523 20.2227C8.80481 19.9123 8.67983 19.461 8.78613 19.0352L10.0703 13.8945C10.1252 13.6748 10.2393 13.4737 10.3994 13.3135L18.1104 5.60156L22.6094 1.10547L22.7197 1C23.2823 0.490885 24.016 0.207098 24.7783 0.207031ZM12.4121 14.835L11.7158 17.6201L14.498 16.9248L21.082 10.3408L18.9932 8.25293L12.4121 14.835ZM24.7783 2.70703C24.628 2.7071 24.4833 2.76682 24.377 2.87305L20.7617 6.48535L22.8496 8.57422L26.4648 4.96094C26.5711 4.85458 26.6308 4.7099 26.6309 4.55957C26.6308 4.40916 26.5712 4.26459 26.4648 4.1582L25.1787 2.87305C25.0724 2.76695 24.9285 2.70712 24.7783 2.70703Z" fill="#C084FC"/>
</svg>
