<svg width="50" height="32" viewBox="0 0 50 32" fill="none" xmlns="http://www.w3.org/2000/svg">
<path d="M41.1055 27.3647C43.316 27.3647 45.1247 25.6126 45.1247 23.4711V4.00341C45.1247 1.86196 43.316 0.109863 41.1055 0.109863H8.95235C6.74182 0.109863 4.93321 1.86196 4.93321 4.00341V23.4711C4.93321 25.6126 6.74182 27.3647 8.95235 27.3647H2.92364C1.81837 27.3647 0.914062 28.2407 0.914062 29.3115C0.914062 30.3822 1.81837 31.2582 2.92364 31.2582H47.1342C48.2395 31.2582 49.1438 30.3822 49.1438 29.3115C49.1438 28.2407 48.2395 27.3647 47.1342 27.3647H41.1055ZM10.9619 4.00341H39.0959C40.2012 4.00341 41.1055 4.87946 41.1055 5.95018V21.5244C41.1055 22.5951 40.2012 23.4711 39.0959 23.4711H10.9619C9.85666 23.4711 8.95235 22.5951 8.95235 21.5244V5.95018C8.95235 4.87946 9.85666 4.00341 10.9619 4.00341Z" fill="#9747FF"/>
</svg>
