<svg width="23" height="23" viewBox="0 0 23 23" fill="none" xmlns="http://www.w3.org/2000/svg">
<path d="M9.39941 4.07422C10.0895 4.07445 10.6493 4.63407 10.6494 5.32422C10.6494 6.01443 10.0896 6.57399 9.39941 6.57422H2.6084C2.57982 6.57422 2.55153 6.58535 2.53125 6.60547C2.51099 6.62573 2.50004 6.65396 2.5 6.68262V20.2646C2.5 20.2934 2.51095 20.3215 2.53125 20.3418C2.55154 20.362 2.57977 20.373 2.6084 20.373H16.1904C16.219 20.3729 16.2474 20.362 16.2676 20.3418C16.2877 20.3215 16.2988 20.2932 16.2988 20.2646V13.4736C16.2989 12.7833 16.8585 12.2236 17.5488 12.2236C18.2389 12.2239 18.7987 12.7835 18.7988 13.4736V20.2646C18.7988 20.9563 18.5241 21.6203 18.0352 22.1094C17.5461 22.5984 16.882 22.8729 16.1904 22.873H2.6084C1.91672 22.873 1.25279 22.5984 0.763672 22.1094C0.274534 21.6202 0 20.9564 0 20.2646V6.68262C3.82302e-05 5.99092 0.274567 5.327 0.763672 4.83789C1.25278 4.34893 1.91678 4.07422 2.6084 4.07422H9.39941ZM18.3428 0C19.0343 6.00069e-05 19.6975 0.274782 20.1865 0.763672L21.1475 1.72461L21.3203 1.91602C21.7005 2.38005 21.9111 2.96324 21.9111 3.56836C21.9111 3.81875 21.8739 4.06572 21.8047 4.30176L22.1074 4.60449C22.3497 4.84667 22.5417 5.1347 22.6729 5.45117C22.8039 5.76755 22.8711 6.10678 22.8711 6.44922C22.871 6.79175 22.804 7.13179 22.6729 7.44824C22.5418 7.76435 22.3494 8.05198 22.1074 8.29395L19.1094 11.291C18.6211 11.7787 17.8288 11.7791 17.3408 11.291C16.8532 10.8029 16.854 10.0114 17.3418 9.52344L20.3398 6.52637C20.3497 6.51649 20.3578 6.50409 20.3633 6.49121C20.3687 6.47819 20.3711 6.46333 20.3711 6.44922C20.3711 6.43519 20.3686 6.42116 20.3633 6.4082C20.3579 6.39511 20.3499 6.38308 20.3398 6.37305L20.2627 6.2959L17.7852 8.77441L12.0225 14.5361C11.8624 14.6961 11.6619 14.8103 11.4424 14.8652L7.60156 15.8262C7.17575 15.9325 6.72446 15.8074 6.41406 15.4971C6.10384 15.1868 5.97883 14.7363 6.08496 14.3105L7.04492 10.4688L7.09668 10.3076C7.15926 10.151 7.25398 10.0079 7.37402 9.8877L13.1367 4.12402L16.498 0.764648V0.763672C16.9871 0.274799 17.6513 0.000106307 18.3428 0ZM9.38672 11.4092L9.01562 12.8945L10.498 12.5244L15.1338 7.88965L14.0195 6.77539L9.38672 11.4092ZM18.3428 2.5C18.3142 2.5001 18.2858 2.51107 18.2656 2.53125V2.53223L15.7871 5.00781L16.9004 6.12207L19.3799 3.64453C19.3998 3.62437 19.411 3.59669 19.4111 3.56836C19.4111 3.55425 19.4086 3.54016 19.4033 3.52734L19.3799 3.49219L18.4189 2.53125C18.3987 2.51121 18.3712 2.50006 18.3428 2.5Z" fill="#FC84E2"/>
</svg>
