<svg width="16" height="16" viewBox="0 0 16 16" fill="none" xmlns="http://www.w3.org/2000/svg">
<path d="M9.2 16C13.0488 15.4175 16 12.078 16 8.04505C16 3.60177 12.4184 0 8 0C3.5816 0 0 3.60177 0 8.04505C0 12.078 2.9512 15.4183 6.8 16V10.4586H5.6C5.28174 10.4586 4.97652 10.3314 4.75147 10.1051C4.52643 9.87881 4.4 9.57186 4.4 9.25181C4.4 8.93176 4.52643 8.62481 4.75147 8.3985C4.97652 8.17219 5.28174 8.04505 5.6 8.04505H6.8V6.43604C6.8 5.68925 7.095 4.97305 7.6201 4.44499C8.1452 3.91693 8.85739 3.62027 9.6 3.62027H10C10.3183 3.62027 10.6235 3.74741 10.8485 3.97372C11.0736 4.20004 11.2 4.50698 11.2 4.82703C11.2 5.14708 11.0736 5.45403 10.8485 5.68034C10.6235 5.90665 10.3183 6.03379 10 6.03379H9.6C9.49391 6.03379 9.39217 6.07617 9.31716 6.15161C9.24214 6.22704 9.2 6.32936 9.2 6.43604V8.04505H10.4C10.7183 8.04505 11.0235 8.17219 11.2485 8.3985C11.4736 8.62481 11.6 8.93176 11.6 9.25181C11.6 9.57186 11.4736 9.87881 11.2485 10.1051C11.0235 10.3314 10.7183 10.4586 10.4 10.4586H9.2V16Z" fill="#2B4DFF"/>
</svg>
