<svg width="22" height="15" viewBox="0 0 22 15" fill="none" xmlns="http://www.w3.org/2000/svg">
<path d="M15.4258 0.858398L15.5381 0.850586L15.5479 0.849609H20.5918L20.6016 0.851562L20.7119 0.866211L20.7217 0.868164L20.7314 0.871094L20.8408 0.901367L20.8506 0.90332L20.8594 0.907227L20.9258 0.935547C21.0054 0.969363 21.0796 1.0142 21.1475 1.06934L21.2139 1.12891L21.2197 1.13379L21.2637 1.18164L21.2715 1.19043V1.19141L21.3203 1.25293L21.3252 1.25977L21.3301 1.26758L21.3896 1.36523L21.3955 1.37305L21.3994 1.38281L21.4463 1.48828L21.4482 1.49707L21.4697 1.56641L21.4727 1.57715L21.4883 1.64648L21.4902 1.65527L21.4912 1.66504L21.501 1.76758L21.502 1.77539V6.69238C21.5018 6.9369 21.4067 7.17169 21.2373 7.34961C21.0677 7.52754 20.8354 7.63583 20.5889 7.65234C20.3425 7.66876 20.0986 7.59278 19.9062 7.43945C19.7137 7.28593 19.5868 7.06568 19.5527 6.82324L19.5518 6.81348L19.5439 6.70215L19.543 6.69238H19.5439V4.12891L12.6816 10.8564C12.5157 11.0192 12.2955 11.1177 12.0625 11.1348C11.8297 11.1518 11.5976 11.0866 11.4092 10.9502L11.4004 10.9434V10.9424L11.3086 10.8652L11.3018 10.8604L11.4043 10.751L11.3018 10.8594L8.05762 7.80566L1.87207 13.8682C1.69721 14.0399 1.46299 14.1403 1.2168 14.1494C0.970627 14.1584 0.729322 14.0753 0.541992 13.917C0.354812 13.7586 0.234442 13.5362 0.207031 13.2939C0.179698 13.0514 0.247575 12.8075 0.395508 12.6123L0.402344 12.6025H0.40332L0.483398 12.5127L0.490234 12.5039L0.491211 12.5049L7.36523 5.76562L7.42969 5.70801C7.58623 5.57997 7.78043 5.50303 7.98438 5.48828C8.18812 5.47363 8.39081 5.52211 8.56445 5.62598L8.63672 5.67383L8.64551 5.67969L8.54883 5.79492L8.64551 5.68066L8.73828 5.75781L8.74512 5.76367H8.74414L11.9883 8.81738L18.1523 2.77539H15.5469C15.3114 2.77507 15.0834 2.69056 14.9053 2.53809C14.7274 2.38567 14.6105 2.17506 14.5781 1.94434L14.5771 1.93359L14.5693 1.82324V1.8125C14.5694 1.57905 14.6557 1.35388 14.8115 1.17871C14.9672 1.00378 15.1817 0.890879 15.415 0.859375L15.4258 0.857422V0.858398Z" fill="#2B4DFF" stroke="#2B4DFF" stroke-width="0.3"/>
</svg>
