<svg width="35" height="35" viewBox="0 0 35 35" fill="none" xmlns="http://www.w3.org/2000/svg">
<path d="M18.0088 0.71875C19.4029 0.766161 20.7858 0.983525 22.1289 1.36719H22.1299C22.3253 1.42201 22.5085 1.51501 22.668 1.64062C22.8273 1.76625 22.9606 1.92247 23.0596 2.09961C23.1585 2.27678 23.2218 2.47228 23.2451 2.67383C23.2684 2.87547 23.2512 3.08025 23.1953 3.27539C23.1394 3.4705 23.0454 3.65281 22.9189 3.81152C22.7924 3.97026 22.6358 4.10317 22.458 4.20117C22.2802 4.29913 22.0846 4.36058 21.8828 4.38281C21.6817 4.40494 21.4784 4.38654 21.2842 4.33008V4.33105C20.0245 3.9715 18.7202 3.79004 17.4102 3.79102C13.6877 3.79108 10.1175 5.2692 7.48535 7.90137C4.85324 10.5335 3.37505 14.1038 3.375 17.8262C3.37504 21.5486 4.85328 25.1188 7.48535 27.751C10.1175 30.3831 13.6877 31.8622 17.4102 31.8623C19.2532 31.8623 21.0785 31.4992 22.7812 30.7939C24.4841 30.0886 26.0316 29.0543 27.335 27.751C28.6383 26.4477 29.6726 24.9001 30.3779 23.1973C31.0832 21.4945 31.4463 19.6692 31.4463 17.8262C31.4463 16.4811 31.2569 15.1818 30.9053 13.9531L30.9023 13.9395C30.8064 13.5522 30.8647 13.1423 31.0645 12.7969C31.2643 12.4518 31.5903 12.1978 31.9736 12.0879C32.3572 11.978 32.7687 12.0209 33.1211 12.208C33.4293 12.3718 33.671 12.6349 33.8096 12.9521L33.8633 13.0908L33.8672 13.1045L34.0195 13.6709C34.3525 15.0027 34.5283 16.3943 34.5283 17.8262C34.5282 27.2799 26.8639 34.9443 17.4102 34.9443C7.95656 34.9442 0.293054 27.2798 0.292969 17.8262C0.293074 8.37258 7.95657 0.709114 17.4102 0.708984L18.0088 0.71875ZM8.05566 31.6992C8.13509 31.7529 8.21551 31.8051 8.2959 31.8574C8.10308 31.7319 7.9128 31.6029 7.72559 31.4697L8.05566 31.6992ZM12.499 8.89648C14.3502 7.87751 16.4719 7.4597 18.5713 7.69922L18.5723 7.69824L18.5742 7.69922C18.5764 7.69941 18.5789 7.69897 18.5811 7.69922L18.5801 7.7002C18.7815 7.71993 18.9777 7.77769 19.1562 7.87305C19.3369 7.9696 19.4968 8.10177 19.626 8.26074C19.7551 8.41983 19.8517 8.60409 19.9092 8.80078C19.9665 8.99735 19.9841 9.20378 19.9609 9.40723C19.9376 9.61085 19.8738 9.80859 19.7734 9.9873C19.6731 10.1659 19.5386 10.3234 19.377 10.4492C19.2151 10.5751 19.029 10.6673 18.8311 10.7207C18.6355 10.7734 18.4313 10.786 18.2305 10.7598C17.2342 10.6446 16.2248 10.7425 15.2686 11.0449C14.3123 11.3474 13.4305 11.8485 12.6816 12.5156C11.9327 13.1829 11.3323 14.0017 10.9219 14.917C10.5116 15.8321 10.3 16.8243 10.2998 17.8271C10.3042 18.7926 10.5044 19.7476 10.8896 20.6328C11.2752 21.5186 11.8379 22.3171 12.542 22.9785C13.2463 23.6399 14.079 24.1512 14.9873 24.4805C15.8956 24.8097 16.8617 24.951 17.8262 24.8945C18.7907 24.838 19.7339 24.5854 20.5977 24.1523C21.4614 23.7192 22.2282 23.1142 22.8506 22.375C23.4728 21.6359 23.9382 20.7774 24.2178 19.8525C24.4973 18.9277 24.5852 17.9551 24.4766 16.9951V16.9941C24.4374 16.7258 24.4703 16.4511 24.5713 16.1992C24.6746 15.942 24.845 15.7169 25.0654 15.5488C25.2861 15.3807 25.5486 15.2755 25.8242 15.2441C26.0988 15.2129 26.3769 15.2567 26.6289 15.3701C27.1442 15.6002 27.4929 16.0918 27.5381 16.6543H27.5371C27.7818 18.7528 27.3693 20.8761 26.3545 22.7295C25.3374 24.587 23.7669 26.082 21.8613 27.0059C19.9557 27.9297 17.809 28.2368 15.7207 27.8848C13.6324 27.5326 11.7054 26.5376 10.208 25.04V25.041C8.7112 23.545 7.71615 21.6196 7.3623 19.5332C7.00861 17.4467 7.31337 15.3013 8.2334 13.3955C9.15367 11.4896 10.6449 9.91713 12.499 8.89648ZM21.249 26.8564C21.281 26.8429 21.3139 26.8313 21.3457 26.8174C21.3658 26.8086 21.3852 26.798 21.4053 26.7891C21.3534 26.8121 21.3012 26.8343 21.249 26.8564ZM28.6602 1.09473C28.7946 1.06086 28.9355 1.06505 29.0684 1.10449L29.0693 1.10254C29.3486 1.18415 29.5513 1.41533 29.6064 1.69238L30.2637 4.97852L33.5488 5.63672C33.8236 5.6917 34.0533 5.893 34.1357 6.16992L34.1592 6.27148C34.1756 6.37375 34.1716 6.47886 34.1465 6.58008C34.1128 6.7153 34.0426 6.83968 33.9443 6.93848L33.9434 6.93945L31.2803 9.60059C30.9372 9.94316 30.4721 10.136 29.9873 10.1367H27.2842L20.543 16.874C20.7351 17.5063 20.7331 18.1839 20.5312 18.8174C20.303 19.5331 19.8345 20.1491 19.2061 20.5605C18.5776 20.9717 17.8262 21.1543 17.0791 21.0771C16.3321 20.9998 15.6336 20.6678 15.1025 20.1367C14.5715 19.6055 14.2393 18.9073 14.1621 18.1602C14.085 17.413 14.2684 16.6617 14.6797 16.0332C15.0911 15.4049 15.7064 14.9372 16.4219 14.709C17.0549 14.5072 17.7324 14.5047 18.3643 14.6963L25.1045 7.95703V5.25488C25.1047 4.76936 25.2976 4.30254 25.6406 3.95898L28.3018 1.29785V1.29883C28.4004 1.19957 28.5245 1.12904 28.6602 1.09473ZM15.0029 16.2451C14.9576 16.3144 14.9159 16.3856 14.877 16.458L15.0039 16.2451C15.046 16.1808 15.0899 16.118 15.1367 16.0576C15.0899 16.118 15.0451 16.1808 15.0029 16.2451ZM25.1055 16.0449C25.0998 16.0519 25.0944 16.0593 25.0889 16.0664C25.1181 16.0287 25.1498 15.9928 25.1836 15.959L25.1055 16.0449ZM10.5684 14.7578C10.4666 14.9847 10.3773 15.2163 10.2988 15.4512C10.3356 15.3413 10.3752 15.2323 10.417 15.124C10.4646 15.0009 10.5152 14.8786 10.5693 14.7578H10.5684ZM25.4912 5.25488V8.11719L18.4688 15.1406L25.4922 8.11719V5.25391C25.4922 5.20807 25.4937 5.16243 25.498 5.11719C25.4937 5.16269 25.4912 5.2088 25.4912 5.25488ZM33.4951 13.2109L33.4609 13.1191C33.4591 13.1148 33.4569 13.1107 33.4551 13.1064C33.4699 13.1405 33.4835 13.1754 33.4951 13.2109ZM31.458 12.8984L31.46 12.8975C31.4647 12.8908 31.4697 12.8844 31.4746 12.8779C31.4694 12.885 31.4631 12.8913 31.458 12.8984ZM31.8857 12.5342C31.8512 12.5513 31.8177 12.5704 31.7852 12.5908C31.845 12.5533 31.9084 12.5212 31.9746 12.4951L31.8857 12.5342ZM30.2861 9.7168C30.3487 9.70346 30.4096 9.68432 30.4697 9.66309C30.4097 9.68443 30.3487 9.70346 30.2861 9.7168ZM30.5225 9.6416C30.5663 9.62416 30.6094 9.60563 30.6514 9.58398C30.6095 9.60572 30.5662 9.62407 30.5225 9.6416ZM30.7002 9.55664C30.7425 9.53267 30.7834 9.50682 30.8232 9.47852C30.7835 9.50682 30.7424 9.53261 30.7002 9.55664ZM30.8721 9.44336C30.8815 9.43606 30.8921 9.4304 30.9014 9.42285L30.9268 9.39941C30.909 9.41469 30.8905 9.42902 30.8721 9.44336ZM22.1689 3.91113C22.1601 3.91495 22.1506 3.91731 22.1416 3.9209C22.1505 3.91736 22.1602 3.91587 22.1689 3.91211L22.2715 3.86133L22.1689 3.91113Z" fill="#FB923C"/>
</svg>
