<svg width="17" height="16" viewBox="0 0 17 16" fill="none" xmlns="http://www.w3.org/2000/svg">
<path d="M4.82835 0H11.8211C14.4851 0 16.6495 2.05052 16.6495 4.57423V11.199C16.6495 12.4121 16.1408 13.5756 15.2353 14.4334C14.3298 15.2913 13.1017 15.7732 11.8211 15.7732H4.82835C2.16443 15.7732 0 13.7227 0 11.199V4.57423C0 3.36107 0.5087 2.19759 1.41419 1.33976C2.31968 0.481926 3.54779 0 4.82835 0ZM4.66186 1.57732C3.86703 1.57732 3.10475 1.87645 2.54272 2.4089C1.98069 2.94134 1.66495 3.6635 1.66495 4.41649V11.3567C1.66495 12.9261 3.00523 14.1959 4.66186 14.1959H11.9876C12.7825 14.1959 13.5447 13.8968 14.1068 13.3643C14.6688 12.8319 14.9845 12.1097 14.9845 11.3567V4.41649C14.9845 2.84706 13.6443 1.57732 11.9876 1.57732H4.66186ZM12.6952 2.76031C12.9712 2.76031 13.2359 2.86417 13.431 3.04905C13.6262 3.23393 13.7358 3.48468 13.7358 3.74613C13.7358 4.00759 13.6262 4.25834 13.431 4.44322C13.2359 4.6281 12.9712 4.73196 12.6952 4.73196C12.4192 4.73196 12.1546 4.6281 11.9594 4.44322C11.7643 4.25834 11.6546 4.00759 11.6546 3.74613C11.6546 3.48468 11.7643 3.23393 11.9594 3.04905C12.1546 2.86417 12.4192 2.76031 12.6952 2.76031ZM8.32474 3.9433C9.42867 3.9433 10.4874 4.35875 11.268 5.09826C12.0486 5.83778 12.4871 6.84077 12.4871 7.8866C12.4871 8.93243 12.0486 9.93542 11.268 10.6749C10.4874 11.4144 9.42867 11.8299 8.32474 11.8299C7.22081 11.8299 6.1621 11.4144 5.3815 10.6749C4.60091 9.93542 4.16237 8.93243 4.16237 7.8866C4.16237 6.84077 4.60091 5.83778 5.3815 5.09826C6.1621 4.35875 7.22081 3.9433 8.32474 3.9433ZM8.32474 5.52062C7.66238 5.52062 7.02715 5.76989 6.5588 6.2136C6.09044 6.6573 5.82732 7.2591 5.82732 7.8866C5.82732 8.5141 6.09044 9.11589 6.5588 9.5596C7.02715 10.0033 7.66238 10.2526 8.32474 10.2526C8.9871 10.2526 9.62233 10.0033 10.0907 9.5596C10.559 9.11589 10.8222 8.5141 10.8222 7.8866C10.8222 7.2591 10.559 6.6573 10.0907 6.2136C9.62233 5.76989 8.9871 5.52062 8.32474 5.52062Z" fill="#2B4DFF"/>
</svg>
