<svg width="15" height="15" viewBox="0 0 15 15" fill="none" xmlns="http://www.w3.org/2000/svg">
<path d="M13.2417 0C13.6807 0 14.1017 0.16413 14.4121 0.456283C14.7225 0.748435 14.8969 1.14468 14.8969 1.55785V12.4628C14.8969 12.8759 14.7225 13.2722 14.4121 13.5643C14.1017 13.8565 13.6807 14.0206 13.2417 14.0206H1.65521C1.21622 14.0206 0.795213 13.8565 0.4848 13.5643C0.174388 13.2722 0 12.8759 0 12.4628V1.55785C0 1.14468 0.174388 0.748435 0.4848 0.456283C0.795213 0.16413 1.21622 0 1.65521 0H13.2417ZM12.8279 12.0733V7.94502C12.8279 7.27156 12.5436 6.62568 12.0377 6.14947C11.5317 5.67326 10.8454 5.40573 10.1299 5.40573C9.42643 5.40573 8.6071 5.81077 8.20985 6.41833V5.55372H5.90083V12.0733H8.20985V8.23322C8.20985 7.63345 8.72297 7.14273 9.36022 7.14273C9.66752 7.14273 9.96222 7.25762 10.1795 7.46212C10.3968 7.66663 10.5189 7.944 10.5189 8.23322V12.0733H12.8279ZM3.21111 4.33081C3.57986 4.33081 3.93351 4.19294 4.19426 3.94754C4.455 3.70213 4.60149 3.36928 4.60149 3.02222C4.60149 2.29782 3.98078 1.70584 3.21111 1.70584C2.84017 1.70584 2.48441 1.84453 2.22211 2.0914C1.95981 2.33827 1.81246 2.6731 1.81246 3.02222C1.81246 3.74662 2.44144 4.33081 3.21111 4.33081ZM4.36148 12.0733V5.55372H2.06902V12.0733H4.36148Z" fill="#2B4DFF"/>
</svg>
