<?xml version="1.0" encoding="UTF-8"?>
<svg version="1.1" xmlns="http://www.w3.org/2000/svg" width="567" height="457">
<path d="M0 0 C1.02867187 0.85851562 1.02867187 0.85851562 2.078125 1.734375 C11.63137257 10.51093578 18.62361109 22.82034445 25 34 C25.639375 35.11375 26.27875 36.2275 26.9375 37.375 C27.40349609 38.19484375 27.40349609 38.19484375 27.87890625 39.03125 C33.27874499 48.54720683 33.27874499 48.54720683 39.1875 57.75 C40.95986677 60.35505353 42.51866123 62.90701917 43.875 65.75 C45.56589568 69.28424916 47.54478411 72.55497544 49.625 75.875 C52.92536762 81.1629496 56.0022111 86.53543612 59 92 C62.4937538 98.36519521 66.11912884 104.5856208 70.015625 110.71484375 C72.27458068 114.45457155 74.3421792 118.27757741 76.42041016 122.11987305 C77.89745614 124.81302783 79.42041556 127.47073349 80.97265625 130.12109375 C115.85907201 189.93038738 115.85907201 189.93038738 109.80859375 213.58984375 C104.96383408 228.03050421 95.40243974 238.93325905 82 246 C79.06578813 246.92551542 76.45173236 247.11600404 73.3833313 247.09092712 C72.46094666 247.08626434 71.53856201 247.08160156 70.58822632 247.07679749 C69.58345245 247.0668425 68.57867859 247.05688751 67.54345703 247.04663086 C65.33879779 247.03385821 63.13413661 247.02141749 60.92947388 247.00926208 C59.76109104 247.00134581 58.59270821 246.99342953 57.38891983 246.98527336 C49.91126084 246.94320199 42.43344498 246.95500136 34.95569038 246.95516109 C28.38005852 246.95215894 21.8053731 246.93134154 15.22998047 246.87329102 C8.87068712 246.81819336 2.51298789 246.81161253 -3.84646988 246.83798409 C-6.26981312 246.83922022 -8.69323289 246.82268545 -11.11632919 246.78806877 C-14.50760031 246.74216789 -17.89334388 246.75829183 -21.28466797 246.78881836 C-22.28539337 246.76064529 -23.28611877 246.73247223 -24.31716919 246.70344543 C-27.20107582 246.76782087 -29.31933842 246.92463782 -32 248 C-34.69558497 251.04196669 -36.32582228 254.32100688 -38 258 C-38.78050954 259.44358831 -39.57025113 260.88228267 -40.375 262.3125 C-40.77589844 263.04339844 -41.17679688 263.77429688 -41.58984375 264.52734375 C-43.29903324 267.5243436 -45.11487216 270.44565316 -46.9375 273.375 C-50.51494557 279.13828518 -53.82833945 285.005081 -57 291 C-57.66 291 -58.32 291 -59 291 C-59.27070313 291.73605469 -59.54140625 292.47210938 -59.8203125 293.23046875 C-60.94857571 295.87927212 -62.22028833 297.96761067 -63.875 300.3125 C-65.7704612 303.08278945 -67.45597181 305.77172531 -68.875 308.8125 C-71.12876188 313.54634294 -74.12801427 317.74480818 -77.06640625 322.07421875 C-78.62465335 324.43205123 -80.03938839 326.76414637 -81.375 329.25 C-84.83911719 335.68835922 -88.84488352 341.80568964 -92.73779297 347.98974609 C-97.2954273 355.24846197 -101.77780194 362.54078343 -106 370 C-107.47084775 372.47677236 -108.95509244 374.94499123 -110.4453125 377.41015625 C-111.43307233 379.05559537 -112.40854003 380.70852513 -113.3671875 382.37109375 C-123.0510039 399.0305406 -133.79063144 412.60734097 -151 422 C-152.28970703 422.72509766 -152.28970703 422.72509766 -153.60546875 423.46484375 C-173.84478702 433.78846501 -195.46589216 432.35795383 -216.50292969 425.84228516 C-221.44621492 424.17486884 -225.74525671 421.99800417 -230 419 C-230.74507812 418.48953125 -231.49015625 417.9790625 -232.2578125 417.453125 C-250.18161034 404.33815097 -261.67197294 386.73479448 -266 365 C-269.14906832 342.40885768 -262.86278291 322.07259078 -251 303 C-246.92980589 296.17921155 -243.07231449 289.35227051 -239.65234375 282.1796875 C-237.77195537 278.56116235 -235.68941943 275.10148465 -233.5769043 271.61474609 C-231.13704803 267.56909496 -228.78285767 263.47596813 -226.4375 259.375 C-225.93009277 258.4883667 -225.42268555 257.6017334 -224.89990234 256.68823242 C-220.32021428 248.6426644 -215.9030498 240.51240644 -211.54077148 232.34716797 C-208.6903917 227.03136175 -205.72021058 221.82753738 -202.58935547 216.67260742 C-199.42809191 211.35673152 -196.4818571 205.91786743 -193.5 200.5 C-189.55312525 193.32874951 -185.58648811 186.18698055 -181.31738281 179.20117188 C-179.35563135 175.92334549 -177.55438624 172.56315388 -175.73828125 169.203125 C-169.24207249 157.23258302 -162.52963529 145.3808947 -155.81811523 133.53027344 C-152.51922155 127.70111328 -149.2437457 121.86001273 -146 116 C-141.65741402 108.15486926 -137.24675089 100.3492121 -132.82739258 92.54711914 C-129.00528036 85.79387341 -125.22352365 79.01947239 -121.46582031 72.23022461 C-118.35839184 66.62370361 -115.1890444 61.05535789 -111.984375 55.50390625 C-109.81222417 51.70378554 -107.73324726 47.85336644 -105.64160156 44.00854492 C-102.78948704 38.78150636 -99.8982078 33.57658693 -97 28.375 C-96.40960938 27.30765625 -95.81921875 26.2403125 -95.2109375 25.140625 C-85.04981409 6.92222311 -74.38059944 -5.0978377 -53.8125 -11.3125 C-34.41749404 -16.37298736 -15.5289278 -13.02115064 0 0 Z M-54.75 47.5625 C-56.66264039 50.22692009 -58.18261915 53.09478605 -59.7421875 55.9765625 C-60.27134766 56.95278564 -60.80050781 57.92900879 -61.34570312 58.93481445 C-61.89162109 59.94632568 -62.43753906 60.95783691 -63 62 C-63.78020508 63.44475708 -63.78020508 63.44475708 -64.57617188 64.91870117 C-65.63221241 66.87549181 -66.68795352 68.83244408 -67.7434082 70.78955078 C-73.03941016 80.60177527 -78.40751045 90.35325364 -84 100 C-88.17909627 107.25736728 -92.31721975 114.53169692 -96.30859375 121.89453125 C-101.8753835 132.1153115 -107.54001819 142.27468372 -113.4375 152.30859375 C-115.42439218 155.73101553 -117.31679145 159.19897286 -119.19921875 162.6796875 C-121.635383 167.17153047 -124.09917116 171.6480106 -126.5625 176.125 C-127.02172852 176.9603125 -127.48095703 177.795625 -127.95410156 178.65625 C-132.56279026 187.03448263 -137.19208916 195.38517251 -142.05859375 203.6171875 C-146.44158059 211.25434364 -150.56371337 219.03929109 -154.74316406 226.7890625 C-159.43632231 235.48446521 -164.1609016 244.14947302 -169.1015625 252.70703125 C-173.8332208 260.91441386 -178.48100623 269.17356673 -183 277.5 C-188.0782059 286.85458982 -193.29907774 296.1331081 -198.6875 305.3125 C-201.91049902 310.81446172 -204.98421939 316.38223193 -208 322 C-208.76814978 323.40759541 -209.53638526 324.81514405 -210.3046875 326.22265625 C-211.12024787 327.73152434 -211.93535197 329.24063914 -212.75 330.75 C-213.33370361 331.81383911 -213.33370361 331.81383911 -213.92919922 332.89916992 C-218.23981586 340.941323 -220.85285828 349.29864432 -218.34765625 358.359375 C-214.73627463 367.34908032 -209.05302082 373.03836041 -200.33203125 377.08984375 C-195.65960248 378.91342148 -191.66840304 379.16233332 -186.625 379.1875 C-185.33851563 379.20167969 -184.05203125 379.21585937 -182.7265625 379.23046875 C-176.94214905 378.87273249 -172.62105481 377.00466547 -167.6875 374.0625 C-166.39392578 373.30646484 -166.39392578 373.30646484 -165.07421875 372.53515625 C-162.7123664 371.09447546 -162.7123664 371.09447546 -162 368 C-161.01 367.67 -160.02 367.34 -159 367 C-157.51041004 364.98396861 -156.18269982 363.00436455 -154.875 360.875 C-154.288396 359.94143677 -154.288396 359.94143677 -153.68994141 358.98901367 C-150.46763917 353.83345894 -147.34147957 348.6187095 -144.23364258 343.39355469 C-142.07132857 339.76158337 -139.85648784 336.17611467 -137.5625 332.625 C-133.70967811 326.62776685 -130.1342474 320.47538038 -126.53515625 314.32421875 C-122.74560567 307.84938602 -118.88342449 301.41887057 -115 295 C-114.54947266 294.25508301 -114.09894531 293.51016602 -113.63476562 292.74267578 C-104.3997665 277.49484809 -104.3997665 277.49484809 -100.6875 272.0625 C-98.03471546 268.17023778 -95.84307704 264.09103218 -93.62109375 259.94140625 C-88.57571568 250.78678049 -82.77893057 242.04533581 -77.078125 233.2890625 C-75.64835444 231.02615496 -74.33295093 228.80575603 -73.0546875 226.46484375 C-66.2619815 214.46439648 -55.81718154 206.5068653 -42.75932693 202.65476036 C-38.4201485 201.62511722 -34.21955038 201.56046144 -29.77685547 201.56762695 C-28.80979172 201.5574353 -27.84272797 201.54724365 -26.84635925 201.53674316 C-23.68657476 201.50682717 -20.52709447 201.49738007 -17.3671875 201.48828125 C-15.16186533 201.4714187 -12.95655268 201.45326635 -10.75125122 201.43388367 C-4.97443619 201.38654888 0.80234023 201.35663275 6.57928467 201.33044434 C12.48522564 201.30055525 18.39103381 201.25405369 24.296875 201.20898438 C35.86451362 201.12313929 47.43217972 201.05571062 59 201 C59.33 200.34 59.66 199.68 60 199 C58.96767362 196.64409981 58.96767362 196.64409981 57.39453125 194.01953125 C56.82283203 193.01986328 56.25113281 192.02019531 55.66210938 190.99023438 C55.05173828 189.94158203 54.44136719 188.89292969 53.8125 187.8125 C53.22146484 186.78318359 52.63042969 185.75386719 52.02148438 184.69335938 C50.35414117 181.79177327 48.67773644 178.8955844 47 176 C44.72132252 172.03666704 42.46501332 168.0618296 40.25 164.0625 C39.60804688 162.90427734 39.60804688 162.90427734 38.953125 161.72265625 C38.63859375 161.15417969 38.3240625 160.58570313 38 160 C37.34 160 36.68 160 36 160 C35.90074219 159.29101562 35.80148437 158.58203125 35.69921875 157.8515625 C34.89376853 154.56676552 33.57337083 152.259252 31.8125 149.375 C29.49630077 145.51780007 27.24319288 141.65688665 25.125 137.6875 C22.70873428 133.21030176 20.13498335 128.85015171 17.5 124.5 C13.82155949 118.42320713 10.34380188 112.26843772 7 106 C1.66793405 96.05333263 -3.96067277 86.27857512 -9.57519531 76.48974609 C-10.81359912 74.32572244 -12.04590502 72.15848286 -13.2734375 69.98828125 C-15.16345596 66.64783648 -17.07459628 63.32021602 -19 60 C-19.34015137 59.41186523 -19.68030273 58.82373047 -20.03076172 58.21777344 C-21.07157916 56.42981319 -22.12707478 54.65138748 -23.1875 52.875 C-23.79980469 51.84117188 -24.41210938 50.80734375 -25.04296875 49.7421875 C-28.89682711 44.3421704 -32.89271456 42.13435219 -39.3046875 41.0625 C-45.46367003 40.91968301 -50.32542285 43.43959857 -54.75 47.5625 Z " fill="#0A5796" transform="translate(278,20)"/>
<path d="M0 0 C1.66288423 0.6005698 3.30542078 1.25765775 4.9375 1.9375 C16.08516697 5.79217521 29.17176344 5.79514578 39.96875 0.875 C42 0 42 0 45 0 C46.12385598 6.30182773 46.14112088 12.47695737 46.12939453 18.86694336 C46.13202301 20.63410454 46.13202301 20.63410454 46.13470459 22.43696594 C46.13833956 25.65187612 46.13750435 28.8667448 46.1343255 32.08165431 C46.13178235 35.4571521 46.13414493 38.83264724 46.13571167 42.20814514 C46.13752792 47.87631727 46.13514161 53.54447634 46.13037109 59.21264648 C46.12493215 65.75018452 46.12669066 72.28769135 46.1321975 78.82522863 C46.1367473 84.45347641 46.13736997 90.08171483 46.13475883 95.70996386 C46.13320598 99.06472228 46.13337203 102.41945438 46.13629532 105.77421379 C46.13884114 109.51738453 46.13495386 113.26049579 46.12939453 117.00366211 C46.13141876 118.10469269 46.13344299 119.20572327 46.13552856 120.34011841 C46.12002369 125.98934585 45.84564581 131.4125418 45 137 C44.34 137 43.68 137 43 137 C43.1959375 137.5671875 43.391875 138.134375 43.59375 138.71875 C44.96090055 146.39582618 37.17034759 157.021817 33 163 C32.34 163 31.68 163 31 163 C30.7525 163.5775 30.505 164.155 30.25 164.75 C28.81700012 167.32939979 27.21575324 169.06121592 25 171 C24.34 171 23.68 171 23 171 C22.67 171.99 22.34 172.98 22 174 C20.35 174.33 18.7 174.66 17 175 C17 175.66 17 176.32 17 177 C3.20458858 184.7217679 -13.41332772 188.64541879 -28.95629883 184.421875 C-47.42069005 178.86174756 -58.52099723 167.82073833 -69 152 C-69.33 151.01 -69.66 150.02 -70 149 C-70.99 148.01 -70.99 148.01 -72 147 C-74.97715314 143.65070272 -75.92188085 140.31247661 -77 136 C-77.66 136 -78.32 136 -79 136 C-79.83337891 134.27523437 -79.83337891 134.27523437 -80.68359375 132.515625 C-82.89591395 128.09293293 -85.41623962 123.92371202 -88.0625 119.75 C-88.7131543 118.70972656 -88.7131543 118.70972656 -89.37695312 117.6484375 C-91.10824807 114.89733868 -92.82979848 112.22203395 -94.80859375 109.640625 C-96 108 -96 108 -96 106 C-96.66 106 -97.32 106 -98 106 C-98.433125 104.906875 -98.86625 103.81375 -99.3125 102.6875 C-100.24294447 100.49305549 -100.86545141 99.13454859 -102.5625 97.4375 C-104.69137587 95.30862413 -105.17855615 92.84345949 -106 90 C-106.66 90 -107.32 90 -108 90 C-108 89.34 -108 88.68 -108 88 C-108.66 87.67 -109.32 87.34 -110 87 C-111.01691264 85.00854609 -112.01642648 83.00812926 -113 81 C-113.66 80.34 -114.32 79.68 -115 79 C-116.58189467 76.02603803 -117.93419207 73.1974238 -119 70 C-119.66 70 -120.32 70 -121 70 C-123.91266376 63.41484716 -123.91266376 63.41484716 -124.5 60.625 C-124.665 60.08875 -124.83 59.5525 -125 59 C-125.99 58.67 -126.98 58.34 -128 58 C-128.495 56.515 -128.495 56.515 -129 55 C-129.66 54.34 -130.32 53.68 -131 53 C-132.03161608 51.01612292 -133.03523618 49.01723344 -134 47 C-130.93046751 45.22097274 -128.72058283 44.75104851 -125.18725586 44.75708008 C-124.23624496 44.75400345 -123.28523407 44.75092682 -122.30540466 44.74775696 C-121.28551956 44.75494247 -120.26563446 44.76212799 -119.21484375 44.76953125 C-118.1622084 44.76998947 -117.10957306 44.77044769 -116.02503967 44.7709198 C-113.8017565 44.77393865 -111.57847538 44.78181395 -109.35522461 44.79418945 C-105.9470269 44.81244896 -102.53910091 44.81469905 -99.13085938 44.81445312 C-96.97135181 44.8193684 -94.81184609 44.82519676 -92.65234375 44.83203125 C-91.63043442 44.83314407 -90.60852509 44.8342569 -89.5556488 44.83540344 C-88.1338607 44.84497322 -88.1338607 44.84497322 -86.68334961 44.85473633 C-85.43236732 44.86045403 -85.43236732 44.86045403 -84.15611267 44.86628723 C-82 45 -82 45 -79 46 C-77.96210419 47.64333504 -76.96432076 49.31243867 -76 51 C-75.52046875 51.46535156 -75.0409375 51.93070312 -74.546875 52.41015625 C-72.82579498 54.17904405 -71.87903662 55.87200994 -70.75 58.0625 C-67.48790344 64.10523911 -63.50695535 69.5945619 -59.44140625 75.1171875 C-56 79.81621813 -56 79.81621813 -56 82 C-55.34 82 -54.68 82 -54 82 C-52.93360356 83.62498505 -51.95289657 85.30596166 -51 87 C-50.15372796 88.40063379 -49.29911195 89.79625012 -48.4375 91.1875 C-48.02371094 91.86167969 -47.60992187 92.53585937 -47.18359375 93.23046875 C-45.98880435 95.14094154 -45.98880435 95.14094154 -44 97 C-43.71898437 97.56976563 -43.43796875 98.13953125 -43.1484375 98.7265625 C-41.59209351 101.80748835 -39.60925818 104.56072533 -37.625 107.375 C-36.07913486 109.58043426 -34.53767693 111.78884951 -33 114 C-32.61038086 114.55461914 -32.22076172 115.10923828 -31.81933594 115.68066406 C-29 119.77180617 -29 119.77180617 -29 122 C-28.34 122 -27.68 122 -27 122 C-26.02315499 123.56824816 -25.11800553 125.18148961 -24.25 126.8125 C-21.72532294 131.12829177 -20.03880276 133.66317478 -15 135 C-11.38406352 134.75485176 -8.42989787 134.14329929 -5 133 C-2.83134382 127.69884044 -1.87382092 122.5104527 -1.87974548 116.80509949 C-1.87837082 115.78011353 -1.87699615 114.75512756 -1.87557983 113.69908142 C-1.87917511 112.58561844 -1.88277039 111.47215546 -1.88647461 110.32495117 C-1.88625557 108.55358292 -1.88625557 108.55358292 -1.8860321 106.74642944 C-1.88660847 103.51747225 -1.89161611 100.28855866 -1.89860606 97.05961013 C-1.90486677 93.68169454 -1.90544555 90.30377804 -1.90663147 86.92585754 C-1.90973678 80.53343373 -1.91793937 74.14102706 -1.92798096 67.74861079 C-1.93916696 60.46931287 -1.94465881 53.19001412 -1.94967639 45.91070974 C-1.96012266 30.94046361 -1.97770659 15.97023352 -2 1 C-1.34 0.67 -0.68 0.34 0 0 Z " fill="#47AE50" transform="translate(441,266)"/>
<path d="M0 0 C0 0.66 0 1.32 0 2 C0.721875 2.2475 1.44375 2.495 2.1875 2.75 C5.27606582 4.12269592 7.51011418 5.72353296 10 8 C10 8.66 10 9.32 10 10 C10.66 10 11.32 10 12 10 C16.66118738 16.49707957 20.02240143 23.05352017 21 31 C21.19722656 32.27037109 21.19722656 32.27037109 21.3984375 33.56640625 C22.0839878 38.67756463 21.95042881 42.12392797 20 47 C20.33 47.66 20.66 48.32 21 49 C20.01 49.99 20.01 49.99 19 51 C18.24223736 52.68698982 17.53888218 54.39890633 16.875 56.125 C16.52179688 57.03507812 16.16859375 57.94515625 15.8046875 58.8828125 C15.53914063 59.58148438 15.27359375 60.28015625 15 61 C14.34 61 13.68 61 13 61 C13 61.66 13 62.32 13 63 C12.34 63 11.68 63 11 63 C10.73832031 63.59554687 10.47664063 64.19109375 10.20703125 64.8046875 C7.81286322 69.15912904 3.68003747 72.14044595 -0.6875 74.375 C-3 75 -3 75 -7 75 C-7 75.66 -7 76.32 -7 77 C-21.6796598 79.78445747 -34.49796042 78.22968904 -47 70 C-49.32421875 67.9296875 -49.32421875 67.9296875 -51 66 C-51 65.34 -51 64.68 -51 64 C-51.66 64 -52.32 64 -53 64 C-53.12375 63.360625 -53.2475 62.72125 -53.375 62.0625 C-53.58125 61.381875 -53.7875 60.70125 -54 60 C-54.66 59.67 -55.32 59.34 -56 59 C-59.23218722 54.69041704 -60.01196178 50.16819993 -61 45 C-61.20625 44.175 -61.4125 43.35 -61.625 42.5 C-63.20800641 31.94662393 -60.57452901 22.05860964 -55 13 C-53.0625 10.8125 -53.0625 10.8125 -51 9 C-50.319375 8.21625 -49.63875 7.4325 -48.9375 6.625 C-35.61396318 -5.28113929 -16.16965384 -7.54583846 0 0 Z " fill="#47AD50" transform="translate(483,164)"/>
<path d="" fill="#1C7083" transform="translate(0,0)"/>
<path d="" fill="#1C7083" transform="translate(0,0)"/>
<path d="" fill="#1C7083" transform="translate(0,0)"/>
<path d="" fill="#1C7083" transform="translate(0,0)"/>
<path d="" fill="#1C7083" transform="translate(0,0)"/>
</svg>
