<svg width="37" height="37" viewBox="0 0 37 37" fill="none" xmlns="http://www.w3.org/2000/svg">
<path d="M33.6804 19.7096C33.3882 19.383 33.2272 18.9631 33.2272 18.5283C33.2272 18.0936 33.3882 17.6737 33.6804 17.347L36.0126 14.7697C36.2695 14.4882 36.4291 14.1338 36.4684 13.7576C36.5077 13.3814 36.4246 13.0027 36.2312 12.6757L32.5871 6.48299C32.3956 6.15639 32.1041 5.89751 31.754 5.74325C31.4039 5.58898 31.0132 5.54721 30.6376 5.62389L27.2122 6.30401C26.7763 6.39248 26.3225 6.32118 25.9365 6.10356C25.5505 5.88594 25.2589 5.53706 25.1168 5.12275L24.0054 1.84742C23.8832 1.49193 23.6503 1.18317 23.3397 0.964773C23.0291 0.746376 22.6564 0.629395 22.2745 0.630364H14.9864C14.589 0.609992 14.1958 0.717932 13.8668 0.937697C13.5378 1.15746 13.2911 1.47697 13.1643 1.84742L12.144 5.12275C12.0019 5.53706 11.7103 5.88594 11.3243 6.10356C10.9383 6.32118 10.4845 6.39248 10.0487 6.30401L6.53214 5.62389C6.17603 5.57446 5.81299 5.62966 5.48875 5.78254C5.16452 5.93542 4.8936 6.17914 4.71011 6.48299L1.06606 12.6757C0.86775 12.999 0.778583 13.3756 0.811308 13.7517C0.844032 14.1279 0.996972 14.4842 1.24826 14.7697L3.56224 17.347C3.85434 17.6737 4.01544 18.0936 4.01544 18.5283C4.01544 18.9631 3.85434 19.383 3.56224 19.7096L1.24826 22.2869C0.996972 22.5725 0.844032 22.9288 0.811308 23.3049C0.778583 23.681 0.86775 24.0576 1.06606 24.3809L4.71011 30.5736C4.90161 30.9002 5.19317 31.1591 5.54324 31.3134C5.89331 31.4676 6.28403 31.5094 6.65968 31.4327L10.0851 30.7526C10.521 30.6641 10.9747 30.7354 11.3607 30.9531C11.7467 31.1707 12.0383 31.5196 12.1804 31.9339L13.2919 35.2092C13.4186 35.5797 13.6654 35.8992 13.9944 36.1189C14.3234 36.3387 14.7166 36.4466 15.1139 36.4263H22.402C22.784 36.4272 23.1566 36.3102 23.4672 36.0919C23.7778 35.8735 24.0107 35.5647 24.1329 35.2092L25.2444 31.9339C25.3865 31.5196 25.6781 31.1707 26.0641 30.9531C26.4501 30.7354 26.9038 30.6641 27.3397 30.7526L30.7651 31.4327C31.1408 31.5094 31.5315 31.4676 31.8816 31.3134C32.2316 31.1591 32.5232 30.9002 32.7147 30.5736L36.3587 24.3809C36.5522 24.054 36.6352 23.6752 36.5959 23.299C36.5567 22.9228 36.3971 22.5685 36.1401 22.2869L33.6804 19.7096ZM30.9655 22.1079L32.4232 23.7187L30.091 27.6921L27.941 27.2625C26.6287 26.999 25.2636 27.218 24.1049 27.8778C22.9461 28.5377 22.0743 29.5925 21.655 30.8421L20.9626 32.8467H16.2982L15.6423 30.8063C15.2229 29.5567 14.3512 28.5019 13.1924 27.8421C12.0336 27.1822 10.6685 26.9632 9.35628 27.2267L7.20629 27.6563L4.83766 23.7008L6.29528 22.09C7.19163 21.1056 7.68718 19.8312 7.68718 18.5104C7.68718 17.1897 7.19163 15.9153 6.29528 14.9308L4.83766 13.32L7.16985 9.38246L9.31984 9.81201C10.6321 10.0755 11.9972 9.85654 13.1559 9.19668C14.3147 8.53681 15.1865 7.48198 15.6058 6.23242L16.2982 4.20995H20.9626L21.655 6.25032C22.0743 7.49988 22.9461 8.55471 24.1049 9.21457C25.2636 9.87444 26.6287 10.0934 27.941 9.82991L30.091 9.40036L32.4232 13.3737L30.9655 14.9845C30.0792 15.9667 29.5898 17.2337 29.5898 18.5462C29.5898 19.8587 30.0792 21.1257 30.9655 22.1079ZM18.6304 11.3691C17.189 11.3691 15.7799 11.789 14.5813 12.5757C13.3828 13.3623 12.4487 14.4804 11.8971 15.7886C11.3454 17.0968 11.2011 18.5363 11.4823 19.925C11.7635 21.3137 12.4577 22.5894 13.4769 23.5906C14.4962 24.5918 15.7948 25.2737 17.2086 25.5499C18.6223 25.8262 20.0877 25.6844 21.4194 25.1425C22.7512 24.6007 23.8894 23.6831 24.6902 22.5057C25.4911 21.3284 25.9185 19.9443 25.9185 18.5283C25.9185 16.6296 25.1507 14.8086 23.7839 13.466C22.4171 12.1234 20.5633 11.3691 18.6304 11.3691ZM18.6304 22.1079C17.9097 22.1079 17.2051 21.898 16.6059 21.5046C16.0066 21.1113 15.5395 20.5522 15.2637 19.8982C14.9879 19.2441 14.9158 18.5243 15.0564 17.83C15.197 17.1356 15.544 16.4978 16.0537 15.9972C16.5633 15.4965 17.2126 15.1556 17.9195 15.0175C18.6264 14.8794 19.3591 14.9503 20.0249 15.2212C20.6908 15.4921 21.2599 15.9509 21.6603 16.5396C22.0607 17.1283 22.2745 17.8203 22.2745 18.5283C22.2745 19.4777 21.8905 20.3882 21.2071 21.0595C20.5237 21.7308 19.5969 22.1079 18.6304 22.1079Z" fill="#9F40FF"/>
</svg>
