<svg width="20" height="17" viewBox="0 0 20 17" fill="none" xmlns="http://www.w3.org/2000/svg">
<path d="M11.2263 8.14998L13.1575 10.3574L15.7546 12.0169L16.2064 8.16391L15.7546 4.39783L13.1078 5.85562L11.2263 8.14998Z" fill="#00832D"/>
<path d="M0.0178223 11.6584V14.9417C0.0178223 15.6914 0.62635 16.3 1.37618 16.3H4.65947L5.33934 13.8193L4.65947 11.6584L2.4069 10.9785L0.0178223 11.6584Z" fill="#0066DA"/>
<path d="M4.65947 0L0.0178223 4.64165L2.40705 5.3199L4.65947 4.64165L5.32696 2.51018L4.65947 0Z" fill="#E94235"/>
<path d="M0.0178223 11.6598H4.65939V4.64163H0.0178223V11.6598Z" fill="#2684FC"/>
<path d="M18.7191 1.96543L15.7539 4.39799V12.017L18.7313 14.459C19.177 14.8081 19.829 14.4899 19.829 13.9233V2.49023C19.829 1.91737 19.1615 1.60073 18.719 1.9655" fill="#00AC47"/>
<path d="M11.2263 8.14999V11.6583H4.66138V16.3H14.3963C15.1461 16.3 15.7546 15.6913 15.7546 14.9416V12.0169L11.2263 8.14999Z" fill="#00AC47"/>
<path d="M14.3963 0H4.66138V4.64165H11.2263V8.14997L15.7546 4.39774V1.35843C15.7546 0.608605 15.1461 7.73815e-05 14.3963 7.73815e-05" fill="#FFBA00"/>
</svg>
