<svg width="15" height="24" viewBox="0 0 15 24" fill="none" xmlns="http://www.w3.org/2000/svg">
<path d="M11.895 0H2.15583C0.98713 0 0.0253906 1.08343 0.0253906 2.4V21.6C0.0253906 22.9166 0.98713 24 2.15583 24H11.895C13.0637 24 14.0254 22.9166 14.0254 21.6V2.4C14.0254 1.08343 13.0637 0 11.895 0ZM12.1993 21.6C12.1993 21.792 12.0654 21.9429 11.895 21.9429H2.15583C1.98539 21.9429 1.85148 21.792 1.85148 21.6V2.4C1.85148 2.208 1.98539 2.05714 2.15583 2.05714H11.895C12.0654 2.05714 12.1993 2.208 12.1993 2.4V21.6ZM8.24278 17.4857C8.24278 18.24 7.69496 18.8571 7.02539 18.8571C6.35583 18.8571 5.808 18.24 5.808 17.4857C5.808 16.7314 6.35583 16.1143 7.02539 16.1143C7.69496 16.1143 8.24278 16.7314 8.24278 17.4857Z" fill="#2B4DFF"/>
</svg>
