<svg width="23" height="39" viewBox="0 0 23 39" fill="none" xmlns="http://www.w3.org/2000/svg">
<path d="M18.8743 0.339355H3.49666C1.65135 0.339355 0.132812 2.06299 0.132812 4.15754V34.703C0.132812 36.7976 1.65135 38.5212 3.49666 38.5212H18.8743C20.7196 38.5212 22.2381 36.7976 22.2381 34.703V4.15754C22.2381 2.06299 20.7196 0.339355 18.8743 0.339355ZM19.3548 34.703C19.3548 35.0085 19.1434 35.2485 18.8743 35.2485H3.49666C3.22755 35.2485 3.01611 35.0085 3.01611 34.703V4.15754C3.01611 3.85209 3.22755 3.61209 3.49666 3.61209H18.8743C19.1434 3.61209 19.3548 3.85209 19.3548 4.15754V34.703ZM13.1077 28.1576C13.1077 29.3576 12.2427 30.3394 11.1855 30.3394C10.1283 30.3394 9.26326 29.3576 9.26326 28.1576C9.26326 26.9576 10.1283 25.9758 11.1855 25.9758C12.2427 25.9758 13.1077 26.9576 13.1077 28.1576Z" fill="#2B4DFF"/>
</svg>
