<svg width="21" height="21" viewBox="0 0 21 21" fill="none" xmlns="http://www.w3.org/2000/svg">
<path d="M9.28906 13.9834H16.2559V16.3057H9.28906V13.9834ZM6.96679 4.69433H4.64453V7.0166H6.96679V4.69433ZM9.28906 11.6611H16.2559V9.33886H9.28906V11.6611ZM9.28906 7.0166H16.2559V4.69433H9.28906V7.0166ZM6.96679 9.33886H4.64453V11.6611H6.96679V9.33886ZM20.9004 2.37207V18.6279C20.9004 19.9052 19.8554 20.9502 18.5781 20.9502H2.32226C1.04502 20.9502 0 19.9052 0 18.6279V2.37207C0 1.09482 1.04502 0.0498047 2.32226 0.0498047H18.5781C19.8554 0.0498047 20.9004 1.09482 20.9004 2.37207ZM18.5781 2.37207H2.32226V18.6279H18.5781V2.37207ZM6.96679 13.9834H4.64453V16.3057H6.96679V13.9834Z" fill="#2B4DFF"/>
</svg>
