<svg width="17" height="16" viewBox="0 0 17 16" fill="none" xmlns="http://www.w3.org/2000/svg">
<path d="M8.25586 0.441406C12.557 0.441577 16.0352 3.91954 16.0352 8.2207C16.0349 12.5216 12.5568 15.9998 8.25586 16C3.95495 15.9998 0.476867 12.5216 0.476562 8.2207C0.476562 3.91956 3.95476 0.441598 8.25586 0.441406ZM7.87109 15.668L8.25586 15.6777C8.00434 15.6777 7.75581 15.6649 7.51074 15.6406C7.63006 15.6524 7.75018 15.6618 7.87109 15.668ZM8.25586 1.96191C4.79252 1.96211 1.99707 4.75732 1.99707 8.2207C1.99737 11.6838 4.79271 14.4793 8.25586 14.4795C11.719 14.4793 14.5143 11.6838 14.5146 8.2207C14.5146 4.7573 11.7192 1.96208 8.25586 1.96191ZM9.02344 7.45996H12.5332V8.98047H9.02344V12.4902H7.50293V8.98047H3.99414V7.45996H7.50293V3.95117H9.02344V7.45996ZM14.7305 9.39062C14.7404 9.33505 14.7522 9.27969 14.7607 9.22363L14.7637 9.20312C14.7543 9.26607 14.7416 9.32829 14.7305 9.39062ZM14.7705 9.14355C14.7835 9.05048 14.7935 8.95663 14.8027 8.8623C14.7933 8.95659 14.7835 9.05044 14.7705 9.14355ZM14.8076 8.80078C14.8136 8.73397 14.8193 8.66698 14.8232 8.59961C14.8194 8.667 14.8136 8.73398 14.8076 8.80078ZM14.8271 8.52832C14.832 8.42667 14.8349 8.32448 14.835 8.22168C14.8349 8.3245 14.8318 8.42667 14.8271 8.52832ZM14.8291 7.94336C14.8334 8.03501 14.8349 8.12715 14.835 8.21973H14.8359C14.8359 8.1271 14.8334 8.03499 14.8291 7.94336Z" fill="#2B4DFF"/>
</svg>
