<svg width="24" height="24" viewBox="0 0 24 24" fill="none" xmlns="http://www.w3.org/2000/svg">
<path d="M12.0039 0C13.124 -0.00107452 14.2374 0.155029 15.3145 0.462891C15.4194 0.49233 15.5179 0.541927 15.6035 0.609375C15.6892 0.67691 15.7613 0.761192 15.8145 0.856445C15.8674 0.951474 15.9015 1.05599 15.9141 1.16406C15.9266 1.27241 15.9167 1.38245 15.8867 1.4873C15.8567 1.59218 15.8063 1.69009 15.7383 1.77539C15.6704 1.86058 15.5866 1.93175 15.4912 1.98438C15.3957 2.03703 15.2901 2.07009 15.1816 2.08203C15.0733 2.09392 14.964 2.08426 14.8594 2.05371C13.9308 1.78867 12.9695 1.65459 12.0039 1.65527C9.25947 1.65527 6.62714 2.74591 4.68652 4.68652C2.74591 6.62714 1.65527 9.25947 1.65527 12.0039C1.65535 14.7482 2.7461 17.3798 4.68652 19.3203C6.62714 21.2609 9.25947 22.3516 12.0039 22.3516C13.3627 22.3515 14.7085 22.0835 15.9639 21.5635C17.2192 21.0434 18.3595 20.2811 19.3203 19.3203C20.2811 18.3595 21.0434 17.2192 21.5635 15.9639C22.0835 14.7085 22.3515 13.3627 22.3516 12.0039C22.3516 11.0128 22.2125 10.0546 21.9531 9.14844C21.9016 8.94037 21.9327 8.71974 22.04 8.53418C22.1473 8.34883 22.3224 8.21238 22.5283 8.15332C22.7343 8.09429 22.9553 8.11736 23.1445 8.21777C23.3339 8.31831 23.4775 8.48859 23.5439 8.69238C23.8463 9.74533 24.0068 10.856 24.0068 12.0039C24.0067 18.633 18.633 24.0067 12.0039 24.0068C5.37471 24.0068 0.000162185 18.6331 0 12.0039C0 5.37461 5.37461 0 12.0039 0ZM8.61523 5.83984C9.89496 5.1354 11.3622 4.84671 12.8135 5.01367C12.9232 5.02386 13.0298 5.05554 13.127 5.10742C13.224 5.15923 13.3095 5.23012 13.3789 5.31543C13.4484 5.4009 13.5003 5.49977 13.5312 5.60547C13.5622 5.71121 13.5721 5.82218 13.5596 5.93164C13.5471 6.0411 13.5129 6.1471 13.459 6.24316C13.405 6.33924 13.3321 6.42355 13.2451 6.49121C13.1582 6.55882 13.0585 6.60806 12.9521 6.63672C12.8459 6.66535 12.7351 6.67295 12.626 6.6582C11.8722 6.57105 11.1083 6.64424 10.3848 6.87305C9.66122 7.1019 8.99435 7.48152 8.42773 7.98633C7.8612 8.49106 7.40721 9.10945 7.09668 9.80176C6.78614 10.4942 6.62609 11.245 6.62598 12.0039C6.62908 12.7349 6.78057 13.4577 7.07227 14.1279C7.36397 14.7982 7.78946 15.4019 8.32227 15.9023C8.85516 16.4028 9.48458 16.7899 10.1719 17.0391C10.8592 17.2882 11.5905 17.3943 12.3203 17.3516C13.05 17.3088 13.7636 17.1176 14.417 16.79C15.0703 16.4624 15.6504 16.0054 16.1211 15.4463C16.5919 14.887 16.9438 14.2369 17.1553 13.5371C17.3667 12.8375 17.4328 12.1022 17.3506 11.376C17.3274 11.2289 17.3449 11.0777 17.4004 10.9395C17.4558 10.8014 17.5477 10.681 17.666 10.5908C17.7845 10.5005 17.9253 10.4436 18.0732 10.4268C18.2212 10.4099 18.3711 10.4338 18.5068 10.4951C18.7837 10.6188 18.9698 10.8823 18.9941 11.1846C19.1655 12.6363 18.8807 14.1055 18.1787 15.3877C17.4767 16.6699 16.3925 17.7012 15.0771 18.3389C13.7617 18.9765 12.2803 19.1894 10.8389 18.9463C9.3974 18.7032 8.06771 18.0162 7.03418 16.9824C6.00108 15.9498 5.3145 14.6217 5.07031 13.1816C4.82616 11.7414 5.03671 10.2608 5.67188 8.94531C6.30706 7.62981 7.33549 6.54431 8.61523 5.83984ZM20.2881 0.271484C20.3863 0.30017 20.4596 0.382039 20.4795 0.482422L20.9873 3.02246L23.5254 3.53027C23.6246 3.55012 23.7066 3.62265 23.7354 3.7207C23.7498 3.76842 23.7513 3.81977 23.7393 3.86816C23.7272 3.91651 23.7021 3.96077 23.667 3.99609L21.7559 5.90527C21.5617 6.09923 21.2989 6.20857 21.0244 6.20898H18.9707L13.9307 11.2471C14.1041 11.6893 14.1199 12.1782 13.9756 12.6309C13.8312 13.0835 13.5351 13.4722 13.1377 13.7324C12.7401 13.9927 12.2647 14.1084 11.792 14.0596C11.3195 14.0107 10.8779 13.8008 10.542 13.4648C10.2061 13.1289 9.9961 12.6874 9.94727 12.2148C9.89847 11.7421 10.0141 11.2667 10.2744 10.8691C10.5347 10.4716 10.9242 10.1756 11.377 10.0312C11.8296 9.88705 12.3185 9.90362 12.7607 10.0771L17.7988 5.03809V2.9834C17.799 2.70873 17.9084 2.44532 18.1025 2.25098L20.0117 0.341797C20.0471 0.306231 20.092 0.280806 20.1406 0.268555C20.1892 0.256324 20.2402 0.256958 20.2881 0.271484Z" fill="#FB923C"/>
</svg>
