<svg width="27" height="21" viewBox="0 0 27 21" fill="none" xmlns="http://www.w3.org/2000/svg">
<path d="M22.3643 9.42578C22.5204 9.39488 22.6818 9.39465 22.8379 9.42578C22.9941 9.45699 23.143 9.51886 23.2754 9.60742C23.4078 9.69603 23.5219 9.80988 23.6104 9.94238C23.6185 9.95465 23.6251 9.96792 23.6328 9.98047L26.6426 14.4932H26.6416C26.7317 14.6231 26.7961 14.7694 26.8301 14.9238C26.8649 15.0822 26.8674 15.2458 26.8379 15.4053C26.8083 15.5648 26.7475 15.7171 26.6582 15.8525C26.5688 15.988 26.4525 16.1044 26.3174 16.1943C26.1823 16.2842 26.0305 16.3467 25.8711 16.377C25.7117 16.4072 25.5473 16.4044 25.3887 16.3701C25.2301 16.3358 25.08 16.27 24.9473 16.1768C24.8183 16.0861 24.708 15.9715 24.623 15.8389L23.2979 13.8516C23.0076 14.7298 22.6015 15.5705 22.082 16.3477C20.9486 18.0433 19.3377 19.3651 17.4531 20.1455C15.5684 20.926 13.494 21.1303 11.4932 20.7324C9.49241 20.3345 7.65448 19.3522 6.21191 17.9102L6.51465 17.6064L6.20801 17.9033C5.98705 17.6746 5.86454 17.3678 5.86719 17.0498C5.86995 16.7317 5.99775 16.4271 6.22266 16.2021C6.44765 15.9772 6.75219 15.8494 7.07031 15.8467C7.34859 15.8443 7.6177 15.938 7.83398 16.1094L7.92383 16.1875L7.92969 16.1924C9.03288 17.2953 10.4386 18.0463 11.9688 18.3506C13.4988 18.6548 15.0851 18.4992 16.5264 17.9023C17.9675 17.3055 19.1997 16.2947 20.0664 14.998C20.4502 14.4238 20.7535 13.8042 20.9736 13.1572L18.7227 14.6582C18.455 14.8367 18.127 14.9018 17.8115 14.8389C17.4961 14.7758 17.2186 14.5898 17.04 14.3223C16.8615 14.0546 16.7963 13.7267 16.8594 13.4111C16.9225 13.0957 17.1084 12.8182 17.376 12.6396L21.9268 9.60645C22.0592 9.51817 22.2082 9.45676 22.3643 9.42578ZM21.0752 16.9346C21.1797 16.8095 21.2794 16.6802 21.3779 16.5498C21.2795 16.6803 21.1797 16.8094 21.0752 16.9346ZM21.4277 16.4854C21.4503 16.4549 21.4739 16.4252 21.4961 16.3945L21.7041 16.0947C21.6153 16.2276 21.5226 16.3574 21.4277 16.4854ZM17.2988 13.7598C17.3 13.768 17.3022 13.776 17.3037 13.7842C17.2957 13.7398 17.291 13.6948 17.291 13.6494L17.2988 13.7598ZM17.4404 13.1973C17.4362 13.2029 17.4327 13.2091 17.4287 13.2148C17.4539 13.1788 17.4815 13.1445 17.5127 13.1133L17.4404 13.1973ZM9.4082 0.785156C11.2933 0.0046902 13.368 -0.199906 15.3691 0.198242C17.3702 0.596476 19.2079 1.57984 20.6504 3.02246H20.6514C20.8787 3.2502 21.0061 3.55909 21.0059 3.88086C21.0056 4.20271 20.8772 4.51088 20.6494 4.73828C20.5366 4.85088 20.4032 4.94108 20.2559 5.00195C20.1086 5.06281 19.9504 5.09386 19.791 5.09375C19.4692 5.09347 19.1601 4.96502 18.9326 4.7373V4.73633C17.8294 3.63392 16.4235 2.88325 14.8936 2.5791C13.3634 2.27497 11.7773 2.43143 10.3359 3.02832C8.89442 3.62541 7.66163 4.63651 6.79492 5.93359C6.413 6.50518 6.10961 7.12106 5.88965 7.76465L8.12988 6.27246C8.26233 6.18414 8.41124 6.12278 8.56738 6.0918C8.72359 6.06086 8.88485 6.06065 9.04102 6.0918C9.19725 6.123 9.3461 6.18484 9.47852 6.27344C9.61094 6.36206 9.72504 6.47585 9.81348 6.6084C9.90186 6.7409 9.96317 6.88967 9.99414 7.0459C10.0251 7.20219 10.0253 7.36329 9.99414 7.51953C9.96293 7.67579 9.90114 7.82461 9.8125 7.95703C9.72386 8.08945 9.60912 8.2026 9.47656 8.29102L4.92871 11.3213C4.82011 11.3941 4.7009 11.4487 4.5752 11.4834C4.54637 11.4914 4.5177 11.5 4.48828 11.5059C4.44915 11.5136 4.40973 11.5196 4.37012 11.5234C4.33071 11.5273 4.29089 11.5284 4.25098 11.5283C3.92937 11.5279 3.62079 11.3995 3.39355 11.1719C3.32541 11.1036 3.26723 11.0274 3.21777 10.9463C3.20552 10.9262 3.19268 10.9065 3.18164 10.8857L0.21582 6.4375L0.216797 6.43652C0.127088 6.30694 0.0622639 6.16181 0.0283203 6.00781C-0.00658903 5.84928 -0.00907848 5.685 0.0205078 5.52539C0.0501005 5.36581 0.111779 5.21359 0.201172 5.07812C0.29055 4.94279 0.406014 4.82622 0.541016 4.73633C0.676057 4.64645 0.827929 4.58492 0.987305 4.55469C1.14679 4.52444 1.31106 4.52629 1.46973 4.56055C1.62829 4.59482 1.77841 4.66062 1.91113 4.75391C2.04014 4.84458 2.14939 4.96006 2.23438 5.09277H2.23535L3.56055 7.08008C3.85063 6.20178 4.25784 5.36137 4.77734 4.58398C5.91096 2.88779 7.523 1.56574 9.4082 0.785156ZM19.6426 4.62402L19.791 4.63867V4.6377C19.6967 4.63756 19.6048 4.61933 19.5186 4.58594C19.5589 4.60159 19.6 4.61547 19.6426 4.62402ZM19.3398 4.48926C19.3454 4.49335 19.3518 4.49607 19.3574 4.5C19.3214 4.47476 19.2864 4.44756 19.2549 4.41602L19.3398 4.48926ZM20.3291 3.34375L20.083 3.10547C20.0808 3.10342 20.0784 3.10165 20.0762 3.09961C20.1618 3.17936 20.2461 3.26079 20.3291 3.34375Z" fill="#079669"/>
</svg>
