<svg width="26" height="26" viewBox="0 0 26 26" fill="none" xmlns="http://www.w3.org/2000/svg">
<path d="M17.2721 7.92792C17.3894 8.04496 17.4825 8.18401 17.546 8.33708C17.6096 8.49016 17.6423 8.65427 17.6423 8.82C17.6423 8.98573 17.6096 9.14984 17.546 9.30292C17.4825 9.45599 17.3894 9.59504 17.2721 9.71208L14.3816 12.6L17.2721 15.4879C17.5087 15.7245 17.6416 16.0454 17.6416 16.38C17.6416 16.7146 17.5087 17.0355 17.2721 17.2721C17.0355 17.5087 16.7146 17.6416 16.38 17.6416C16.0454 17.6416 15.7245 17.5087 15.4879 17.2721L12.6 14.3816L9.71208 17.2721C9.59493 17.3892 9.45585 17.4822 9.30279 17.5456C9.14973 17.609 8.98567 17.6416 8.82 17.6416C8.65433 17.6416 8.49027 17.609 8.33721 17.5456C8.18415 17.4822 8.04507 17.3892 7.92792 17.2721C7.81077 17.1549 7.71784 17.0159 7.65444 16.8628C7.59104 16.7097 7.55841 16.5457 7.55841 16.38C7.55841 16.2143 7.59104 16.0503 7.65444 15.8972C7.71784 15.7441 7.81077 15.6051 7.92792 15.4879L10.8184 12.6L7.92792 9.71208C7.81077 9.59493 7.71784 9.45585 7.65444 9.30279C7.59104 9.14973 7.55841 8.98567 7.55841 8.82C7.55841 8.65433 7.59104 8.49027 7.65444 8.33721C7.71784 8.18415 7.81077 8.04507 7.92792 7.92792C8.04507 7.81077 8.18415 7.71784 8.33721 7.65444C8.49027 7.59104 8.65433 7.55841 8.82 7.55841C8.98567 7.55841 9.14973 7.59104 9.30279 7.65444C9.45585 7.71784 9.59493 7.81077 9.71208 7.92792L12.6 10.8184L15.4879 7.92792C15.605 7.81058 15.744 7.71748 15.8971 7.65396C16.0502 7.59044 16.2143 7.55775 16.38 7.55775C16.5457 7.55775 16.7098 7.59044 16.8629 7.65396C17.016 7.71748 17.155 7.81058 17.2721 7.92792ZM12.6 0C9.25827 0 6.05341 1.3275 3.69045 3.69045C1.3275 6.05341 0 9.25827 0 12.6C0 15.9417 1.3275 19.1466 3.69045 21.5095C6.05341 23.8725 9.25827 25.2 12.6 25.2C15.9417 25.2 19.1466 23.8725 21.5095 21.5095C23.8725 19.1466 25.2 15.9417 25.2 12.6C25.2 9.25827 23.8725 6.05341 21.5095 3.69045C19.1466 1.3275 15.9417 0 12.6 0ZM2.52 12.6C2.52 9.92662 3.582 7.36273 5.47236 5.47236C7.36273 3.582 9.92662 2.52 12.6 2.52C15.2734 2.52 17.8373 3.582 19.7276 5.47236C21.618 7.36273 22.68 9.92662 22.68 12.6C22.68 15.2734 21.618 17.8373 19.7276 19.7276C17.8373 21.618 15.2734 22.68 12.6 22.68C9.92662 22.68 7.36273 21.618 5.47236 19.7276C3.582 17.8373 2.52 15.2734 2.52 12.6Z" fill="#079669"/>
</svg>
