<svg width="35" height="35" viewBox="0 0 35 35" fill="none" xmlns="http://www.w3.org/2000/svg">
<path d="M17.623 0.705566C19.2063 0.704057 20.7804 0.922769 22.3027 1.35791H22.3018C22.4953 1.41228 22.6761 1.50498 22.834 1.62939C22.9919 1.75389 23.1246 1.90796 23.2227 2.0835C23.3207 2.2591 23.3831 2.45305 23.4062 2.65283C23.4293 2.85247 23.4126 3.0553 23.3574 3.24854C23.302 3.44194 23.2084 3.62343 23.083 3.78076C22.9576 3.93805 22.8021 4.06938 22.626 4.1665C22.4497 4.26362 22.2557 4.32416 22.0557 4.34619C21.8565 4.36811 21.6553 4.3503 21.4629 4.29443V4.29541C20.3703 3.98355 19.2437 3.8058 18.1094 3.76709L17.623 3.75928C13.9335 3.75928 10.3951 5.22562 7.78613 7.83447C5.17724 10.4434 3.71103 13.9819 3.71094 17.6714C3.71097 21.3609 5.17729 24.8994 7.78613 27.5083C10.3951 30.1172 13.9335 31.5835 17.623 31.5835C19.4498 31.5835 21.2586 31.223 22.9463 30.5239C24.6341 29.8248 26.1682 28.8001 27.46 27.5083C28.7517 26.2165 29.7765 24.6824 30.4756 22.9946C31.1745 21.307 31.5351 19.498 31.5352 17.6714C31.5351 16.3384 31.3475 15.0502 30.999 13.8325L30.9951 13.8188C30.9001 13.4351 30.9584 13.0293 31.1562 12.687C31.3543 12.3448 31.6775 12.0918 32.0576 11.9829C32.4376 11.8742 32.8452 11.9168 33.1943 12.1021C33.4998 12.2643 33.7405 12.5251 33.8779 12.8394L33.9297 12.978L33.9346 12.9907L34.085 13.5532C34.4149 14.8731 34.5898 16.2524 34.5898 17.6714C34.5898 27.0415 26.9932 34.6381 17.623 34.6382C8.25284 34.6382 0.656318 27.0416 0.65625 17.6714C0.656447 8.30158 8.25233 0.706022 17.6221 0.705566H17.623ZM21.8857 31.3159C22.0707 31.2581 22.2549 31.1977 22.4375 31.1323L22.458 31.1245C22.2686 31.1926 22.0776 31.2559 21.8857 31.3159ZM12.7539 8.81982C14.5888 7.80978 16.6925 7.39587 18.7734 7.6333L18.7744 7.63232L18.7773 7.6333C18.7792 7.63351 18.7814 7.63311 18.7832 7.6333L18.7822 7.63428C18.9818 7.65383 19.1756 7.71173 19.3525 7.80615C19.5317 7.90181 19.6902 8.03239 19.8184 8.18994C19.9465 8.34761 20.0426 8.53012 20.0996 8.7251C20.1565 8.91996 20.1743 9.12497 20.1514 9.32666C20.1283 9.52841 20.0642 9.72379 19.9648 9.90088C19.8654 10.078 19.7316 10.2341 19.5713 10.3589C19.411 10.4835 19.2273 10.5745 19.0312 10.6274C18.8373 10.6797 18.6347 10.6925 18.4355 10.6665V10.6675C17.448 10.5533 16.4469 10.6499 15.499 10.9497C14.5513 11.2495 13.6777 11.7465 12.9355 12.4077C12.1933 13.069 11.5983 13.8796 11.1914 14.7866C10.7846 15.6937 10.5744 16.6773 10.5742 17.6714C10.5785 18.6285 10.7783 19.575 11.1602 20.4526C11.5423 21.3308 12.0998 22.1222 12.7979 22.7778C13.4959 23.4334 14.3204 23.9397 15.2207 24.2661C16.1212 24.5925 17.079 24.7323 18.0352 24.6763C18.9912 24.6202 19.9261 24.3702 20.7822 23.9409C21.6383 23.5116 22.3979 22.9118 23.0146 22.1792C23.6314 21.4466 24.0931 20.5959 24.3701 19.6792C24.6471 18.7626 24.7347 17.7986 24.627 16.8472V16.8462C24.5882 16.5801 24.6195 16.3078 24.7197 16.0581C24.8221 15.8032 24.9915 15.5801 25.21 15.4136C25.4286 15.247 25.6888 15.1429 25.9619 15.1118C26.2351 15.0807 26.5122 15.1236 26.7627 15.2368H26.7617C27.272 15.465 27.6162 15.9521 27.6611 16.5093H27.6602C27.9027 18.5892 27.494 20.6938 26.4883 22.5308C25.4802 24.3719 23.923 25.8533 22.0342 26.769C20.1452 27.6848 18.0173 27.9892 15.9473 27.6401C13.8775 27.291 11.9675 26.3062 10.4834 24.8218C8.99987 23.339 8.01473 21.4308 7.66406 19.3628C7.31356 17.2947 7.61526 15.1678 8.52734 13.2788C9.43946 11.3901 10.9165 9.83136 12.7539 8.81982ZM21.8662 26.4243L22.1826 26.2642L22.1992 26.2544C22.0894 26.3131 21.9785 26.3699 21.8662 26.4243ZM18.0576 25.0591L17.7617 25.0688C17.8603 25.0678 17.959 25.0658 18.0576 25.0601C18.1157 25.0567 18.1735 25.0492 18.2314 25.0444C18.1735 25.0492 18.1157 25.0557 18.0576 25.0591ZM20.0977 24.646C20.1526 24.6266 20.2082 24.6091 20.2627 24.5884L20.3057 24.5708C20.2369 24.5974 20.1672 24.6215 20.0977 24.646ZM20.9541 24.2837L20.6113 24.4448C20.7267 24.3942 20.8412 24.3413 20.9541 24.2847C20.9932 24.2651 21.0307 24.2424 21.0693 24.2222C21.0308 24.2424 20.993 24.2642 20.9541 24.2837ZM12.5352 23.0581C12.6165 23.1345 12.7003 23.2078 12.7852 23.2798L12.5352 23.0571C12.4962 23.0205 12.459 22.9822 12.4209 22.9448C12.4591 22.9823 12.4961 23.0215 12.5352 23.0581ZM23.3086 22.4263L23.1123 22.646C23.179 22.5743 23.2454 22.5023 23.3086 22.4272C23.3309 22.4008 23.3502 22.372 23.3721 22.3452C23.3503 22.3718 23.3307 22.4 23.3086 22.4263ZM28.7734 1.0874C28.9081 1.05347 29.0497 1.05688 29.1826 1.09717L29.1816 1.09814C29.457 1.17981 29.6575 1.4065 29.7119 1.68018L30.3623 4.93799L33.6191 5.58936C33.8914 5.64382 34.1194 5.84335 34.2012 6.11768L34.2236 6.21826C34.2401 6.31997 34.236 6.42424 34.2109 6.5249C34.1775 6.65904 34.1082 6.7814 34.0107 6.87939V6.88037L31.3711 9.51807V9.51904C31.0736 9.81622 30.6833 9.99975 30.2686 10.0415L30.0889 10.0503H27.4102L20.7285 16.7271C20.9191 17.3539 20.916 18.0257 20.7158 18.6538C20.4896 19.3633 20.0264 19.9735 19.4033 20.3813C18.7803 20.7892 18.0356 20.9705 17.2949 20.894C16.5543 20.8175 15.8624 20.4879 15.3359 19.9614C14.8095 19.4349 14.4808 18.7431 14.4043 18.0024C14.3279 17.2617 14.5082 16.517 14.916 15.894C15.3239 15.2711 15.9341 14.8077 16.6436 14.5815C17.2709 14.3815 17.9421 14.3789 18.5684 14.5688L25.249 7.88916V5.21045C25.2493 4.72916 25.4411 4.26774 25.7812 3.92725L28.4189 1.28857C28.5166 1.19064 28.6393 1.12128 28.7734 1.0874ZM17.5488 20.5259C17.5527 20.526 17.5567 20.5248 17.5605 20.5249C17.4854 20.5231 17.4102 20.52 17.335 20.5122L17.5488 20.5259ZM14.7852 17.9634C14.7926 18.035 14.8047 18.1058 14.8174 18.1763C14.8047 18.1058 14.7935 18.035 14.7861 17.9634C14.7783 17.8873 14.7732 17.8109 14.7715 17.7349C14.7732 17.811 14.7773 17.8872 14.7852 17.9634ZM25.3271 15.8198C25.2941 15.8529 25.263 15.8884 25.2344 15.9253C25.2644 15.8868 25.2971 15.8503 25.332 15.8159L25.3271 15.8198ZM26.6045 15.5874C26.6968 15.6286 26.7811 15.6819 26.8574 15.7437C26.8207 15.7139 26.7828 15.6849 26.7422 15.6597L26.6045 15.5864C26.5575 15.5652 26.509 15.5483 26.46 15.5337C26.509 15.5483 26.5575 15.5662 26.6045 15.5874ZM25.8545 15.521C25.8103 15.5322 25.767 15.5467 25.7246 15.563C25.7683 15.5462 25.8129 15.5315 25.8584 15.52L25.8545 15.521ZM26.0059 15.4927L25.9102 15.5103C25.9419 15.5038 25.9736 15.4973 26.0059 15.4937C26.0569 15.4879 26.1081 15.4847 26.1592 15.4858C26.1082 15.4848 26.0569 15.4869 26.0059 15.4927ZM16.3574 15.1108C16.3312 15.1239 16.3051 15.1371 16.2793 15.1509C16.3051 15.1371 16.3312 15.1239 16.3574 15.1108ZM16.5576 15.02C16.5314 15.0306 16.5054 15.0418 16.4795 15.0532C16.5054 15.0419 16.5314 15.0306 16.5576 15.02ZM17.2363 14.8384C17.1559 14.8495 17.0757 14.8642 16.9961 14.8823C17.0757 14.8644 17.1558 14.8494 17.2363 14.8384ZM33.5654 13.0972C33.6654 13.4452 33.7528 13.7981 33.8301 14.1548C33.7932 13.9844 33.755 13.8144 33.7129 13.646C33.6668 13.4618 33.6176 13.278 33.5654 13.0962V13.0972ZM33.0146 12.4419C33.0785 12.4758 33.1387 12.5154 33.1943 12.5601C33.167 12.5381 33.1387 12.517 33.1094 12.4976L33.0146 12.4409V12.4419ZM12.9395 9.15576L12.6123 9.34424C12.5257 9.39639 12.4402 9.45065 12.3555 9.50537C12.5456 9.38268 12.7403 9.26638 12.9395 9.15674C13.05 9.09591 13.161 9.03631 13.2734 8.97998C13.1611 9.03625 13.0498 9.09501 12.9395 9.15576ZM18.457 7.98682C18.5511 7.99494 18.6452 8.00432 18.7393 8.01514C18.777 8.01864 18.8145 8.02356 18.8516 8.03076L18.7393 8.01416C18.6453 8.00335 18.5511 7.99485 18.457 7.98682ZM26.0518 4.19873L25.957 4.30322C25.9453 4.3176 25.934 4.33238 25.9229 4.34717C25.9625 4.29508 26.006 4.24556 26.0527 4.19873L28.6904 1.56006L26.0518 4.19873ZM22.1973 1.72803C22.2336 1.73822 22.2697 1.74951 22.3047 1.76318C22.2696 1.74946 22.2337 1.73727 22.1973 1.72705C22.0212 1.67673 21.8444 1.62986 21.667 1.58545C21.8444 1.62989 22.0212 1.67768 22.1973 1.72803Z" fill="#2B4DFF"/>
</svg>
