<svg width="18" height="25" viewBox="0 0 18 25" fill="none" xmlns="http://www.w3.org/2000/svg">
<path d="M8.90039 0C9.25403 6.16532e-08 9.59486 0.13771 9.84766 0.384766C10.1007 0.632096 10.2451 0.96943 10.2451 1.32324V2.46191H15.1963C15.5499 2.46191 15.8917 2.5996 16.1445 2.84668C16.3974 3.09402 16.541 3.43147 16.541 3.78516C16.541 4.13886 16.3974 4.47631 16.1445 4.72363C15.8917 4.97071 15.5499 5.1084 15.1963 5.1084H10.2451V11.0771H12.0488C13.5713 11.0772 15.033 11.6688 16.1123 12.7236C17.1919 13.7788 17.8008 15.2117 17.8008 16.708C17.8008 18.2043 17.1919 19.6372 16.1123 20.6924C15.033 21.7472 13.5713 22.3388 12.0488 22.3389H10.2451V23.4775C10.2451 23.8314 10.1007 24.1687 9.84766 24.416C9.59486 24.6631 9.25403 24.8008 8.90039 24.8008C8.54676 24.8008 8.20592 24.6631 7.95312 24.416C7.70007 24.1687 7.55573 23.8314 7.55566 23.4775V22.3389H1.34473C0.991113 22.3388 0.650234 22.2012 0.397461 21.9541C0.144479 21.7067 0 21.3694 0 21.0156C4.09205e-05 20.6618 0.144421 20.3245 0.397461 20.0771C0.650234 19.8301 0.991113 19.6924 1.34473 19.6924H7.55566V13.7236H5.75195C4.22949 13.7236 2.76776 13.132 1.68848 12.0771C0.608888 11.0219 2.02777e-05 9.58907 0 8.09277C0 6.59648 0.608917 5.16362 1.68848 4.1084C2.76776 3.05354 4.22949 2.46199 5.75195 2.46191H7.55566V1.32324C7.55573 0.96943 7.70007 0.632096 7.95312 0.384766C8.20592 0.13771 8.54676 0 8.90039 0ZM0.558594 21.5283C0.56891 21.5435 0.580518 21.5577 0.591797 21.5723C0.574468 21.5498 0.558053 21.5268 0.542969 21.5029C0.548257 21.5113 0.552987 21.5201 0.558594 21.5283ZM0.511719 21.4512C0.516055 21.4591 0.520849 21.4668 0.525391 21.4746C0.510242 21.4486 0.49687 21.4218 0.484375 21.3945C0.493081 21.4136 0.501658 21.4327 0.511719 21.4512ZM0.441406 21.2842C0.451427 21.3165 0.464064 21.3479 0.477539 21.3789C0.463995 21.3479 0.451449 21.3165 0.441406 21.2842ZM12.0488 20.0928L12.2207 20.0889C12.2658 20.0867 12.3106 20.082 12.3555 20.0781C12.2539 20.087 12.1516 20.0928 12.0488 20.0928ZM10.2451 19.6924H12.0488C12.864 19.6923 13.6441 19.3761 14.2178 18.8154C14.7912 18.255 15.1113 17.4966 15.1113 16.708C15.1113 15.9195 14.7912 15.161 14.2178 14.6006C13.6441 14.0399 12.864 13.7237 12.0488 13.7236H10.2451V19.6924ZM14.4971 19.1016L14.6152 18.9795C14.647 18.9452 14.6778 18.9104 14.708 18.875C14.6414 18.9532 14.5713 19.029 14.4971 19.1016ZM3.00391 12.5811C3.0897 12.6312 3.17723 12.6783 3.26562 12.7236C3.10029 12.6388 2.93911 12.5459 2.7832 12.4443L3.00391 12.5811ZM5.75195 5.1084C4.93679 5.10847 4.15669 5.42465 3.58301 5.98535C3.00957 6.54582 2.68945 7.3042 2.68945 8.09277C2.68947 8.88132 3.00959 9.63975 3.58301 10.2002C4.15668 10.7609 4.93682 11.0771 5.75195 11.0771H7.55566V5.1084H5.75195ZM2.30664 8.42676C2.31105 8.4702 2.31616 8.51351 2.32227 8.55664C2.30842 8.45878 2.29899 8.36006 2.29395 8.26074L2.30664 8.42676ZM3.07324 5.94727C3.04402 5.98212 3.01598 6.01784 2.98828 6.05371C3.05016 5.97361 3.11615 5.89619 3.18555 5.82129L3.07324 5.94727Z" fill="#079669"/>
</svg>
