<svg width="25" height="25" viewBox="0 0 25 25" fill="none" xmlns="http://www.w3.org/2000/svg">
<path d="M12.8711 0.448486C14.5257 0.448486 16.0882 0.763748 17.5537 1.39575C19.0097 2.02369 20.2817 2.87765 21.3633 3.95923C22.4446 5.04056 23.299 6.31084 23.9277 7.76489C24.5608 9.22906 24.8759 10.7921 24.875 12.4485V12.8264C24.875 12.9864 24.8591 13.146 24.8271 13.304L24.7178 13.842L24.1924 13.6838L22.9531 13.3108L22.5977 13.2034V12.4485C22.5977 9.72459 21.6573 7.43585 19.7725 5.55103C17.8876 3.6662 15.5989 2.72583 12.875 2.72583C10.1511 2.72583 7.86236 3.6662 5.97754 5.55103C4.09272 7.43585 3.15234 9.72459 3.15234 12.4485C3.15234 15.1724 4.09272 17.4611 5.97754 19.3459C7.86236 21.2308 10.1511 22.1711 12.875 22.1711H13.623L13.7344 22.5178L14.1328 23.7561L14.3047 24.2883L13.7559 24.3987C13.5936 24.4315 13.4299 24.4485 13.2656 24.4485H12.875C11.2189 24.4485 9.65632 24.1343 8.19238 23.5032C6.73789 22.876 5.46728 22.0212 4.38574 20.9387C3.30446 19.8565 2.45023 18.5866 1.82227 17.134C1.19006 15.6716 0.875009 14.1094 0.875 12.4524C0.875 10.7956 1.1893 9.23287 1.82129 7.76978L2.06738 7.23267C2.6655 5.99972 3.43705 4.9083 4.38184 3.96118C5.46181 2.87855 6.73232 2.02374 8.18848 1.39575C9.65404 0.763722 11.2164 0.448495 12.8711 0.448486ZM13.0195 11.97L21.6699 14.5754L23.1865 15.0315L21.6826 15.5286L18.8828 16.4524L24.458 22.0051L24.8135 22.3586L24.459 22.7122L23.1387 24.0325L22.7852 24.387L22.4316 24.0315L16.8789 18.4563L15.9551 21.2542L15.458 22.7581L15.002 21.2424L12.3965 12.593L12.1279 11.7014L13.0195 11.97ZM12.875 5.55981C14.6348 5.55981 16.17 6.13782 17.4551 7.29224L17.6895 7.51196C18.8284 8.62448 19.5043 9.99552 19.7109 11.6077L19.8086 12.3665L19.0742 12.1516L17.6934 11.7463L17.415 11.6653L17.3477 11.3831C17.1128 10.4046 16.6295 9.6002 15.8916 8.9563L15.7402 8.82935C14.9206 8.16832 13.9726 7.83716 12.875 7.83716C11.6031 7.83716 10.527 8.28472 9.61914 9.19263C8.71124 10.1005 8.26367 11.1766 8.26367 12.4485C8.26367 13.5513 8.59832 14.5045 9.2666 15.3284C9.89908 16.108 10.6803 16.6273 11.6211 16.8958L11.8115 16.9465L12.085 17.0129L12.1699 17.2805L12.6006 18.6379L12.8369 19.384L12.0605 19.2844C10.3406 19.065 8.89037 18.3111 7.73145 17.0305V17.0295C6.56901 15.7447 5.98633 14.2092 5.98633 12.4485C5.98633 10.543 6.65936 8.90625 7.99609 7.5686C9.33367 6.23212 10.9697 5.55981 12.875 5.55981ZM11.4131 18.6614C11.5487 18.6932 11.6863 18.7216 11.8262 18.7454C11.9243 18.762 12.0239 18.7765 12.124 18.7893C12.0237 18.7765 11.9245 18.7611 11.8262 18.7444C11.6864 18.7207 11.5487 18.693 11.4131 18.6614ZM10.3936 18.3313C10.4497 18.3546 10.5055 18.379 10.5625 18.4006C10.5055 18.3789 10.4497 18.3546 10.3936 18.3313ZM10.1709 18.2375C10.1921 18.2474 10.2141 18.2553 10.2354 18.2649C10.1503 18.2268 10.0664 18.1867 9.9834 18.1448C10.0456 18.1763 10.1076 18.2082 10.1709 18.2375ZM4.05664 17.7151C4.14174 17.8559 4.23138 17.9946 4.32422 18.1321C4.13854 17.8573 3.96823 17.5758 3.81348 17.2874L4.05664 17.7151ZM9.66895 17.9758C9.76322 18.0306 9.85909 18.0824 9.95605 18.1321C9.85863 18.0823 9.76263 18.0299 9.66797 17.9749L9.66895 17.9758ZM10.8789 17.1643C10.9439 17.1917 11.0097 17.2176 11.0762 17.2424L10.8799 17.1643C10.815 17.137 10.7509 17.1082 10.6875 17.0784L10.8789 17.1643ZM8.6416 15.3274C8.66579 15.3621 8.69063 15.3966 8.71582 15.4309C8.69073 15.3965 8.66573 15.3622 8.6416 15.3274ZM7.55176 8.87817C7.48706 8.97268 7.42499 9.06824 7.36621 9.16528L7.53418 8.90454C7.5401 8.8958 7.54579 8.8869 7.55176 8.87817ZM7.81152 8.52466C7.77697 8.56838 7.74414 8.61317 7.71094 8.65747C7.7441 8.61314 7.77702 8.56841 7.81152 8.52466ZM8.82031 7.49146L8.82812 7.4856C8.96178 7.37468 9.0982 7.27023 9.2373 7.17212C9.09549 7.27194 8.95635 7.37816 8.82031 7.49146ZM7.6084 3.63013V3.6311V3.63013ZM7.65918 8.72583C7.62246 8.77621 7.58675 8.82705 7.55176 8.87817C7.58674 8.82706 7.6225 8.77623 7.65918 8.72583ZM7.94727 8.35864L7.91211 8.40063C7.88721 8.43064 7.86312 8.46117 7.83887 8.49146C7.87441 8.44698 7.91031 8.40251 7.94727 8.35864ZM9.36133 7.08618L9.33105 7.10669C9.29955 7.12801 9.26853 7.15014 9.2373 7.17212C9.27851 7.14306 9.31964 7.1141 9.36133 7.08618Z" fill="#2B4DFF"/>
</svg>
