<svg width="17" height="14" viewBox="0 0 17 14" fill="none" xmlns="http://www.w3.org/2000/svg">
<path d="M16.6495 1.54639C16.0367 1.81701 15.3761 1.99485 14.6917 2.0799C15.392 1.6701 15.9332 1.02062 16.1879 0.239691C15.5273 0.626289 14.7951 0.896907 14.0231 1.05155C13.3944 0.386598 12.511 0 11.5082 0C9.63792 0 8.10986 1.48454 8.10986 3.31701C8.10986 3.5799 8.14169 3.83505 8.1974 4.07474C5.36413 3.93557 2.84124 2.6134 1.16196 0.610825C0.867492 1.09794 0.700361 1.6701 0.700361 2.2732C0.700361 3.42526 1.29726 4.44588 2.22046 5.02577C1.6554 5.02577 1.13013 4.87113 0.668526 4.63918V4.66237C0.668526 6.27062 1.84641 7.61598 3.4063 7.91753C2.90557 8.05124 2.37966 8.06977 1.87028 7.97165C2.08644 8.63078 2.50979 9.20753 3.0808 9.62082C3.65182 10.0341 4.3418 10.2632 5.05374 10.2758C3.84695 11.204 2.35099 11.7057 0.811782 11.6985C0.541188 11.6985 0.270594 11.683 0 11.6521C1.51214 12.5954 3.3108 13.1443 5.23679 13.1443C11.5082 13.1443 14.9543 8.08763 14.9543 3.70361C14.9543 3.5567 14.9543 3.41753 14.9463 3.27062C15.6149 2.8067 16.1879 2.21907 16.6495 1.54639Z" fill="#2B4DFF"/>
</svg>
